<?xml version="1.0" encoding="utf-8"?>
<!-- Generator: Adobe Illustrator 19.0.0, SVG Export Plug-In . SVG Version: 6.00 Build 0)  -->
<svg version="1.1" id="Layer_1" xmlns="http://www.w3.org/2000/svg" xmlns:xlink="http://www.w3.org/1999/xlink" x="0px" y="0px"
	 viewBox="-593 601 412 200" enable-background="new -593 601 412 200" xml:space="preserve">
<g>
	<g>
		<path fill="#00B1E7" d="M-568.125,723.511c0,6.653-5.348,12.011-12.001,12.011h-0.48c-6.589,0-12.006-5.421-12.006-12.075v-25.313
			c0-6.653,5.418-12.004,12.006-12.004h0.48c6.653,0,12.001,5.35,12.001,12.004h-3.565c-0.072-4.798-3.842-8.574-8.644-8.574
			c-4.941,0-8.711,3.776-8.711,8.643v25.308c0,4.869,3.77,8.716,8.711,8.716c4.869,0,8.644-3.774,8.644-8.643v-0.343h3.565V723.511z
			"/>
		<path fill="#00B1E7" d="M-523.695,723.511c0,6.653-5.35,12.011-12.003,12.011h-1.303c-6.653,0-12.002-5.421-12.002-12.075v-25.313
			c0-6.653,5.348-12.004,12.002-12.004h1.303c6.653,0,12.003,5.35,12.003,12.004V723.511L-523.695,723.511z M-527.262,698.203
			c0-4.867-3.774-8.643-8.644-8.643h-0.888c-4.873,0-8.643,3.776-8.643,8.643v25.308c0,4.869,3.771,8.716,8.643,8.716h0.888
			c4.87,0,8.644-3.774,8.644-8.643V698.203z"/>
		<path fill="#00B1E7" d="M-478.649,686.818v48.016h-4.458l-15.504-38.339l-1.095-3.295l-0.273,0.064l0.273,3.502v38.068h-3.499
			v-48.016h4.458l15.569,38.622l1.03,3.014l0.273-0.073l-0.273-3.014v-38.549L-478.649,686.818L-478.649,686.818z"/>
		<path fill="#00B1E7" d="M-435.936,686.818v3.295h-17.971v17.695h16.323v3.295h-16.323v23.732h-3.567v-48.016L-435.936,686.818
			L-435.936,686.818z"/>
		<path fill="#00B1E7" d="M-396.306,686.818v3.295h-17.975v17.695h16.328v3.295h-16.328v20.437h18.591v3.295h-22.157v-48.016
			L-396.306,686.818L-396.306,686.818z"/>
		<path fill="#00B1E7" d="M-364.772,716.515h-8.231v18.318h-3.567v-48.016h12.21c5.485,0,10.011,4.463,10.011,10.012v9.604
			c0,4.19-2.811,8.164-6.788,9.54l7.82,18.861h-3.843L-364.772,716.515z M-357.914,696.9c0-3.637-3.015-6.652-6.653-6.652h-8.435
			v22.98h8.435c3.638,0,6.653-2.952,6.653-6.59C-357.914,706.64-357.914,696.9-357.914,696.9z"/>
		<path fill="#00B1E7" d="M-312.663,686.818v3.295h-17.968v17.695h16.324v3.295h-16.324v20.437h18.586v3.295h-22.153v-48.016
			L-312.663,686.818L-312.663,686.818z"/>
		<path fill="#00B1E7" d="M-268.372,686.818v48.016h-4.454l-15.504-38.339l-1.096-3.295l-0.276,0.064l0.276,3.502v38.068h-3.5
			v-48.016h4.461l15.568,38.622l1.031,3.014l0.272-0.073l-0.272-3.014v-38.549L-268.372,686.818L-268.372,686.818z"/>
		<path fill="#00B1E7" d="M-223.393,723.511c0,6.653-5.348,12.011-12.002,12.011h-0.479c-6.585,0-12.003-5.421-12.003-12.075
			v-25.313c0-6.653,5.418-12.004,12.003-12.004h0.479c6.653,0,12.002,5.35,12.002,12.004h-3.565
			c-0.068-4.798-3.839-8.574-8.643-8.574c-4.938,0-8.709,3.776-8.709,8.643v25.308c0,4.869,3.771,8.716,8.709,8.716
			c4.868,0,8.643-3.774,8.643-8.643v-0.343h3.565V723.511z"/>
		<path fill="#00B1E7" d="M-182.051,686.818v3.295h-17.967v17.695h16.324v3.295h-16.324v20.437h18.586v3.295h-22.153v-48.016
			L-182.051,686.818L-182.051,686.818z"/>
		<path fill="#FFFFFF" d="M-570.051,789.983c0,6.359-4.989,11.472-11.158,11.472h-0.437c-6.233,0-11.093-5.179-11.093-11.53v-21.877
			c0-6.359,4.859-11.465,11.093-11.465h0.437c6.169,0,11.158,5.107,11.158,11.465V789.983z M-575.228,768.111
			c0-3.678-2.743-6.608-6.229-6.608c-3.43,0-6.173,2.93-6.173,6.608v21.872c0,3.68,2.743,6.545,6.237,6.545
			c3.422,0,6.165-2.8,6.165-6.482V768.111L-575.228,768.111z"/>
		<path fill="#FFFFFF" d="M-565.689,786.745l13.961-29.541h5.611l-13.589,29.354h10.158v-11.22h5.235v11.22h3.616v5.049h-3.616
			v9.224h-5.235v-9.224h-16.141L-565.689,786.745L-565.689,786.745z"/>
		<path fill="#FFFFFF" d="M-500.057,757.204v4.921h-16.081v13.277h14.583v4.862h-14.583v20.567h-5.234v-43.627L-500.057,757.204
			L-500.057,757.204z"/>
		<path fill="#FFFFFF" d="M-474.066,757.204v4.921h-16.08v13.277h14.584v4.862h-14.584v15.639h16.579v4.928h-21.814v-43.627
			L-474.066,757.204L-474.066,757.204z"/>
		<path fill="#FFFFFF" d="M-446.266,766.922v3.431c0,2.928-1.557,5.606-3.555,7.418c2.37,1.926,3.988,4.611,3.988,8.1v4.49
			c0,6.109-5.17,10.47-10.906,10.47h-11.215v-43.627h11.405C-450.566,757.204-446.266,761.624-446.266,766.922z M-462.719,762.254
			v13.271h6.295c2.863,0,5.109-2.177,5.109-4.92v-3.495c0-2.676-2.245-4.855-5.109-4.855L-462.719,762.254L-462.719,762.254z
			 M-462.719,795.905h5.98c3.305,0,5.671-2.614,5.671-5.542v-4.49c0-1.992-1.619-5.606-5.671-5.606h-5.98V795.905z"/>
		<path fill="#FFFFFF" d="M-427.253,769.042c0-7.29,5.425-12.458,11.841-12.458c6.481,0,11.595,4.854,11.595,11.399
			c0,13.213-18.698,16.642-18.698,27.921h18.698v4.928h-23.934v-4.556c0-14.831,18.697-17.882,18.697-28.665
			c0-3.489-2.993-6.109-6.419-6.109c-3.803,0-6.546,3.366-6.546,7.539h-5.234V769.042z"/>
		<path fill="#FFFFFF" d="M-376.143,789.983c0,6.359-4.989,11.472-11.158,11.472h-0.437c-6.233,0-11.092-5.179-11.092-11.53v-21.877
			c0-6.359,4.859-11.465,11.092-11.465h0.437c6.17,0,11.158,5.107,11.158,11.465C-376.143,768.048-376.143,789.983-376.143,789.983z
			 M-381.317,768.111c0-3.678-2.743-6.608-6.23-6.608c-3.43,0-6.173,2.93-6.173,6.608v21.872c0,3.68,2.743,6.545,6.234,6.545
			c3.427,0,6.17-2.8,6.17-6.482v-21.935H-381.317z"/>
		<path fill="#FFFFFF" d="M-373.025,757.204h10.907v43.627h-5.235v-38.706h-5.671L-373.025,757.204L-373.025,757.204z"/>
		<path fill="#FFFFFF" d="M-350.087,800.832c0-14.776,9.535-32.535,9.845-38.706h-16.578v-4.922h21.813v4.548
			c0,7.105-9.721,25.244-9.721,39.08L-350.087,800.832L-350.087,800.832z"/>
		<path fill="#FFFFFF" d="M-315.063,757.204h11.905c5.547,0,9.973,4.299,9.973,9.718v8.981c0,5.479-4.426,9.782-9.973,9.782h-6.67
			v15.148h-5.235L-315.063,757.204L-315.063,757.204z M-298.484,766.988c0-2.621-2.177-4.734-4.921-4.734h-6.423v18.505h6.423
			c2.744,0,4.921-2.12,4.921-4.669C-298.484,776.089-298.484,766.988-298.484,766.988z"/>
		<path fill="#FFFFFF" d="M-263.517,789.983c0,6.359-5.299,11.472-11.841,11.472h-1.06c-6.607,0-11.841-5.179-11.841-11.53v-21.877
			c0-6.359,5.234-11.465,11.841-11.465h1.06c6.542,0,11.841,5.107,11.841,11.465V789.983z M-268.874,768.111
			c0-3.616-2.87-6.487-6.67-6.487h-0.683c-3.802,0-6.731,2.87-6.731,6.487v21.872c0,3.616,2.929,6.545,6.731,6.545h0.683
			c3.8,0,6.67-2.863,6.67-6.482V768.111z"/>
		<path fill="#FFFFFF" d="M-245.878,784.933h-5.608v15.898h-5.234v-43.627h11.902c5.551,0,9.976,4.299,9.976,9.718v8.293
			c0,3.989-2.119,7.29-5.671,8.85l7.104,16.766h-5.671L-245.878,784.933z M-240.142,766.988c0-2.621-2.181-4.734-4.863-4.734h-6.482
			v17.824h6.481c2.682,0,4.863-2.12,4.863-4.675L-240.142,766.988L-240.142,766.988z"/>
		<path fill="#FFFFFF" d="M-231.291,757.204h23.933v4.983h-9.284v38.644h-5.422v-38.644h-9.227V757.204z"/>
		<path fill="#FFFFFF" d="M-181.176,789.983c0,6.359-5.3,11.472-11.846,11.472h-1.059c-6.603,0-11.837-5.179-11.837-11.53v-21.877
			c0-6.359,5.234-11.465,11.837-11.465h1.059c6.546,0,11.846,5.107,11.846,11.465L-181.176,789.983L-181.176,789.983z
			 M-186.537,768.111c0-3.616-2.868-6.487-6.671-6.487h-0.683c-3.802,0-6.731,2.87-6.731,6.487v21.872
			c0,3.616,2.929,6.545,6.731,6.545h0.683c3.803,0,6.671-2.863,6.671-6.482L-186.537,768.111L-186.537,768.111z"/>
	</g>
	<g>
		<g>
			<polygon fill="#FFFFFF" points="-592.831,600.547 -555.306,600.547 -555.306,611.182 -568.303,611.182 -568.303,664.16 
				-579.933,664.16 -579.933,611.182 -592.831,611.182 			"/>
			<path fill="#FFFFFF" d="M-523.961,611.182h-1.994l-5.729,23.447h13.452L-523.961,611.182z M-515.868,600.547l9.904,35.799v27.814
				h-11.265v-18.906h-15.457v18.906h-11.261v-27.814l9.911-35.799H-515.868L-515.868,600.547z"/>
			<polygon fill="#FFFFFF" points="-478.076,600.547 -478.076,653.526 -458.175,653.526 -458.175,664.16 -489.616,664.16 
				-489.616,600.547 			"/>
			<path fill="#FFFFFF" d="M-422.186,630.897l19.621,33.263h-13.445l-19.621-33.621l18.716-29.993h13.351L-422.186,630.897z
				 M-435.277,664.16h-11.543v-63.614h11.543V664.16z"/>
		</g>
		<path fill="#FFFFFF" d="M-344.212,639.496l-25.354-6.131v-2.017c0,0,25.336-5.951,25.386-6.002l9.001-0.737l19.053-0.043v-11.365
			h-28.046l-36.115,9.989v18.333l36.115,9.989h28.046v-11.372h-19.067C-335.193,640.141-344.179,639.496-344.212,639.496z"/>
		<path fill="#FFFFFF" d="M-281.78,653.526h6.261c3.281,0,5.733-2.457,5.733-5.27v-6.719c0-1.826-1.729-5.363-5.733-5.363h-6.261
			V653.526z M-281.78,611.182v14.366h6.634c2.815,0,5.088-2.004,5.088-4.461v-5.45c0-2.462-2.273-4.454-5.088-4.454L-281.78,611.182
			L-281.78,611.182z M-258.704,615.449v5.285c0,3.717-1.812,7.169-4.089,9.898c2.729,2.814,4.723,6.443,4.723,10.813v6.811
			c0,9.544-8.354,15.904-17.449,15.904h-17.895v-63.613h18.171C-265.607,600.547-258.704,607.093-258.704,615.449"/>
		<rect x="-241.69" y="600.547" fill="#FFFFFF" width="11.631" height="63.613"/>
		<polygon fill="#FFFFFF" points="-218.702,600.547 -181.169,600.547 -181.169,611.182 -194.168,611.182 -194.168,664.16 
			-205.804,664.16 -205.804,611.182 -218.702,611.182 		"/>
	</g>
</g>
</svg>
