<svg xmlns="http://www.w3.org/2000/svg" viewBox="0 0 929.76 481.89"><defs><style>.a,.c{fill:#fff;}.b{fill:#00a9ce;}.c,.d{isolation:isolate;}.c{font-size:66px;font-family:Poppins-Bold, Poppins;font-weight:700;}.d{font-size:32px;fill:#40b38c;font-family:Poppins-SemiBold, Poppins;font-weight:600;}</style></defs><path class="a" d="M418.28,152.29h42.66l180.19-34.4a20.7,20.7,0,0,1,24,16.44l3.43,18h8.14L673,132.81v0A28.6,28.6,0,0,0,639.65,110h0Z"/><path class="a" d="M625.13,381.14l-9.76-53.45h-8.13l10,54.92v0a2.62,2.62,0,0,1,0,.37,1.26,1.26,0,0,1-.12.57,1.57,1.57,0,0,1-.6.69,1.68,1.68,0,0,1-.89.27,1.55,1.55,0,0,1-1-.38l-.05,0L540,327.69H523.83a14.07,14.07,0,0,1,6.85,3l.05,0,79,59.73h0a9.56,9.56,0,0,0,5.91,2.08,9.67,9.67,0,0,0,6.66-2.67,9.56,9.56,0,0,0,2.14-3,9.39,9.39,0,0,0,.81-3.83,9.77,9.77,0,0,0-.18-1.86Z"/><polygon class="a" points="210.64 191.93 210.65 191.93 210.65 191.93 210.64 191.93"/><path class="a" d="M520,327.69H477.21l-52,9.93-9.16,9.89,103.3-19.73h0Z"/><path class="a" d="M338.88,362.25l-.06-8.13L245,372h0a21,21,0,0,1-3.91.38,20.34,20.34,0,0,1-12.92-4.68A20.87,20.87,0,0,1,221,355.6l-25.1-131.7h0a21.06,21.06,0,0,1-.39-4,20.57,20.57,0,0,1,4.64-13,20.18,20.18,0,0,1,12-7.11L237.4,195v-8.15l-26.75,5.11A28.19,28.19,0,0,0,194,201.84a28.59,28.59,0,0,0-6.44,18.07,29.62,29.62,0,0,0,.53,5.51h0l25.1,131.7h0a28.84,28.84,0,0,0,9.94,16.78,28.27,28.27,0,0,0,18,6.52,29,29,0,0,0,5.45-.53h0Z"/><path class="b" d="M719,183a22.69,22.69,0,0,0-22.7-22.7H269.11a22.7,22.7,0,0,0-22.7,22.7V297a22.7,22.7,0,0,0,22.7,22.7h61.5a17.11,17.11,0,0,1,17.1,17.2v0l.5,67.95v.1a2,2,0,0,0,.17.85,1.66,1.66,0,0,0,.43.59,2.25,2.25,0,0,0,1.51.58,1.8,1.8,0,0,0,.8-.17,2.11,2.11,0,0,0,.76-.58l.05-.05,72.45-78.26h0a23.49,23.49,0,0,1,17.83-8.18h254.1A22.69,22.69,0,0,0,719,297Z"/><text class="c" transform="translate(329.4 264.29)">Talk a Bit</text><text class="d" transform="translate(429.3 135.64) rotate(-10.49)">2023<tspan class="a" x="76.58" y="0" xml:space="preserve"> edition</tspan></text></svg>