<?xml version="1.0" encoding="utf-8"?>
<!-- Generator: Adobe Illustrator 19.0.0, SVG Export Plug-In . SVG Version: 6.00 Build 0)  -->
<svg version="1.1" id="Layer_1" xmlns="http://www.w3.org/2000/svg" xmlns:xlink="http://www.w3.org/1999/xlink" x="0px" y="0px"
	 viewBox="-184.477 596.094 415 210" enable-background="new -184.477 596.094 415 210" xml:space="preserve">
<g id="BACKGROUND" display="none">
	<g id="fundos_5_" display="inline">
		<rect x="-1027.988" y="945.688" width="822.046" height="311.811"/>
	</g>
</g>
<g id="RULERS" display="none">
	<g display="inline">
		<rect x="-1027.5" y="1215.027" opacity="0.5" fill="#009ADD" enable-background="new    " width="822.047" height="42.52"/>
		<rect x="-1027.5" y="945.734" opacity="0.5" fill="#009ADD" enable-background="new    " width="822.047" height="42.52"/>
		<rect x="-758.714" y="945.734" opacity="0.5" fill="#009ADD" enable-background="new    " width="42.521" height="311.812"/>
		<rect x="-1027.5" y="945.734" opacity="0.5" fill="#009ADD" enable-background="new    " width="42.52" height="311.811"/>
		<rect x="-247.974" y="945.734" opacity="0.5" fill="#009ADD" enable-background="new    " width="42.521" height="311.811"/>
	</g>
</g>
<g>
	<path fill="#00B1E7" d="M-158.101,756.571c0,6.653-5.348,12.011-12.001,12.011h-0.48c-6.589,0-12.006-5.421-12.006-12.075v-25.313
		c0-6.654,5.418-12.004,12.006-12.004h0.48c6.653,0,12.001,5.35,12.001,12.004h-3.565c-0.072-4.798-3.842-8.574-8.644-8.574
		c-4.941,0-8.711,3.776-8.711,8.643v25.308c0,4.869,3.77,8.716,8.711,8.716c4.869,0,8.644-3.774,8.644-8.643v-0.343h3.565V756.571z"
		/>
	<path fill="#00B1E7" d="M-113.672,756.571c0,6.653-5.35,12.011-12.003,12.011h-1.303c-6.653,0-12.002-5.421-12.002-12.075v-25.313
		c0-6.654,5.348-12.004,12.002-12.004h1.303c6.653,0,12.003,5.35,12.003,12.004L-113.672,756.571L-113.672,756.571z
		 M-117.239,731.262c0-4.867-3.774-8.643-8.644-8.643h-0.888c-4.873,0-8.643,3.776-8.643,8.643v25.308
		c0,4.869,3.771,8.716,8.643,8.716h0.888c4.87,0,8.644-3.774,8.644-8.643V731.262z"/>
	<path fill="#00B1E7" d="M-68.625,719.877v48.016h-4.458l-15.504-38.339l-1.095-3.295l-0.273,0.064l0.273,3.502v38.068h-3.499
		v-48.016h4.458l15.569,38.622l1.03,3.014l0.273-0.073l-0.273-3.014v-38.549H-68.625z"/>
	<path fill="#00B1E7" d="M-25.912,719.877v3.295h-17.97v17.695h16.323v3.295h-16.323v23.732h-3.567v-48.016L-25.912,719.877
		L-25.912,719.877z"/>
	<path fill="#00B1E7" d="M13.718,719.877v3.295H-4.257v17.695h16.328v3.295H-4.257v20.437h18.591v3.295H-7.824v-48.016
		L13.718,719.877L13.718,719.877z"/>
	<path fill="#00B1E7" d="M45.251,749.575H37.02v18.318h-3.567v-48.016h12.21c5.485,0,10.011,4.463,10.011,10.012v9.604
		c0,4.19-2.811,8.164-6.788,9.54l7.82,18.861h-3.843L45.251,749.575z M52.109,729.96c0-3.637-3.015-6.652-6.653-6.652h-8.435v22.981
		h8.435c3.638,0,6.653-2.952,6.653-6.59C52.109,739.699,52.109,729.96,52.109,729.96z"/>
	<path fill="#00B1E7" d="M97.361,719.877v3.295H79.393v17.695h16.324v3.295H79.393v20.437h18.586v3.295H75.826v-48.016
		L97.361,719.877L97.361,719.877z"/>
	<path fill="#00B1E7" d="M141.652,719.877v48.016h-4.454l-15.504-38.339l-1.096-3.295l-0.276,0.064l0.276,3.502v38.068h-3.5v-48.016
		h4.461l15.568,38.622l1.031,3.014l0.272-0.073l-0.272-3.014v-38.549H141.652z"/>
	<path fill="#00B1E7" d="M186.63,756.571c0,6.653-5.348,12.011-12.002,12.011h-0.479c-6.585,0-12.003-5.421-12.003-12.075v-25.313
		c0-6.654,5.418-12.004,12.003-12.004h0.479c6.653,0,12.002,5.35,12.002,12.004h-3.565c-0.068-4.798-3.839-8.574-8.643-8.574
		c-4.938,0-8.709,3.776-8.709,8.643v25.308c0,4.869,3.771,8.716,8.709,8.716c4.868,0,8.643-3.774,8.643-8.643v-0.343h3.565V756.571z
		"/>
	<path fill="#00B1E7" d="M227.972,719.877v3.295h-17.967v17.695h16.324v3.295h-16.324v20.437h18.586v3.295h-22.153v-48.016
		L227.972,719.877L227.972,719.877z"/>
	<g>
		<g>
			<polygon fill="#FFFFFF" points="-182.807,633.606 -145.282,633.606 -145.282,644.241 -158.279,644.241 -158.279,697.22 
				-169.909,697.22 -169.909,644.241 -182.807,644.241 			"/>
			<path fill="#FFFFFF" d="M-113.938,644.241h-1.994l-5.729,23.446h13.452L-113.938,644.241z M-105.845,633.606l9.904,35.799v27.814
				h-11.265v-18.906h-15.457v18.906h-11.261v-27.814l9.911-35.799H-105.845L-105.845,633.606z"/>
			<polygon fill="#FFFFFF" points="-68.052,633.606 -68.052,686.587 -48.151,686.587 -48.151,697.22 -79.592,697.22 
				-79.592,633.606 			"/>
			<path fill="#FFFFFF" d="M-12.162,663.957L7.459,697.22H-5.986l-19.621-33.621l18.716-29.993H6.459L-12.162,663.957z
				 M-25.254,697.22h-11.543v-63.613h11.543V697.22z"/>
		</g>
		<path fill="#FFFFFF" d="M65.812,672.557l-25.354-6.131v-2.017c0,0,25.336-5.951,25.386-6.002l9.001-0.737l19.053-0.043v-11.365
			H65.851l-36.115,9.989v18.333l36.115,9.989h28.046V673.2H74.83C74.83,673.2,65.844,672.557,65.812,672.557z"/>
		<path fill="#FFFFFF" d="M128.243,686.587h6.261c3.281,0,5.733-2.457,5.733-5.271v-6.719c0-1.826-1.728-5.363-5.733-5.363h-6.261
			C128.243,669.235,128.243,686.587,128.243,686.587z M128.243,644.241v14.366h6.634c2.815,0,5.088-2.004,5.088-4.461v-5.45
			c0-2.462-2.273-4.454-5.088-4.454L128.243,644.241L128.243,644.241z M151.319,648.51v5.285c0,3.717-1.812,7.169-4.089,9.898
			c2.729,2.814,4.723,6.443,4.723,10.813v6.811c0,9.544-8.354,15.904-17.449,15.904H116.61v-63.613h18.171
			C144.416,633.606,151.319,640.153,151.319,648.51"/>
		<rect x="168.334" y="633.606" fill="#FFFFFF" width="11.631" height="63.613"/>
		<polygon fill="#FFFFFF" points="191.321,633.606 228.854,633.606 228.854,644.241 215.856,644.241 215.856,697.22 204.219,697.22 
			204.219,644.241 191.321,644.241 		"/>
	</g>
</g>
</svg>
