<?xml version="1.0" encoding="utf-8"?>
<!-- Generator: Adobe Illustrator 19.0.0, SVG Export Plug-In . SVG Version: 6.00 Build 0)  -->
<svg version="1.1" id="Layer_1" xmlns="http://www.w3.org/2000/svg" xmlns:xlink="http://www.w3.org/1999/xlink" x="0px" y="0px"
	 viewBox="-223.755 596 210 210" enable-background="new -223.755 596 210 210" xml:space="preserve">
<g>
	<path fill="#009AD7" stroke="#009AD7" stroke-width="0.07" stroke-miterlimit="10" d="M-206.998,748.055l26.568,14.901
		l14.994,26.499c-8.762-4.634-16.792-10.554-23.86-17.614C-196.376,764.825-202.337,756.797-206.998,748.055"/>
	<polygon fill="#009AD7" stroke="#009AD7" stroke-width="0.07" stroke-miterlimit="10" points="-167.822,750.884 -164.959,788.388 
		-179.554,762.612 	"/>
	<polygon fill="#009AD7" stroke="#009AD7" stroke-width="0.07" stroke-miterlimit="10" points="-166.73,752.294 -156.304,773.743 
		-163.947,788.773 	"/>
	<path fill="#009AD7" stroke="#009AD7" stroke-width="0.07" stroke-miterlimit="10" d="M-155.481,773.202l-10.294-21.183
		c4.67,4.282,9.901,7.941,15.585,10.817c5.69,2.907,11.71,5.009,17.923,6.223l-23.207,4.144h-0.007V773.202z"/>
	<polygon fill="#009AD7" stroke="#009AD7" stroke-width="0.07" stroke-miterlimit="10" points="-131.915,770.015 -163.064,789.233 
		-155.422,774.203 	"/>
	<polygon fill="#009AD7" stroke="#009AD7" stroke-width="0.07" stroke-miterlimit="10" points="-130.123,770.052 -132.696,786.304 
		-132.71,786.438 -162.169,789.823 	"/>
	<path fill="#009AD7" stroke="#009AD7" stroke-width="0.07" stroke-miterlimit="10" d="M-104.649,799.979
		c-4.731,0.688-9.487,1.021-14.202,1.021c-15.076,0-30.159-3.505-43.748-10.133l30.23-3.499L-104.649,799.979z"/>
	<polygon fill="#009AD7" stroke="#009AD7" stroke-width="0.07" stroke-miterlimit="10" points="-129.154,770.187 -104.761,798.857 
		-131.741,786.572 	"/>
	<polygon fill="#009AD7" stroke="#009AD7" stroke-width="0.07" stroke-miterlimit="10" points="-103.718,798.573 -127.444,770.698 
		-106.379,781.91 	"/>
	<path fill="#009AD7" stroke="#009AD7" stroke-width="0.07" stroke-miterlimit="10" d="M-107.842,769.525
		c6.303-1.014,12.393-2.872,18.149-5.506L-106.003,781l-20.819-11.09C-120.512,770.663-114.122,770.523-107.842,769.525"/>
	<polygon fill="#009AD7" stroke="#009AD7" stroke-width="0.07" stroke-miterlimit="10" points="-88.845,764.58 -102.733,798.439 
		-105.393,781.775 	"/>
	<polygon fill="#009AD7" stroke="#009AD7" stroke-width="0.07" stroke-miterlimit="10" points="-79.849,778.313 -79.849,778.318 
		-101.653,798.36 -101.684,798.36 -87.374,763.544 	"/>
	<path fill="#009AD7" stroke="#009AD7" stroke-width="0.07" stroke-miterlimit="10" d="M-101.393,799.454l22.405-20.581h0.009
		l29.822-6.062C-63.578,786.793-81.582,795.997-101.393,799.454"/>
	<polygon fill="#009AD7" stroke="#009AD7" stroke-width="0.07" stroke-miterlimit="10" points="-49.909,771.953 -78.943,777.859 
		-86.501,763.092 	"/>
	<polygon fill="#009AD7" stroke="#009AD7" stroke-width="0.07" stroke-miterlimit="10" points="-49.238,771.114 -84.811,762.494 
		-61.159,759.187 	"/>
	<path fill="#009AD7" stroke="#009AD7" stroke-width="0.07" stroke-miterlimit="10" d="M-58.208,734.88l-3.212,23.369l-23.348,3.27
		c5.548-3.134,10.602-6.981,15.115-11.475C-65.166,745.518-61.328,740.44-58.208,734.88"/>
	<polygon fill="#009AD7" stroke="#009AD7" stroke-width="0.07" stroke-miterlimit="10" points="-57.233,734.852 -48.538,770.407 
		-60.481,758.477 	"/>
	<polygon fill="#009AD7" stroke="#009AD7" stroke-width="0.07" stroke-miterlimit="10" points="-41.821,740.658 -47.693,769.746 
		-56.637,733.15 	"/>
	<path fill="#009AD7" stroke="#009AD7" stroke-width="0.07" stroke-miterlimit="10" d="M-40.831,740.615l20.6-22.419
		c-3.419,19.506-12.795,37.946-26.612,52.253L-40.831,740.615z"/>
	<polygon fill="#009AD7" stroke="#009AD7" stroke-width="0.07" stroke-miterlimit="10" points="-21.324,717.927 -41.392,739.785 
		-56.182,732.28 	"/>
	<polygon fill="#009AD7" stroke="#009AD7" stroke-width="0.07" stroke-miterlimit="10" points="-21.272,716.849 -55.154,730.801 
		-37.944,714.232 	"/>
	<path fill="#009AD7" stroke="#009AD7" stroke-width="0.07" stroke-miterlimit="10" d="M-49.872,692.827l11.156,20.779l-0.015,0.025
		l-16.968,16.332c2.636-5.778,4.486-11.875,5.485-18.156C-49.247,705.533-49.114,699.174-49.872,692.827"/>
	<polygon fill="#009AD7" stroke="#009AD7" stroke-width="0.07" stroke-miterlimit="10" points="-21.142,715.88 -37.8,713.265 
		-37.806,713.265 -49.085,692.223 	"/>
	<polygon fill="#009AD7" stroke="#009AD7" stroke-width="0.07" stroke-miterlimit="10" points="-20.859,714.829 -49.603,690.495 
		-33.224,687.88 	"/>
	<path fill="#009AD7" stroke="#009AD7" stroke-width="0.07" stroke-miterlimit="10" d="M-19.734,714.926l-12.688-27.666l3.484-30.25
		c4.364,8.904,7.366,18.414,8.917,28.277C-18.447,695.144-18.33,705.104-19.734,714.926"/>
	<polygon fill="#009AD7" stroke="#009AD7" stroke-width="0.07" stroke-miterlimit="10" points="-49.758,689.527 -49.567,689.222 
		-41.762,676.565 -29.98,657.446 -33.388,686.912 -49.521,689.498 	"/>
	<polygon fill="#009AD7" stroke="#009AD7" stroke-width="0.07" stroke-miterlimit="10" points="-30.562,656.54 -30.804,656.925 
		-49.807,687.728 -45.594,664.208 	"/>
	<path fill="#009AD7" stroke="#009AD7" stroke-width="0.07" stroke-miterlimit="10" d="M-67.85,653.899l21.256,10.26l-4.139,23.252
		c-1.262-6.255-3.329-12.273-6.238-17.943C-59.838,663.801-63.514,658.575-67.85,653.899"/>
	<polygon fill="#009AD7" stroke="#009AD7" stroke-width="0.07" stroke-miterlimit="10" points="-31.024,655.662 -46.055,663.335 
		-67.532,652.952 	"/>
	<polygon fill="#009AD7" stroke="#009AD7" stroke-width="0.07" stroke-miterlimit="10" points="-31.393,654.657 -68.992,651.86 
		-57.268,640.098 	"/>
	<path fill="#009AD7" stroke="#009AD7" stroke-width="0.07" stroke-miterlimit="10" d="M-71.98,612.639
		c17.592,9.334,32.214,23.94,41.518,41.414l-26.529-14.923L-71.98,612.639z"/>
	<polygon fill="#009AD7" stroke="#009AD7" stroke-width="0.07" stroke-miterlimit="10" points="-57.972,639.415 -69.668,651.167 
		-72.562,613.594 -57.972,639.407 	"/>
	<polygon fill="#009AD7" stroke="#009AD7" stroke-width="0.07" stroke-miterlimit="10" points="-70.761,649.747 -81.222,628.253 
		-73.589,613.229 	"/>
	<path fill="#009AD7" stroke="#009AD7" stroke-width="0.07" stroke-miterlimit="10" d="M-71.731,650.03
		c-4.67-4.312-9.902-7.95-15.586-10.839c-5.7-2.909-11.717-4.993-17.948-6.225l23.215-4.168L-71.731,650.03z"/>
	<polygon fill="#009AD7" stroke="#009AD7" stroke-width="0.07" stroke-miterlimit="10" points="-74.449,612.778 -82.092,627.8 
		-105.584,632.027 	"/>
	<polygon fill="#009AD7" stroke="#009AD7" stroke-width="0.07" stroke-miterlimit="10" points="-75.344,612.186 -107.375,631.99 
		-104.804,615.589 	"/>
	<path fill="#009AD7" stroke="#009AD7" stroke-width="0.07" stroke-miterlimit="10" d="M-132.855,602.013
		c19.919-2.835,39.883,0.304,57.925,9.125l-30.215,3.497L-132.855,602.013z"/>
	<polygon fill="#009AD7" stroke="#009AD7" stroke-width="0.07" stroke-miterlimit="10" points="-105.756,615.434 -108.359,631.836 
		-132.756,603.142 	"/>
	<polygon fill="#009AD7" stroke="#009AD7" stroke-width="0.07" stroke-miterlimit="10" points="-110.064,631.328 -131.152,620.091 
		-133.796,603.436 	"/>
	<path fill="#009AD7" stroke="#009AD7" stroke-width="0.07" stroke-miterlimit="10" d="M-131.493,621.008l20.826,11.105
		c-6.327-0.73-12.724-0.601-18.998,0.408c-6.309,0.999-12.409,2.853-18.173,5.509L-131.493,621.008z"/>
	<polygon fill="#009AD7" stroke="#009AD7" stroke-width="0.07" stroke-miterlimit="10" points="-132.121,620.245 -148.646,637.462 
		-134.932,603.998 -134.764,603.59 	"/>
	<polygon fill="#009AD7" stroke="#009AD7" stroke-width="0.07" stroke-miterlimit="10" points="-157.688,623.691 -135.843,603.627 
		-150.132,638.487 -150.14,638.487 -157.688,623.699 	"/>
	<path fill="#009AD7" stroke="#009AD7" stroke-width="0.07" stroke-miterlimit="10" d="M-136.106,602.533l-22.404,20.597h-0.008
		l-29.817,6.066C-173.936,615.211-155.932,606.022-136.106,602.533"/>
	<polygon fill="#009AD7" stroke="#009AD7" stroke-width="0.07" stroke-miterlimit="10" points="-151.006,638.94 -187.613,630.057 
		-158.555,624.14 	"/>
	<polygon fill="#009AD7" stroke="#009AD7" stroke-width="0.07" stroke-miterlimit="10" points="-152.715,639.539 -176.355,642.817 
		-188.276,630.906 	"/>
	<path fill="#009AD7" stroke="#009AD7" stroke-width="0.07" stroke-miterlimit="10" d="M-152.741,640.523
		c-5.529,3.11-10.593,6.964-15.105,11.484c-4.494,4.51-8.333,9.608-11.445,15.151l3.198-23.387L-152.741,640.523z"/>
	<polygon fill="#009AD7" stroke="#009AD7" stroke-width="0.07" stroke-miterlimit="10" points="-177.048,643.509 -180.284,667.181 
		-188.975,631.597 	"/>
	<polygon fill="#009AD7" stroke="#009AD7" stroke-width="0.07" stroke-miterlimit="10" points="-189.82,632.267 -180.88,668.886 
		-195.679,661.346 	"/>
	<path fill="#009AD7" stroke="#009AD7" stroke-width="0.07" stroke-miterlimit="10" d="M-190.679,631.55l-6.011,29.839
		l-20.585,22.418C-213.857,664.308-204.484,645.869-190.679,631.55"/>
	<polygon fill="#009AD7" stroke="#009AD7" stroke-width="0.07" stroke-miterlimit="10" points="-196.124,662.212 -181.325,669.754 
		-216.19,684.077 	"/>
	<polygon fill="#009AD7" stroke="#009AD7" stroke-width="0.07" stroke-miterlimit="10" points="-182.357,671.239 -199.566,687.777 
		-216.237,685.156 	"/>
	<path fill="#009AD7" stroke="#009AD7" stroke-width="0.07" stroke-miterlimit="10" d="M-181.788,672.055
		c-2.662,5.798-4.508,11.876-5.512,18.171c-0.983,6.287-1.101,12.678-0.334,18.973l-11.164-20.801L-181.788,672.055z"/>
	<polygon fill="#009AD7" stroke="#009AD7" stroke-width="0.07" stroke-miterlimit="10" points="-199.722,688.739 -188.421,709.816 
		-216.393,686.117 	"/>
	<polygon fill="#009AD7" stroke="#009AD7" stroke-width="0.07" stroke-miterlimit="10" points="-187.904,711.53 -204.284,714.138 
		-216.678,687.174 	"/>
	<path fill="#009AD7" stroke="#009AD7" stroke-width="0.07" stroke-miterlimit="10" d="M-217.793,687.078l12.707,27.68l-3.48,30.242
		c-4.354-8.901-7.364-18.41-8.937-28.276C-219.068,706.867-219.17,696.893-217.793,687.078"/>
	<polygon fill="#009AD7" stroke="#009AD7" stroke-width="0.07" stroke-miterlimit="10" points="-187.751,712.505 -207.534,744.588 
		-204.131,715.107 -187.751,712.498 	"/>
	<polygon fill="#009AD7" stroke="#009AD7" stroke-width="0.07" stroke-miterlimit="10" points="-187.715,714.32 -191.915,737.808 
		-206.926,745.469 	"/>
	<path fill="#009AD7" stroke="#009AD7" stroke-width="0.07" stroke-miterlimit="10" d="M-169.689,748.105l-21.21-10.243
		l-0.022-0.015l4.145-23.213c1.246,6.257,3.336,12.276,6.231,17.929C-177.652,738.24-174.004,743.433-169.689,748.105"/>
	<polygon fill="#009AD7" stroke="#009AD7" stroke-width="0.07" stroke-miterlimit="10" points="-169.958,749.075 -206.476,746.34 
		-191.459,738.677 	"/>
	<polygon fill="#009AD7" stroke="#009AD7" stroke-width="0.07" stroke-miterlimit="10" points="-168.515,750.167 -180.245,761.904 
		-206.092,747.364 	"/>
</g>
</svg>
