<?xml version="1.0" encoding="utf-8"?>
<!-- Generator: Adobe Illustrator 19.0.0, SVG Export Plug-In . SVG Version: 6.00 Build 0)  -->
<svg version="1.1" id="Layer_1" xmlns="http://www.w3.org/2000/svg" xmlns:xlink="http://www.w3.org/1999/xlink" x="0px" y="0px"
	 viewBox="59.441 50.905 680.489 210" enable-background="new 59.441 50.905 680.489 210" xml:space="preserve">
<g>
	<path fill="#009AD7" d="M87.401,202.96l26.568,14.901l14.994,26.499c-8.762-4.634-16.792-10.554-23.86-17.614
		C98.023,219.73,92.062,211.702,87.401,202.96"/>
	<polygon fill="#009AD7" points="126.577,205.789 129.44,243.293 114.845,217.517 	"/>
	<polygon fill="#009AD7" points="127.669,207.199 138.095,228.648 130.452,243.678 	"/>
	<path fill="#009AD7" d="M138.918,228.107l-10.294-21.183c4.67,4.282,9.901,7.941,15.585,10.817
		c5.69,2.907,11.71,5.009,17.923,6.223l-23.207,4.144H138.918z"/>
	<polygon fill="#009AD7" points="162.484,224.92 131.335,244.138 138.977,229.108 	"/>
	<polygon fill="#009AD7" points="164.276,224.957 161.703,241.209 161.689,241.343 132.23,244.728 	"/>
	<path fill="#009AD7" d="M189.75,254.884c-4.732,0.688-9.488,1.021-14.202,1.021c-15.076,0-30.159-3.504-43.748-10.133l30.23-3.499
		L189.75,254.884z"/>
	<polygon fill="#009AD7" points="165.245,225.092 189.638,253.762 162.658,241.477 	"/>
	<polygon fill="#009AD7" points="190.681,253.478 166.955,225.603 188.02,236.815 	"/>
	<path fill="#009AD7" d="M186.557,224.43c6.303-1.014,12.393-2.872,18.149-5.506l-16.31,16.981l-20.819-11.09
		C173.887,225.568,180.277,225.428,186.557,224.43"/>
	<polygon fill="#009AD7" points="205.554,219.485 191.666,253.344 189.006,236.68 	"/>
	<polygon fill="#009AD7" points="214.55,233.218 214.55,233.223 192.746,253.265 192.715,253.265 207.025,218.449 	"/>
	<path fill="#009AD7" d="M193.006,254.359l22.405-20.58h0.009l29.822-6.062C230.821,241.697,212.817,250.902,193.006,254.359"/>
	<polygon fill="#009AD7" points="244.49,226.858 215.456,232.764 207.898,217.996 	"/>
	<polygon fill="#009AD7" points="245.161,226.019 209.588,217.399 233.24,214.092 	"/>
	<path fill="#009AD7" d="M236.191,189.785l-3.212,23.369l-23.348,3.27c5.548-3.134,10.603-6.981,15.115-11.475
		C229.233,200.423,233.071,195.345,236.191,189.785"/>
	<polygon fill="#009AD7" points="237.166,189.757 245.861,225.312 233.918,213.382 	"/>
	<polygon fill="#009AD7" points="252.578,195.562 246.706,224.651 237.762,188.055 	"/>
	<path fill="#009AD7" d="M253.568,195.52l20.6-22.419c-3.419,19.506-12.795,37.946-26.612,52.253L253.568,195.52z"/>
	<polygon fill="#009AD7" points="273.075,172.832 253.007,194.69 238.217,187.185 	"/>
	<polygon fill="#009AD7" points="273.127,171.754 239.245,185.706 256.455,169.137 	"/>
	<path fill="#009AD7" d="M244.527,147.732l11.156,20.779l-0.015,0.025L238.7,184.868c2.636-5.777,4.486-11.875,5.485-18.156
		C245.152,160.438,245.284,154.079,244.527,147.732"/>
	<polygon fill="#009AD7" points="273.257,170.785 256.599,168.17 256.593,168.17 245.314,147.128 	"/>
	<polygon fill="#009AD7" points="273.54,169.734 244.796,145.4 261.175,142.785 	"/>
	<path fill="#009AD7" d="M274.665,169.831l-12.688-27.666l3.484-30.25c4.364,8.904,7.366,18.414,8.916,28.277
		C275.952,150.049,276.069,160.009,274.665,169.831"/>
	<polygon fill="#009AD7" points="244.641,144.432 244.832,144.127 252.637,131.47 264.419,112.351 261.011,141.817 244.878,144.403 
			"/>
	<polygon fill="#009AD7" points="263.837,111.445 263.595,111.83 244.592,142.633 248.805,119.113 	"/>
	<path fill="#009AD7" d="M226.549,108.804l21.256,10.26l-4.139,23.252c-1.262-6.255-3.329-12.273-6.238-17.943
		C234.561,118.706,230.885,113.48,226.549,108.804"/>
	<polygon fill="#009AD7" points="263.375,110.567 248.344,118.24 226.867,107.857 	"/>
	<polygon fill="#009AD7" points="263.006,109.562 225.407,106.765 237.131,95.003 	"/>
	<path fill="#009AD7" d="M222.419,67.544c17.592,9.334,32.214,23.94,41.518,41.414l-26.529-14.923L222.419,67.544z"/>
	<polygon fill="#009AD7" points="236.427,94.32 224.731,106.071 221.837,68.499 236.427,94.312 	"/>
	<polygon fill="#009AD7" points="223.638,104.652 213.177,83.158 220.81,68.134 	"/>
	<path fill="#009AD7" d="M222.668,104.935c-4.67-4.312-9.902-7.95-15.586-10.839c-5.7-2.909-11.717-4.993-17.948-6.225l23.215-4.168
		L222.668,104.935z"/>
	<polygon fill="#009AD7" points="219.95,67.683 212.307,82.705 188.815,86.932 	"/>
	<polygon fill="#009AD7" points="219.055,67.091 187.024,86.895 189.595,70.494 	"/>
	<path fill="#009AD7" d="M161.543,56.918c19.919-2.835,39.883,0.304,57.925,9.125l-30.215,3.497L161.543,56.918z"/>
	<polygon fill="#009AD7" points="188.643,70.339 186.04,86.741 161.643,58.047 	"/>
	<polygon fill="#009AD7" points="184.335,86.233 163.247,74.996 160.603,58.341 	"/>
	<path fill="#009AD7" d="M162.906,75.913l20.825,11.105c-6.327-0.73-12.724-0.601-18.997,0.408
		c-6.309,0.999-12.409,2.854-18.173,5.509L162.906,75.913z"/>
	<polygon fill="#009AD7" points="162.278,75.15 145.753,92.367 159.467,58.903 159.635,58.495 	"/>
	<polygon fill="#009AD7" points="136.711,78.596 158.556,58.532 144.267,93.392 144.259,93.392 136.711,78.604 	"/>
	<path fill="#009AD7" d="M158.293,57.438l-22.404,20.597h-0.008l-29.817,6.066C120.463,70.116,138.467,60.927,158.293,57.438"/>
	<polygon fill="#009AD7" points="143.393,93.845 106.786,84.962 135.844,79.045 	"/>
	<polygon fill="#009AD7" points="141.684,94.444 118.044,97.722 106.123,85.811 	"/>
	<path fill="#009AD7" d="M141.658,95.428c-5.529,3.11-10.593,6.964-15.105,11.484c-4.494,4.51-8.333,9.608-11.445,15.151
		l3.198-23.387L141.658,95.428z"/>
	<polygon fill="#009AD7" points="117.351,98.414 114.115,122.086 105.424,86.502 	"/>
	<polygon fill="#009AD7" points="104.579,87.172 113.519,123.791 98.72,116.251 	"/>
	<path fill="#009AD7" d="M103.72,86.455l-6.011,29.839l-20.585,22.418C80.542,119.213,89.915,100.774,103.72,86.455"/>
	<polygon fill="#009AD7" points="98.275,117.117 113.074,124.659 78.209,138.982 	"/>
	<polygon fill="#009AD7" points="112.042,126.144 94.833,142.682 78.162,140.061 	"/>
	<path fill="#009AD7" d="M112.611,126.96c-2.662,5.798-4.508,11.876-5.512,18.171c-0.983,6.287-1.101,12.678-0.334,18.973
		l-11.164-20.801L112.611,126.96z"/>
	<polygon fill="#009AD7" points="94.677,143.644 105.978,164.721 78.006,141.022 	"/>
	<polygon fill="#009AD7" points="106.495,166.435 90.115,169.042 77.721,142.079 	"/>
	<path fill="#009AD7" d="M76.606,141.983l12.707,27.68l-3.48,30.242c-4.354-8.901-7.364-18.41-8.937-28.276
		C75.331,161.772,75.229,151.798,76.606,141.983"/>
	<polygon fill="#009AD7" points="106.648,167.41 86.865,199.493 90.268,170.012 106.648,167.403 	"/>
	<polygon fill="#009AD7" points="106.684,169.225 102.484,192.713 87.473,200.374 	"/>
	<path fill="#009AD7" d="M124.71,203.01l-21.21-10.243l-0.022-0.015l4.145-23.213c1.246,6.257,3.336,12.276,6.231,17.929
		C116.747,193.145,120.395,198.338,124.71,203.01"/>
	<polygon fill="#009AD7" points="124.441,203.98 87.923,201.245 102.94,193.582 	"/>
	<polygon fill="#009AD7" points="125.884,205.072 114.154,216.809 88.307,202.268 	"/>
</g>
<path fill="#009AD7" d="M115.209,235.552c4.34,3.305,8.931,6.259,13.753,8.809l-14.994-26.499L87.401,202.96
	c2.505,4.698,5.397,9.181,8.624,13.42l-16.543,35.722L115.209,235.552z"/>
</svg>
