<svg width="410" height="210" viewBox="0 0 410 210" fill="none" xmlns="http://www.w3.org/2000/svg">
<path d="M82.1845 177.016C83.6492 175.645 84.7935 174.527 85.6172 173.662C86.4399 172.784 87.1192 171.887 87.6548 170.969C88.2018 170.038 88.4432 169.149 88.3789 168.302C88.3183 167.503 88.0743 166.892 87.6468 166.467C87.2307 166.029 86.5928 165.843 85.7331 165.908C84.8979 165.972 84.2671 166.285 83.8404 166.849C83.4251 167.399 83.2321 168.111 83.2614 168.986L81.6403 169.109C81.5851 167.73 81.9221 166.636 82.6512 165.827C83.3804 165.018 84.3652 164.567 85.6057 164.473C86.8706 164.377 87.8981 164.651 88.6881 165.295C89.4904 165.938 89.9381 166.874 90.0313 168.102C90.1086 169.121 89.877 170.14 89.3365 171.156C88.8074 172.16 88.1839 173.06 87.4661 173.855C86.7473 174.638 85.823 175.561 84.693 176.622L91.0302 176.142L91.1364 177.542L82.2753 178.214L82.1845 177.016ZM93.3068 170.688C93.1465 168.576 93.3656 166.904 93.9639 165.673C94.5613 164.43 95.7197 163.743 97.4391 163.612C99.1462 163.483 100.389 163.988 101.167 165.127C101.944 166.254 102.413 167.873 102.573 169.986C102.736 172.135 102.519 173.831 101.922 175.075C101.324 176.318 100.172 177.005 98.4648 177.134C96.7454 177.265 95.4966 176.76 94.7185 175.621C93.9404 174.482 93.4698 172.838 93.3068 170.688ZM100.915 170.111C100.834 169.043 100.692 168.146 100.489 167.42C100.297 166.681 99.9624 166.101 99.4858 165.68C99.0215 165.259 98.3779 165.079 97.5551 165.141C96.7199 165.205 96.0985 165.48 95.6909 165.968C95.2955 166.455 95.0525 167.079 94.962 167.839C94.8828 168.586 94.8837 169.494 94.9648 170.563C95.0486 171.668 95.1865 172.59 95.3784 173.329C95.5826 174.067 95.9169 174.647 96.3812 175.069C96.8578 175.49 97.5137 175.668 98.3488 175.605C99.1717 175.543 99.7808 175.268 100.176 174.781C100.584 174.293 100.827 173.669 100.905 172.91C100.996 172.149 100.999 171.217 100.915 170.111ZM105.822 175.223C107.287 173.852 108.431 172.734 109.255 171.869C110.078 170.991 110.757 170.094 111.293 169.176C111.84 168.245 112.081 167.356 112.017 166.508C111.956 165.71 111.712 165.099 111.285 164.674C110.869 164.236 110.231 164.05 109.371 164.115C108.536 164.179 107.905 164.492 107.478 165.056C107.063 165.606 106.87 166.318 106.899 167.193L105.278 167.316C105.223 165.937 105.56 164.843 106.289 164.034C107.018 163.225 108.003 162.774 109.244 162.68C110.509 162.584 111.536 162.858 112.326 163.502C113.128 164.145 113.576 165.081 113.669 166.309C113.747 167.328 113.515 168.346 112.974 169.363C112.445 170.367 111.822 171.266 111.104 172.062C110.385 172.845 109.461 173.768 108.331 174.829L114.668 174.349L114.774 175.749L105.913 176.421L105.822 175.223ZM117.156 174.364C118.62 172.993 119.765 171.875 120.588 171.009C121.411 170.131 122.09 169.234 122.626 168.316C123.173 167.385 123.414 166.496 123.35 165.649C123.289 164.851 123.045 164.239 122.618 163.814C122.202 163.377 121.564 163.19 120.704 163.256C119.869 163.319 119.238 163.632 118.812 164.196C118.396 164.746 118.203 165.459 118.233 166.333L116.611 166.456C116.556 165.077 116.893 163.983 117.622 163.174C118.352 162.366 119.336 161.914 120.577 161.82C121.842 161.724 122.869 161.998 123.659 162.642C124.462 163.286 124.909 164.221 125.002 165.449C125.08 166.469 124.848 167.487 124.308 168.504C123.779 169.507 123.155 170.407 122.437 171.202C121.719 171.986 120.794 172.908 119.664 173.97L126.001 173.489L126.108 174.889L117.247 175.561L117.156 174.364Z" fill="#14C491"/>
<path d="M143.517 168.251C143.541 168.57 143.548 168.909 143.539 169.268L135.47 169.88C135.607 170.87 136.003 171.625 136.66 172.143C137.329 172.648 138.105 172.867 138.989 172.8C139.714 172.745 140.303 172.534 140.757 172.166C141.222 171.785 141.531 171.304 141.685 170.724L143.49 170.587C143.294 171.578 142.814 172.411 142.05 173.087C141.285 173.75 140.3 174.127 139.097 174.219C138.139 174.291 137.263 174.142 136.469 173.77C135.687 173.397 135.051 172.833 134.562 172.08C134.072 171.314 133.787 170.409 133.708 169.365C133.628 168.322 133.768 167.391 134.126 166.573C134.484 165.755 135.021 165.109 135.739 164.635C136.468 164.147 137.323 163.866 138.306 163.792C139.264 163.719 140.127 163.864 140.896 164.225C141.664 164.587 142.273 165.121 142.722 165.828C143.182 166.522 143.447 167.33 143.517 168.251ZM141.759 168.032C141.71 167.394 141.528 166.858 141.211 166.425C140.893 165.979 140.479 165.659 139.97 165.463C139.473 165.253 138.929 165.171 138.34 165.216C137.492 165.28 136.788 165.605 136.227 166.191C135.679 166.776 135.398 167.551 135.385 168.516L141.759 168.032ZM145.867 168.425C145.789 167.393 145.929 166.474 146.288 165.669C146.646 164.851 147.171 164.2 147.863 163.715C148.567 163.23 149.374 162.952 150.282 162.883C151.068 162.824 151.813 162.952 152.517 163.27C153.219 163.575 153.771 164.008 154.172 164.571L153.766 159.228L155.461 159.1L156.495 172.732L154.801 172.861L154.657 170.963C154.371 171.59 153.917 172.125 153.296 172.567C152.674 172.997 151.927 173.245 151.055 173.312C150.158 173.38 149.325 173.22 148.555 172.834C147.796 172.447 147.178 171.87 146.7 171.104C146.222 170.337 145.944 169.444 145.867 168.425ZM154.416 167.795C154.358 167.033 154.155 166.382 153.805 165.84C153.455 165.298 153.005 164.9 152.454 164.645C151.915 164.378 151.332 164.267 150.706 164.315C150.08 164.362 149.52 164.553 149.026 164.887C148.533 165.221 148.154 165.682 147.89 166.27C147.626 166.858 147.522 167.533 147.58 168.295C147.639 169.068 147.844 169.732 148.194 170.286C148.544 170.828 148.989 171.233 149.528 171.5C150.066 171.756 150.648 171.86 151.275 171.813C151.901 171.765 152.461 171.574 152.955 171.241C153.459 170.893 153.844 170.426 154.108 169.838C154.371 169.237 154.474 168.556 154.416 167.795ZM160.041 160.661C159.722 160.685 159.443 160.595 159.205 160.391C158.967 160.186 158.836 159.925 158.812 159.605C158.788 159.286 158.878 159.007 159.082 158.769C159.287 158.532 159.548 158.401 159.868 158.376C160.175 158.353 160.441 158.444 160.667 158.649C160.904 158.854 161.035 159.115 161.06 159.435C161.084 159.754 160.994 160.033 160.789 160.27C160.597 160.507 160.348 160.637 160.041 160.661ZM160.976 162.239L161.742 172.334L160.065 172.461L159.299 162.366L160.976 162.239ZM166.72 163.193L167.171 169.143C167.208 169.634 167.339 169.976 167.564 170.169C167.787 170.35 168.157 170.421 168.673 170.382L169.907 170.288L170.015 171.707L168.504 171.821C167.571 171.892 166.855 171.73 166.355 171.336C165.856 170.941 165.569 170.253 165.495 169.27L165.043 163.32L163.735 163.419L163.63 162.037L164.938 161.938L164.746 159.396L166.422 159.269L166.615 161.811L169.249 161.611L169.354 162.993L166.72 163.193ZM177.198 171.328C176.253 171.4 175.377 171.25 174.57 170.879C173.776 170.507 173.129 169.945 172.627 169.192C172.136 168.427 171.852 167.522 171.772 166.478C171.694 165.446 171.846 164.521 172.229 163.701C172.623 162.869 173.191 162.214 173.933 161.738C174.674 161.249 175.523 160.969 176.481 160.896C177.439 160.823 178.321 160.973 179.128 161.344C179.933 161.703 180.587 162.258 181.088 163.011C181.602 163.762 181.899 164.66 181.978 165.704C182.057 166.748 181.894 167.687 181.488 168.52C181.093 169.341 180.519 169.996 179.766 170.485C179.012 170.975 178.156 171.256 177.198 171.328ZM177.087 169.855C177.688 169.809 178.243 169.625 178.749 169.302C179.256 168.98 179.648 168.524 179.924 167.935C180.213 167.345 180.326 166.644 180.265 165.834C180.203 165.023 179.992 164.348 179.629 163.807C179.267 163.266 178.818 162.88 178.282 162.649C177.745 162.406 177.175 162.307 176.573 162.353C175.959 162.399 175.405 162.583 174.911 162.905C174.427 163.213 174.054 163.662 173.79 164.25C173.525 164.838 173.424 165.538 173.486 166.348C173.548 167.171 173.748 167.854 174.086 168.396C174.436 168.938 174.873 169.331 175.398 169.575C175.922 169.807 176.485 169.9 177.087 169.855ZM189.443 159.894C190.671 159.801 191.694 160.1 192.512 160.792C193.33 161.471 193.791 162.51 193.898 163.91L194.349 169.861L192.691 169.987L192.258 164.276C192.181 163.269 191.871 162.52 191.328 162.03C190.783 161.528 190.075 161.31 189.203 161.376C188.319 161.443 187.633 161.773 187.147 162.366C186.673 162.958 186.476 163.782 186.557 164.838L186.98 170.42L185.304 170.547L184.538 160.452L186.214 160.324L186.323 161.761C186.616 161.22 187.034 160.787 187.577 160.462C188.133 160.136 188.755 159.946 189.443 159.894Z" fill="white"/>
<path d="M95.267 35.2706H405.794C408.091 35.2706 409.953 37.1326 409.953 39.4294V126.765C409.953 129.062 408.091 130.924 405.794 130.924H95.267V35.2706Z" fill="#149FC4"/>
<path d="M161.358 94.0107C160.665 94.0107 160.11 93.8143 159.694 93.4215C159.302 93.0056 159.105 92.4627 159.105 91.7926V73.0779H152.798C151.411 73.0779 150.718 72.4656 150.718 71.241C150.718 70.0165 151.411 69.4042 152.798 69.4042H169.884C171.27 69.4042 171.963 70.0165 171.963 71.241C171.963 72.4656 171.27 73.0779 169.884 73.0779H163.576V91.7926C163.576 92.4627 163.368 93.0056 162.952 93.4215C162.559 93.8143 162.028 94.0107 161.358 94.0107ZM195.127 91.1688C195.265 91.4692 195.334 91.7695 195.334 92.0699C195.334 92.6013 195.115 93.0518 194.676 93.4215C194.26 93.7912 193.775 93.976 193.22 93.976C192.851 93.976 192.504 93.8836 192.181 93.6988C191.857 93.4908 191.603 93.1789 191.418 92.763L189.339 88.119H177.14L175.06 92.763C174.875 93.1789 174.621 93.4908 174.298 93.6988C173.974 93.8836 173.616 93.976 173.223 93.976C172.692 93.976 172.207 93.7912 171.768 93.4215C171.329 93.0518 171.109 92.6013 171.109 92.0699C171.109 91.7695 171.179 91.4692 171.317 91.1688L180.883 70.6172C181.09 70.1551 181.402 69.8085 181.818 69.5775C182.257 69.3234 182.719 69.1963 183.205 69.1963C183.69 69.1963 184.14 69.3234 184.556 69.5775C184.995 69.8085 185.319 70.1551 185.527 70.6172L195.127 91.1688ZM178.664 84.6533H187.814L183.239 74.3602L178.664 84.6533ZM202.203 93.8374C201.533 93.8374 201.013 93.6526 200.644 93.2829C200.274 92.9132 200.089 92.4049 200.089 91.758V71.449C200.089 70.7789 200.285 70.2475 200.678 69.8548C201.094 69.4389 201.637 69.2309 202.307 69.2309C203 69.2309 203.543 69.4389 203.936 69.8548C204.352 70.2475 204.56 70.7789 204.56 71.449V90.1638H214.298C215.685 90.1638 216.378 90.776 216.378 92.0006C216.378 93.2251 215.685 93.8374 214.298 93.8374H202.203ZM239.656 90.4757C240.119 90.9147 240.35 91.4114 240.35 91.9659C240.35 92.4973 240.142 92.971 239.726 93.3869C239.333 93.7796 238.859 93.976 238.305 93.976C237.727 93.976 237.196 93.7334 236.711 93.2482L225.17 82.4352V91.7926C225.17 92.4627 224.962 93.0056 224.546 93.4215C224.153 93.8374 223.61 94.0453 222.917 94.0453C222.247 94.0453 221.704 93.8374 221.288 93.4215C220.895 93.0056 220.699 92.4627 220.699 91.7926V71.449C220.699 70.7789 220.895 70.2475 221.288 69.8548C221.704 69.4389 222.247 69.2309 222.917 69.2309C223.61 69.2309 224.153 69.4389 224.546 69.8548C224.962 70.2475 225.17 70.7789 225.17 71.449V80.3558L236.329 69.8894C236.745 69.4735 237.219 69.2656 237.75 69.2656C238.282 69.2656 238.744 69.4735 239.137 69.8894C239.552 70.2822 239.76 70.7443 239.76 71.2757C239.76 71.8071 239.529 72.2923 239.067 72.7313L229.745 81.2569L239.656 90.4757ZM277.905 91.1688C278.044 91.4692 278.113 91.7695 278.113 92.0699C278.113 92.6013 277.894 93.0518 277.455 93.4215C277.039 93.7912 276.554 93.976 275.999 93.976C275.63 93.976 275.283 93.8836 274.959 93.6988C274.636 93.4908 274.382 93.1789 274.197 92.763L272.118 88.119H259.918L257.839 92.763C257.654 93.1789 257.4 93.4908 257.076 93.6988C256.753 93.8836 256.395 93.976 256.002 93.976C255.471 93.976 254.985 93.7912 254.547 93.4215C254.108 93.0518 253.888 92.6013 253.888 92.0699C253.888 91.7695 253.957 91.4692 254.096 91.1688L263.661 70.6172C263.869 70.1551 264.181 69.8085 264.597 69.5775C265.036 69.3234 265.498 69.1963 265.983 69.1963C266.469 69.1963 266.919 69.3234 267.335 69.5775C267.774 69.8085 268.097 70.1551 268.305 70.6172L277.905 91.1688ZM261.443 84.6533H270.593L266.018 74.3602L261.443 84.6533ZM308.704 81.2223C310.113 81.615 311.199 82.3313 311.962 83.371C312.747 84.4107 313.14 85.6815 313.14 87.1833C313.14 89.2627 312.389 90.8916 310.887 92.0699C309.409 93.2482 307.364 93.8374 304.753 93.8374H295.812C295.142 93.8374 294.61 93.6526 294.217 93.2829C293.848 92.9132 293.663 92.3934 293.663 91.7233V71.5183C293.663 70.8483 293.848 70.3284 294.217 69.9587C294.61 69.5891 295.142 69.4042 295.812 69.4042H304.407C306.948 69.4042 308.935 69.9703 310.368 71.1024C311.823 72.2114 312.551 73.771 312.551 75.7811C312.551 77.075 312.204 78.1955 311.511 79.1428C310.841 80.0901 309.905 80.7833 308.704 81.2223ZM298.03 79.6973H303.679C306.752 79.6973 308.288 78.5537 308.288 76.2663C308.288 75.1111 307.907 74.2562 307.144 73.7017C306.382 73.1472 305.227 72.8699 303.679 72.8699H298.03V79.6973ZM304.268 90.3717C305.885 90.3717 307.064 90.0829 307.803 89.5053C308.542 88.9277 308.912 88.0266 308.912 86.802C308.912 85.5775 308.531 84.6648 307.768 84.0641C307.029 83.4634 305.862 83.163 304.268 83.163H298.03V90.3717H304.268ZM320.925 94.0453C320.255 94.0453 319.712 93.8374 319.296 93.4215C318.903 93.0056 318.707 92.4627 318.707 91.7926V71.449C318.707 70.7789 318.903 70.2475 319.296 69.8548C319.712 69.4389 320.255 69.2309 320.925 69.2309C321.618 69.2309 322.161 69.4389 322.554 69.8548C322.969 70.2475 323.177 70.7789 323.177 71.449V91.7926C323.177 92.4627 322.969 93.0056 322.554 93.4215C322.161 93.8374 321.618 94.0453 320.925 94.0453ZM337.846 94.0107C337.153 94.0107 336.598 93.8143 336.182 93.4215C335.79 93.0056 335.593 92.4627 335.593 91.7926V73.0779H329.286C327.899 73.0779 327.206 72.4656 327.206 71.241C327.206 70.0165 327.899 69.4042 329.286 69.4042H346.372C347.758 69.4042 348.451 70.0165 348.451 71.241C348.451 72.4656 347.758 73.0779 346.372 73.0779H340.064V91.7926C340.064 92.4627 339.856 93.0056 339.44 93.4215C339.047 93.8143 338.516 94.0107 337.846 94.0107Z" fill="white"/>
<path d="M393.829 122.487L307.814 129.131C305.524 129.308 303.811 131.308 303.987 133.598L307.465 178.611C307.743 182.217 303.604 184.436 300.755 182.207L240.92 135.392C240.101 134.752 239.073 134.441 238.037 134.521L33.8368 150.295C31.5468 150.472 29.547 148.759 29.3701 146.469L20.7282 34.5953C20.5513 32.3053 22.2643 30.3054 24.5544 30.1285L384.547 2.32032C386.837 2.14342 388.837 3.85646 389.014 6.1465L397.655 118.02C397.832 120.31 396.119 122.31 393.829 122.487Z" stroke="white" stroke-width="4.15884"/>
<path d="M6.54508 37.3501H96.3067V82.8872V128.845H84.1768H74.2913C73.0858 128.845 71.9397 129.368 71.1497 130.278L29.7877 177.959C27.2656 180.867 22.4873 179.083 22.4873 175.234V133.003C22.4873 130.707 20.6253 128.845 18.3285 128.845H6.54508C4.24822 128.845 2.38625 126.983 2.38625 124.686V41.5089C2.38625 39.212 4.24822 37.3501 6.54508 37.3501Z" fill="white" stroke="#149FC4" stroke-width="4.15884"/>
<path d="M48.8211 108.13C47.8008 108.13 46.9579 107.819 46.2925 107.198C45.6715 106.533 45.3609 105.69 45.3609 104.67V66.6078H32.0527C29.9233 66.6078 28.8587 65.6541 28.8587 63.7465C28.8587 62.815 29.1248 62.1052 29.6572 61.6172C30.2339 61.1292 31.0324 60.8853 32.0527 60.8853H65.5895C66.6098 60.8853 67.3862 61.1292 67.9185 61.6172C68.4952 62.1052 68.7835 62.815 68.7835 63.7465C68.7835 65.6541 67.7189 66.6078 65.5895 66.6078H52.2813V104.67C52.2813 105.69 51.9707 106.533 51.3497 107.198C50.7286 107.819 49.8858 108.13 48.8211 108.13Z" fill="#149FC4"/>
</svg>
