<svg viewBox="0 0 40 46" fill="none" xmlns="http://www.w3.org/2000/svg">
<g clip-path="url(#clip0_1_3176)">
<path d="M20 18.0947C19.0581 18.095 18.1375 18.3746 17.3546 18.8982C16.5716 19.4217 15.9615 20.1656 15.6013 21.0359C15.2411 21.9061 15.147 22.8637 15.331 23.7874C15.515 24.7111 15.9687 25.5595 16.6348 26.2254C17.3009 26.8913 18.1495 27.3447 19.0733 27.5283C19.9971 27.7119 20.9546 27.6175 21.8247 27.257C22.6949 26.8965 23.4386 26.286 23.9618 25.5029C24.485 24.7197 24.7643 23.799 24.7643 22.8572C24.7633 21.5941 24.261 20.383 23.3677 19.49C22.4744 18.597 21.2631 18.0951 20 18.0947ZM31.1348 14.434C30.8924 13.8195 30.5263 13.2615 30.0592 12.7944C29.5921 12.3273 29.0341 11.9612 28.4196 11.7188C26.5446 10.9786 22.0804 11.1447 20 11.1447C17.9196 11.1447 13.4598 10.9724 11.5795 11.7188C10.965 11.9612 10.407 12.3273 9.93992 12.7944C9.47285 13.2615 9.10674 13.8195 8.86429 14.434C8.125 16.309 8.29018 20.7777 8.29018 22.8563C8.29018 24.9349 8.125 29.3982 8.86786 31.2795C9.11031 31.8939 9.47642 32.452 9.94349 32.919C10.4106 33.3861 10.9686 33.7522 11.583 33.9947C13.458 34.7349 17.9223 34.5688 20.0036 34.5688C22.0848 34.5688 26.5429 34.7411 28.4232 33.9947C29.0376 33.7522 29.5957 33.3861 30.0628 32.919C30.5298 32.452 30.8959 31.8939 31.1384 31.2795C31.8839 29.4045 31.7125 24.9357 31.7125 22.8572C31.7125 20.7786 31.8839 16.3161 31.1384 14.4349L31.1348 14.434ZM20 30.1786C18.552 30.1786 17.1364 29.7492 15.9324 28.9447C14.7284 28.1402 13.79 26.9968 13.2359 25.659C12.6817 24.3211 12.5368 22.8491 12.8193 21.4288C13.1018 20.0086 13.799 18.7041 14.823 17.6801C15.8469 16.6562 17.1514 15.9589 18.5717 15.6764C19.9919 15.3939 21.464 15.5389 22.8018 16.0931C24.1396 16.6472 25.2831 17.5856 26.0875 18.7896C26.892 19.9936 27.3214 21.4091 27.3214 22.8572C27.3226 23.819 27.134 24.7715 26.7665 25.6604C26.399 26.5492 25.8597 27.3567 25.1797 28.0368C24.4996 28.7169 23.692 29.2562 22.8032 29.6237C21.9144 29.9912 20.9618 30.1798 20 30.1786ZM27.6232 16.9375C27.2852 16.9377 26.9547 16.8376 26.6735 16.65C26.3924 16.4623 26.1732 16.1955 26.0437 15.8832C25.9143 15.571 25.8803 15.2273 25.9461 14.8958C26.012 14.5642 26.1746 14.2596 26.4136 14.0205C26.6526 13.7814 26.9571 13.6186 27.2886 13.5526C27.6201 13.4866 27.9638 13.5204 28.2761 13.6497C28.5884 13.779 28.8554 13.998 29.0432 14.2791C29.231 14.5601 29.3313 14.8906 29.3313 15.2286C29.3322 15.4531 29.2888 15.6755 29.2036 15.8832C29.1184 16.0909 28.993 16.2797 28.8346 16.4388C28.6763 16.5979 28.488 16.7242 28.2808 16.8104C28.0735 16.8966 27.8513 16.941 27.6268 16.9411L27.6232 16.9375ZM35.7143 2.85718H4.28571C3.14907 2.85718 2.05898 3.30871 1.25526 4.11243C0.451529 4.91616 0 6.00625 0 7.14289L0 38.5715C0 39.7081 0.451529 40.7982 1.25526 41.6019C2.05898 42.4056 3.14907 42.8572 4.28571 42.8572H35.7143C36.8509 42.8572 37.941 42.4056 38.7447 41.6019C39.5485 40.7982 40 39.7081 40 38.5715V7.14289C40 6.00625 39.5485 4.91616 38.7447 4.11243C37.941 3.30871 36.8509 2.85718 35.7143 2.85718ZM34.1857 28.75C34.0705 31.0384 33.5482 33.0661 31.8777 34.7322C30.2071 36.3982 28.1813 36.9313 25.8955 37.0402C23.5375 37.1732 16.4679 37.1732 14.1098 37.0402C11.8214 36.925 9.80089 36.4018 8.12768 34.7322C6.45446 33.0625 5.92857 31.034 5.81964 28.75C5.68661 26.3911 5.68661 19.3206 5.81964 16.9643C5.93482 14.6759 6.45089 12.6482 8.12768 10.9822C9.80446 9.31611 11.8304 8.78932 14.1098 8.68039C16.4679 8.54736 23.5375 8.54736 25.8955 8.68039C28.1839 8.79557 30.2107 9.31878 31.8777 10.9884C33.5446 12.6581 34.0768 14.6866 34.1857 16.975C34.3188 19.325 34.3188 26.3893 34.1857 28.75Z" />
</g>
<defs>
<clipPath id="clip0_1_3176">
<rect width="40" height="45.7143" />
</clipPath>
</defs>
</svg>
