<svg width="258" height="133" viewBox="0 0 258 133" fill="none" xmlns="http://www.w3.org/2000/svg">
<path d="M52.0517 112.416C52.9722 111.555 53.6913 110.852 54.2089 110.308C54.726 109.757 55.1528 109.193 55.4894 108.616C55.8332 108.031 55.9849 107.472 55.9445 106.94C55.9064 106.438 55.7531 106.054 55.4844 105.787C55.2229 105.512 54.822 105.395 54.2818 105.436C53.7569 105.476 53.3605 105.673 53.0924 106.027C52.8314 106.372 52.7101 106.82 52.7285 107.37L51.7097 107.447C51.675 106.581 51.8868 105.893 52.345 105.385C52.8033 104.876 53.4222 104.593 54.2017 104.534C54.9967 104.473 55.6424 104.646 56.1388 105.05C56.643 105.455 56.9244 106.043 56.9829 106.814C57.0315 107.455 56.886 108.095 56.5463 108.734C56.2138 109.365 55.822 109.93 55.3709 110.43C54.9192 110.922 54.3383 111.502 53.6281 112.169L57.6107 111.867L57.6774 112.747L52.1088 113.169L52.0517 112.416ZM59.0413 108.44C58.9406 107.112 59.0783 106.062 59.4543 105.288C59.8297 104.506 60.5577 104.075 61.6382 103.993C62.7111 103.911 63.492 104.229 63.981 104.945C64.4694 105.653 64.7639 106.671 64.8646 107.998C64.9671 109.349 64.8306 110.415 64.4552 111.196C64.0798 111.978 63.3556 112.409 62.2828 112.49C61.2023 112.572 60.4175 112.255 59.9285 111.54C59.4395 110.824 59.1438 109.79 59.0413 108.44ZM63.8227 108.077C63.7718 107.406 63.6824 106.842 63.5547 106.386C63.4341 105.921 63.224 105.557 62.9245 105.292C62.6327 105.027 62.2282 104.914 61.7111 104.954C61.1863 104.994 60.7958 105.167 60.5396 105.473C60.2911 105.779 60.1384 106.171 60.0815 106.649C60.0318 107.119 60.0323 107.689 60.0833 108.361C60.136 109.055 60.2226 109.635 60.3432 110.099C60.4716 110.563 60.6816 110.927 60.9734 111.192C61.2729 111.457 61.6851 111.569 62.2099 111.53C62.727 111.49 63.1098 111.318 63.3583 111.012C63.6145 110.705 63.7672 110.313 63.8164 109.836C63.8733 109.358 63.8754 108.772 63.8227 108.077ZM66.9066 111.29C67.8271 110.428 68.5462 109.725 69.0638 109.182C69.5809 108.63 70.0077 108.066 70.3444 107.489C70.6881 106.904 70.8398 106.345 70.7994 105.813C70.7613 105.311 70.608 104.927 70.3393 104.66C70.0778 104.385 69.6769 104.268 69.1367 104.309C68.6119 104.349 68.2154 104.546 67.9473 104.9C67.6863 105.246 67.565 105.693 67.5834 106.243L66.5646 106.32C66.5299 105.454 66.7417 104.766 67.2 104.258C67.6582 103.75 68.2771 103.466 69.0566 103.407C69.8516 103.346 70.4973 103.519 70.9937 103.924C71.4979 104.328 71.7793 104.916 71.8378 105.688C71.8864 106.328 71.7409 106.968 71.4012 107.607C71.0687 108.238 70.6769 108.803 70.2258 109.303C69.7741 109.795 69.1932 110.375 68.4831 111.042L72.4656 110.74L72.5323 111.62L66.9637 112.042L66.9066 111.29ZM74.0288 110.749C74.9493 109.888 75.6684 109.185 76.186 108.641C76.7031 108.09 77.1299 107.526 77.4666 106.949C77.8103 106.364 77.962 105.805 77.9216 105.273C77.8835 104.771 77.7302 104.387 77.4615 104.12C77.2 103.845 76.7991 103.728 76.2589 103.769C75.734 103.808 75.3376 104.005 75.0695 104.36C74.8085 104.705 74.6872 105.153 74.7056 105.703L73.6868 105.78C73.6521 104.913 73.8639 104.226 74.3221 103.718C74.7804 103.209 75.3993 102.926 76.1788 102.867C76.9738 102.806 77.6195 102.978 78.1159 103.383C78.6201 103.787 78.9015 104.376 78.96 105.147C79.0086 105.788 78.8631 106.428 78.5234 107.067C78.1909 107.697 77.7991 108.263 77.348 108.763C76.8963 109.255 76.3154 109.835 75.6052 110.502L79.5878 110.2L79.6545 111.08L74.0859 111.502L74.0288 110.749Z" fill="#14C491"/>
<path d="M90.5952 106.908C90.6104 107.109 90.615 107.322 90.6088 107.547L85.538 107.932C85.624 108.554 85.8734 109.028 86.2863 109.354C86.7062 109.671 87.1941 109.809 87.7498 109.767C88.2051 109.732 88.5754 109.599 88.8606 109.368C89.153 109.129 89.3474 108.827 89.444 108.462L90.5785 108.376C90.455 108.999 90.1531 109.522 89.673 109.947C89.1923 110.364 88.5738 110.601 87.8174 110.658C87.2154 110.704 86.6649 110.61 86.1659 110.376C85.6746 110.142 85.2751 109.788 84.9675 109.314C84.6593 108.833 84.4804 108.264 84.4306 107.608C84.3808 106.952 84.4684 106.367 84.6934 105.854C84.9183 105.34 85.2562 104.934 85.7071 104.636C86.1652 104.329 86.7029 104.152 87.3203 104.106C87.9224 104.06 88.4649 104.151 88.9478 104.378C89.4308 104.605 89.8134 104.941 90.0955 105.386C90.3847 105.822 90.5513 106.329 90.5952 106.908ZM89.4903 106.77C89.4598 106.369 89.345 106.032 89.1458 105.76C88.9461 105.48 88.6863 105.279 88.3664 105.156C88.0537 105.024 87.7121 104.972 87.3417 105.001C86.8091 105.041 86.3666 105.245 86.0142 105.614C85.6695 105.981 85.493 106.468 85.4846 107.074L89.4903 106.77ZM92.072 107.017C92.0228 106.369 92.111 105.792 92.3365 105.285C92.5615 104.772 92.8914 104.362 93.3262 104.058C93.7688 103.752 94.2757 103.578 94.8468 103.535C95.3408 103.497 95.8088 103.578 96.2509 103.777C96.6923 103.969 97.039 104.242 97.291 104.595L97.0363 101.238L98.1014 101.157L98.7512 109.724L97.6861 109.805L97.5957 108.612C97.416 109.006 97.131 109.342 96.7407 109.62C96.3497 109.891 95.8803 110.047 95.3323 110.088C94.7689 110.131 94.2451 110.031 93.7609 109.788C93.2845 109.545 92.896 109.182 92.5956 108.701C92.2951 108.219 92.1206 107.658 92.072 107.017ZM97.4446 106.621C97.4083 106.143 97.2803 105.733 97.0604 105.393C96.8405 105.052 96.5576 104.802 96.2117 104.642C95.8729 104.474 95.5066 104.404 95.113 104.434C94.7194 104.464 94.3675 104.584 94.0574 104.794C93.7473 105.004 93.5093 105.293 93.3432 105.663C93.1772 106.033 93.1124 106.457 93.1487 106.935C93.1855 107.422 93.3142 107.839 93.5347 108.187C93.7546 108.527 94.0339 108.782 94.3727 108.95C94.7109 109.111 95.0768 109.176 95.4704 109.146C95.8641 109.116 96.2159 108.997 96.526 108.787C96.8433 108.569 97.0849 108.275 97.2509 107.905C97.4164 107.528 97.4809 107.1 97.4446 106.621ZM100.979 102.138C100.779 102.153 100.604 102.097 100.454 101.968C100.305 101.84 100.222 101.675 100.207 101.475C100.192 101.274 100.249 101.099 100.377 100.949C100.505 100.8 100.67 100.718 100.87 100.702C101.063 100.688 101.231 100.745 101.373 100.874C101.522 101.002 101.604 101.167 101.62 101.368C101.635 101.568 101.578 101.743 101.45 101.893C101.329 102.042 101.172 102.123 100.979 102.138ZM101.567 103.13L102.048 109.474L100.995 109.554L100.513 103.21L101.567 103.13ZM105.176 103.729L105.46 107.469C105.484 107.777 105.566 107.992 105.707 108.114C105.848 108.227 106.08 108.272 106.404 108.247L107.18 108.188L107.247 109.08L106.298 109.152C105.712 109.196 105.261 109.094 104.948 108.847C104.634 108.599 104.453 108.166 104.407 107.549L104.123 103.809L103.301 103.871L103.235 103.003L104.057 102.941L103.936 101.343L104.989 101.263L105.111 102.861L106.766 102.735L106.832 103.604L105.176 103.729ZM111.762 108.842C111.168 108.887 110.617 108.793 110.11 108.56C109.611 108.326 109.204 107.973 108.889 107.5C108.581 107.018 108.402 106.45 108.352 105.794C108.303 105.145 108.398 104.564 108.639 104.049C108.886 103.525 109.243 103.114 109.709 102.815C110.175 102.508 110.709 102.331 111.311 102.286C111.913 102.24 112.467 102.334 112.974 102.567C113.48 102.793 113.891 103.142 114.206 103.615C114.529 104.087 114.716 104.651 114.766 105.307C114.815 105.963 114.713 106.553 114.457 107.077C114.209 107.593 113.848 108.004 113.375 108.312C112.902 108.62 112.364 108.796 111.762 108.842ZM111.692 107.916C112.07 107.887 112.418 107.771 112.736 107.569C113.055 107.366 113.301 107.08 113.475 106.709C113.656 106.338 113.728 105.898 113.689 105.389C113.65 104.88 113.517 104.455 113.29 104.115C113.062 103.775 112.78 103.533 112.443 103.388C112.105 103.235 111.747 103.173 111.369 103.201C110.983 103.231 110.635 103.346 110.324 103.548C110.02 103.742 109.786 104.024 109.62 104.394C109.454 104.763 109.39 105.203 109.429 105.712C109.468 106.229 109.593 106.658 109.806 106.999C110.025 107.34 110.3 107.587 110.63 107.74C110.96 107.886 111.313 107.944 111.692 107.916ZM119.456 101.656C120.228 101.598 120.871 101.786 121.385 102.22C121.899 102.647 122.189 103.3 122.256 104.18L122.54 107.92L121.498 107.999L121.226 104.41C121.178 103.777 120.983 103.306 120.641 102.999C120.299 102.683 119.854 102.546 119.306 102.588C118.75 102.63 118.32 102.837 118.014 103.21C117.716 103.581 117.592 104.099 117.643 104.763L117.909 108.271L116.855 108.351L116.374 102.007L117.428 101.927L117.496 102.83C117.68 102.49 117.943 102.217 118.284 102.013C118.633 101.808 119.024 101.689 119.456 101.656Z" fill="white"/>
<path d="M60.2407 22.9084H255.386C256.83 22.9084 258 24.0785 258 25.5219V80.4067C258 81.8501 256.83 83.0202 255.386 83.0202H60.2407V22.9084Z" fill="#149FC4"/>
<path d="M101.774 59.8275C101.339 59.8275 100.99 59.704 100.729 59.4572C100.482 59.1959 100.359 58.8546 100.359 58.4336V46.6726H96.3949C95.5237 46.6726 95.0881 46.2878 95.0881 45.5182C95.0881 44.7487 95.5237 44.3639 96.3949 44.3639H107.132C108.003 44.3639 108.439 44.7487 108.439 45.5182C108.439 46.2878 108.003 46.6726 107.132 46.6726H103.168V58.4336C103.168 58.8546 103.038 59.1959 102.776 59.4572C102.53 59.704 102.196 59.8275 101.774 59.8275ZM122.996 58.0415C123.083 58.2303 123.127 58.419 123.127 58.6078C123.127 58.9418 122.989 59.2249 122.713 59.4572C122.451 59.6895 122.146 59.8057 121.798 59.8057C121.566 59.8057 121.348 59.7476 121.145 59.6314C120.941 59.5008 120.782 59.3048 120.665 59.0434L119.359 56.1249H111.692L110.385 59.0434C110.269 59.3048 110.11 59.5008 109.906 59.6314C109.703 59.7476 109.478 59.8057 109.231 59.8057C108.897 59.8057 108.592 59.6895 108.316 59.4572C108.041 59.2249 107.903 58.9418 107.903 58.6078C107.903 58.419 107.946 58.2303 108.033 58.0415L114.044 45.1262C114.175 44.8358 114.371 44.618 114.632 44.4728C114.908 44.3131 115.199 44.2332 115.504 44.2332C115.809 44.2332 116.092 44.3131 116.353 44.4728C116.629 44.618 116.832 44.8358 116.963 45.1262L122.996 58.0415ZM112.651 53.947H118.4L115.525 47.4784L112.651 53.947ZM127.443 59.7186C127.022 59.7186 126.695 59.6024 126.463 59.3701C126.231 59.1378 126.114 58.8183 126.114 58.4118V45.6489C126.114 45.2278 126.238 44.8939 126.485 44.647C126.746 44.3857 127.087 44.255 127.508 44.255C127.944 44.255 128.285 44.3857 128.532 44.647C128.793 44.8939 128.924 45.2278 128.924 45.6489V57.4099H135.044C135.915 57.4099 136.351 57.7947 136.351 58.5642C136.351 59.3338 135.915 59.7186 135.044 59.7186H127.443ZM150.98 57.6059C151.27 57.8818 151.416 58.194 151.416 58.5425C151.416 58.8764 151.285 59.1741 151.024 59.4354C150.777 59.6823 150.479 59.8057 150.131 59.8057C149.768 59.8057 149.434 59.6532 149.129 59.3483L141.876 52.5531V58.4336C141.876 58.8546 141.745 59.1959 141.484 59.4572C141.237 59.7186 140.896 59.8492 140.46 59.8492C140.039 59.8492 139.698 59.7186 139.437 59.4572C139.19 59.1959 139.067 58.8546 139.067 58.4336V45.6489C139.067 45.2278 139.19 44.8939 139.437 44.647C139.698 44.3857 140.039 44.255 140.46 44.255C140.896 44.255 141.237 44.3857 141.484 44.647C141.745 44.8939 141.876 45.2278 141.876 45.6489V51.2463L148.889 44.6688C149.151 44.4075 149.448 44.2768 149.782 44.2768C150.116 44.2768 150.406 44.4075 150.653 44.6688C150.915 44.9157 151.045 45.2061 151.045 45.54C151.045 45.874 150.9 46.1789 150.61 46.4548L144.751 51.8126L150.98 57.6059ZM175.017 58.0415C175.104 58.2303 175.148 58.419 175.148 58.6078C175.148 58.9418 175.01 59.2249 174.734 59.4572C174.472 59.6895 174.168 59.8057 173.819 59.8057C173.587 59.8057 173.369 59.7476 173.166 59.6314C172.962 59.5008 172.803 59.3048 172.687 59.0434L171.38 56.1249H163.713L162.407 59.0434C162.29 59.3048 162.131 59.5008 161.927 59.6314C161.724 59.7476 161.499 59.8057 161.252 59.8057C160.918 59.8057 160.613 59.6895 160.337 59.4572C160.062 59.2249 159.924 58.9418 159.924 58.6078C159.924 58.419 159.967 58.2303 160.054 58.0415L166.065 45.1262C166.196 44.8358 166.392 44.618 166.654 44.4728C166.929 44.3131 167.22 44.2332 167.525 44.2332C167.83 44.2332 168.113 44.3131 168.374 44.4728C168.65 44.618 168.853 44.8358 168.984 45.1262L175.017 58.0415ZM164.672 53.947H170.421L167.547 47.4784L164.672 53.947ZM194.372 51.7908C195.258 52.0376 195.94 52.4877 196.419 53.1411C196.913 53.7945 197.16 54.5931 197.16 55.5369C197.16 56.8437 196.688 57.8673 195.744 58.6078C194.815 59.3483 193.53 59.7186 191.889 59.7186H186.27C185.849 59.7186 185.515 59.6024 185.268 59.3701C185.036 59.1378 184.92 58.8111 184.92 58.39V45.6925C184.92 45.2714 185.036 44.9447 185.268 44.7124C185.515 44.4801 185.849 44.3639 186.27 44.3639H191.671C193.268 44.3639 194.517 44.7196 195.417 45.4311C196.332 46.1281 196.789 47.1081 196.789 48.3714C196.789 49.1845 196.572 49.8887 196.136 50.484C195.715 51.0793 195.127 51.5149 194.372 51.7908ZM187.664 50.8325H191.214C193.145 50.8325 194.111 50.1137 194.111 48.6763C194.111 47.9503 193.871 47.4131 193.392 47.0646C192.913 46.7161 192.187 46.5419 191.214 46.5419H187.664V50.8325ZM191.584 57.5406C192.6 57.5406 193.341 57.3591 193.806 56.9961C194.27 56.6331 194.503 56.0668 194.503 55.2973C194.503 54.5277 194.263 53.9542 193.784 53.5767C193.319 53.1992 192.586 53.0104 191.584 53.0104H187.664V57.5406H191.584ZM202.052 59.8492C201.631 59.8492 201.289 59.7186 201.028 59.4572C200.781 59.1959 200.658 58.8546 200.658 58.4336V45.6489C200.658 45.2278 200.781 44.8939 201.028 44.647C201.289 44.3857 201.631 44.255 202.052 44.255C202.487 44.255 202.829 44.3857 203.075 44.647C203.337 44.8939 203.467 45.2278 203.467 45.6489V58.4336C203.467 58.8546 203.337 59.1959 203.075 59.4572C202.829 59.7186 202.487 59.8492 202.052 59.8492ZM212.686 59.8275C212.25 59.8275 211.902 59.704 211.64 59.4572C211.393 59.1959 211.27 58.8546 211.27 58.4336V46.6726H207.306C206.435 46.6726 205.999 46.2878 205.999 45.5182C205.999 44.7487 206.435 44.3639 207.306 44.3639H218.044C218.915 44.3639 219.35 44.7487 219.35 45.5182C219.35 46.2878 218.915 46.6726 218.044 46.6726H214.08V58.4336C214.08 58.8546 213.949 59.1959 213.688 59.4572C213.441 59.704 213.107 59.8275 212.686 59.8275Z" fill="white"/>
<path d="M247.867 77.7181L193.812 81.8936C192.373 82.0048 191.297 83.2616 191.408 84.7007L193.593 112.989C193.768 115.255 191.167 116.649 189.377 115.248L151.774 85.8283C151.26 85.4259 150.613 85.2306 149.962 85.2809L21.6358 95.1937C20.1966 95.3049 18.9398 94.2284 18.8287 92.7892L13.3978 22.484C13.2867 21.0449 14.3632 19.7881 15.8023 19.6769L242.034 2.20129C243.473 2.09012 244.73 3.16665 244.841 4.60579L250.272 74.911C250.383 76.3501 249.307 77.6069 247.867 77.7181Z" stroke="white" stroke-width="2.61356"/>
<path d="M4.48478 24.2152H60.8941V52.8323V81.7135H53.2712H47.0588C46.3013 81.7135 45.581 82.0422 45.0846 82.6145L19.0912 112.579C17.5063 114.406 14.5034 113.285 14.5034 110.866V84.3271C14.5034 82.8836 13.3333 81.7135 11.8899 81.7135H4.48477C3.04135 81.7135 1.87122 80.5434 1.87122 79.0999V26.8288C1.87122 25.3853 3.04135 24.2152 4.48478 24.2152Z" fill="white" stroke="#149FC4" stroke-width="2.61356"/>
<path d="M31.0524 68.5904C30.4112 68.5904 29.8815 68.3953 29.4634 68.005C29.0731 67.5868 28.8779 67.0571 28.8779 66.416V42.4967H20.5146C19.1764 42.4967 18.5073 41.8973 18.5073 40.6985C18.5073 40.1131 18.6746 39.667 19.0091 39.3604C19.3716 39.0537 19.8734 38.9004 20.5146 38.9004H41.5903C42.2315 38.9004 42.7193 39.0537 43.0539 39.3604C43.4163 39.667 43.5975 40.1131 43.5975 40.6985C43.5975 41.8973 42.9284 42.4967 41.5903 42.4967H33.2269V66.416C33.2269 67.0571 33.0318 67.5868 32.6415 68.005C32.2512 68.3953 31.7215 68.5904 31.0524 68.5904Z" fill="#149FC4"/>
</svg>
