<?xml version="1.0" encoding="UTF-8" standalone="no"?>
<!-- Generator: Adobe Illustrator 18.0.0, SVG Export Plug-In . SVG Version: 6.00 Build 0)  -->

<svg
   xmlns:dc="http://purl.org/dc/elements/1.1/"
   xmlns:cc="http://creativecommons.org/ns#"
   xmlns:rdf="http://www.w3.org/1999/02/22-rdf-syntax-ns#"
   xmlns:svg="http://www.w3.org/2000/svg"
   xmlns="http://www.w3.org/2000/svg"
   xmlns:sodipodi="http://sodipodi.sourceforge.net/DTD/sodipodi-0.dtd"
   xmlns:inkscape="http://www.inkscape.org/namespaces/inkscape"
   version="1.1"
   id="Layer_1"
   x="0px"
   y="0px"
   viewBox="0 0 731.53428 226.64901"
   enable-background="new 0 0 841.9 595.3"
   xml:space="preserve"
   inkscape:version="0.91 r13725"
   sodipodi:docname="menu.svg"
   width="731.5343"
   height="226.649"><metadata
     id="metadata205"><rdf:RDF><cc:Work
         rdf:about=""><dc:format>image/svg+xml</dc:format><dc:type
           rdf:resource="http://purl.org/dc/dcmitype/StillImage" /><dc:title></dc:title></cc:Work></rdf:RDF></metadata><defs
     id="defs203" /><sodipodi:namedview
     pagecolor="#888888"
     bordercolor="#666666"
     borderopacity="1"
     objecttolerance="10"
     gridtolerance="10"
     guidetolerance="10"
     inkscape:pageopacity="1"
     inkscape:pageshadow="2"
     inkscape:window-width="1536"
     inkscape:window-height="811"
     id="namedview201"
     showgrid="false"
     inkscape:zoom="0.96755789"
     inkscape:cx="658.50817"
     inkscape:cy="13.941419"
     inkscape:window-x="-8"
     inkscape:window-y="-8"
     inkscape:window-maximized="1"
     inkscape:current-layer="g127"
     fit-margin-top="0"
     fit-margin-left="0"
     fit-margin-right="0"
     fit-margin-bottom="0" /><g
     id="g3"
     transform="translate(-52.980799,-183.85099)"><g
       id="g5"><path
         d="m 108.6,350.6 -24,-11.6 0,0 4.7,-26.3 c 1.4,7.1 3.8,13.9 7.1,20.3 3.2,6.4 7.3,12.3 12.2,17.6"
         id="path7"
         inkscape:connector-curvature="0"
         style="fill:#009ad7" /><polygon
         points="110.7,353.7 114,396.3 97.4,367 "
         id="polygon9"
         style="fill:#009ad7" /><path
         d="m 124.7,379.1 -11.7,-24 c 5.3,4.9 11.2,9 17.7,12.3 6.4,3.3 13.3,5.7 20.3,7 l -26.3,4.7 0,0 z"
         id="path11"
         inkscape:connector-curvature="0"
         style="fill:#009ad7" /><polygon
         points="112,355.3 123.8,379.7 115.1,396.7 "
         id="polygon13"
         style="fill:#009ad7" /><polygon
         points="151.5,375.4 116.1,397.2 124.8,380.2 "
         id="polygon15"
         style="fill:#009ad7" /><polygon
         points="117.2,397.9 153.5,375.5 150.6,393.9 150.6,394.1 "
         id="polygon17"
         style="fill:#009ad7" /><path
         d="m 182.4,409.4 c -5.3,0.8 -10.7,1.1 -16.1,1.1 -17.1,0 -34.2,-4 -49.6,-11.5 l 34.3,-4 31.4,14.4 z"
         id="path19"
         inkscape:connector-curvature="0"
         style="fill:#009ad7" /><polygon
         points="154.6,375.7 182.3,408.2 151.7,394.2 "
         id="polygon21"
         style="fill:#009ad7" /><polygon
         points="183.4,407.8 156.5,376.2 180.4,388.9 "
         id="polygon23"
         style="fill:#009ad7" /><path
         d="m 178.8,374.9 c 7.1,-1.1 14.1,-3.2 20.6,-6.3 l -18.5,19.3 -23.6,-12.6 c 7.1,0.9 14.3,0.7 21.5,-0.4"
         id="path25"
         inkscape:connector-curvature="0"
         style="fill:#009ad7" /><polygon
         points="200.3,369.3 184.5,407.7 181.5,388.8 "
         id="polygon27"
         style="fill:#009ad7" /><polygon
         points="185.8,407.6 202,368.1 210.5,384.9 210.5,384.9 185.8,407.6 "
         id="polygon29"
         style="fill:#009ad7" /><path
         d="m 186,408.8 25.4,-23.3 0,0 33.8,-6.9 c -16.3,15.9 -36.7,26.3 -59.2,30.2"
         id="path31"
         inkscape:connector-curvature="0"
         style="fill:#009ad7" /><polygon
         points="244.4,377.6 211.5,384.4 203,367.6 "
         id="polygon33"
         style="fill:#009ad7" /><polygon
         points="245.2,376.7 204.9,366.9 231.7,363.2 "
         id="polygon35"
         style="fill:#009ad7" /><path
         d="m 235,335.6 -3.6,26.5 -26.4,3.7 c 6.3,-3.5 12,-7.9 17.1,-13 5,-5.1 9.4,-10.9 12.9,-17.2"
         id="path37"
         inkscape:connector-curvature="0"
         style="fill:#009ad7" /><polygon
         points="236.1,335.6 246,375.9 232.5,362.4 "
         id="polygon39"
         style="fill:#009ad7" /><polygon
         points="253.6,342.2 247,375.1 236.8,333.6 "
         id="polygon41"
         style="fill:#009ad7" /><polygon
         points="276.8,316.4 254.1,341.2 237.3,332.7 "
         id="polygon43"
         style="fill:#009ad7" /><path
         d="M 254.7,342.1 278,316.7 c -3.9,22.1 -14.5,43 -30.2,59.3 l 6.9,-33.9 z"
         id="path45"
         inkscape:connector-curvature="0"
         style="fill:#009ad7" /><polygon
         points="276.9,315.2 238.5,331 258,312.2 "
         id="polygon47"
         style="fill:#009ad7" /><path
         d="m 244.5,287.9 12.6,23.6 0,0 -19.2,18.5 c 3,-6.6 5.1,-13.5 6.2,-20.6 1.1,-7.1 1.2,-14.3 0.4,-21.5"
         id="path49"
         inkscape:connector-curvature="0"
         style="fill:#009ad7" /><polygon
         points="245.4,287.2 277.1,314.1 258.2,311.1 258.2,311.1 "
         id="polygon51"
         style="fill:#009ad7" /><polygon
         points="277.4,312.9 244.8,285.3 263.4,282.3 "
         id="polygon53"
         style="fill:#009ad7" /><path
         d="m 278.7,313 -14.4,-31.4 3.9,-34.3 c 4.9,10.1 8.4,20.9 10.1,32.1 1.8,11.2 1.9,22.4 0.4,33.6"
         id="path55"
         inkscape:connector-curvature="0"
         style="fill:#009ad7" /><polygon
         points="267,247.8 263.2,281.2 244.9,284.1 244.6,284.2 244.8,283.8 253.7,269.5 "
         id="polygon57"
         style="fill:#009ad7" /><polygon
         points="249.3,255.5 266.4,246.8 266.1,247.2 244.6,282.1 "
         id="polygon59"
         style="fill:#009ad7" /><path
         d="m 224.1,243.8 24.1,11.6 -4.7,26.4 c -1.4,-7.1 -3.8,-13.9 -7.1,-20.3 -3.2,-6.5 -7.4,-12.4 -12.3,-17.7"
         id="path61"
         inkscape:connector-curvature="0"
         style="fill:#009ad7" /><polygon
         points="265.9,245.8 248.8,254.5 224.4,242.7 "
         id="polygon63"
         style="fill:#009ad7" /><polygon
         points="265.4,244.6 222.8,241.5 236.1,228.1 "
         id="polygon65"
         style="fill:#009ad7" /><path
         d="m 219.4,197 c 19.9,10.6 36.5,27.1 47.1,47 l -30.1,-17 -17,-30 z"
         id="path67"
         inkscape:connector-curvature="0"
         style="fill:#009ad7" /><polygon
         points="235.3,227.4 235.3,227.4 222,240.7 218.8,198.1 "
         id="polygon69"
         style="fill:#009ad7" /><polygon
         points="220.8,239.1 208.9,214.7 217.6,197.7 "
         id="polygon71"
         style="fill:#009ad7" /><path
         d="m 219.7,239.4 c -5.3,-4.9 -11.2,-9 -17.7,-12.3 -6.5,-3.3 -13.3,-5.7 -20.3,-7.1 l 26.3,-4.7 11.7,24.1 z"
         id="path73"
         inkscape:connector-curvature="0"
         style="fill:#009ad7" /><polygon
         points="216.6,197.2 208,214.2 181.3,219 "
         id="polygon75"
         style="fill:#009ad7" /><polygon
         points="215.6,196.5 179.3,218.9 182.2,200.3 "
         id="polygon77"
         style="fill:#009ad7" /><path
         d="m 150.4,185 c 22.6,-3.2 45.2,0.3 65.7,10.3 l -34.3,4 -31.4,-14.3 z"
         id="path79"
         inkscape:connector-curvature="0"
         style="fill:#009ad7" /><polygon
         points="181.1,200.2 178.2,218.8 150.5,186.2 "
         id="polygon81"
         style="fill:#009ad7" /><polygon
         points="176.2,218.2 152.3,205.5 149.3,186.6 "
         id="polygon83"
         style="fill:#009ad7" /><path
         d="m 151.9,206.5 23.6,12.6 c -7.1,-0.8 -14.4,-0.7 -21.5,0.5 -7.2,1.1 -14.1,3.2 -20.6,6.3 l 18.5,-19.4 z"
         id="path85"
         inkscape:connector-curvature="0"
         style="fill:#009ad7" /><polygon
         points="148.2,186.7 151.2,205.6 132.5,225.1 148,187.2 "
         id="polygon87"
         style="fill:#009ad7" /><polygon
         points="130.8,226.3 122.2,209.5 122.2,209.5 147,186.8 130.8,226.3 "
         id="polygon89"
         style="fill:#009ad7" /><path
         d="m 146.7,185.6 -25.4,23.3 0,0 -33.8,6.9 c 16.3,-15.9 36.7,-26.3 59.2,-30.2"
         id="path91"
         inkscape:connector-curvature="0"
         style="fill:#009ad7" /><polygon
         points="129.8,226.8 88.3,216.8 121.3,210 "
         id="polygon93"
         style="fill:#009ad7" /><polygon
         points="127.9,227.5 101.1,231.2 87.6,217.7 "
         id="polygon95"
         style="fill:#009ad7" /><path
         d="m 127.9,228.6 c -6.3,3.5 -12,7.9 -17.1,13 -5.1,5.1 -9.5,10.9 -13,17.2 l 3.6,-26.5 26.5,-3.7 z"
         id="path97"
         inkscape:connector-curvature="0"
         style="fill:#009ad7" /><polygon
         points="100.3,232 96.6,258.8 86.8,218.5 "
         id="polygon99"
         style="fill:#009ad7" /><polygon
         points="85.8,219.3 95.9,260.8 79.2,252.2 "
         id="polygon101"
         style="fill:#009ad7" /><path
         d="M 84.8,218.4 78,252.3 54.7,277.7 c 3.9,-22.1 14.5,-43 30.1,-59.3"
         id="path103"
         inkscape:connector-curvature="0"
         style="fill:#009ad7" /><polygon
         points="78.7,253.2 95.4,261.8 55.9,278 "
         id="polygon105"
         style="fill:#009ad7" /><polygon
         points="94.3,263.5 74.8,282.2 55.9,279.2 "
         id="polygon107"
         style="fill:#009ad7" /><path
         d="m 94.9,264.4 c -3,6.6 -5.1,13.5 -6.2,20.6 -1.1,7.1 -1.2,14.4 -0.4,21.5 L 75.6,282.9 94.9,264.4 Z"
         id="path109"
         inkscape:connector-curvature="0"
         style="fill:#009ad7" /><polygon
         points="74.6,283.3 87.4,307.2 55.7,280.3 "
         id="polygon111"
         style="fill:#009ad7" /><polygon
         points="88,309.1 69.4,312.1 55.4,281.5 "
         id="polygon113"
         style="fill:#009ad7" /><path
         d="m 54.1,281.4 14.4,31.4 -3.9,34.3 C 59.7,337 56.3,326.2 54.5,315 c -1.9,-11.2 -2,-22.5 -0.4,-33.6"
         id="path115"
         inkscape:connector-curvature="0"
         style="fill:#009ad7" /><polygon
         points="88.2,310.2 88.2,310.2 65.7,346.6 69.6,313.2 "
         id="polygon117"
         style="fill:#009ad7" /><polygon
         points="110,352.9 96.7,366.2 67.4,349.7 "
         id="polygon119"
         style="fill:#009ad7" /><polygon
         points="108.3,351.7 66.9,348.6 83.9,339.9 "
         id="polygon121"
         style="fill:#009ad7" /><polygon
         points="88.2,312.3 83.4,338.9 66.4,347.6 "
         id="polygon123"
         style="fill:#009ad7" /><path
         d="m 113.3,397.4 c -5.8,-3.1 -11,-6.3 -15.3,-9.6 -0.2,-0.1 -0.4,-0.2 -0.6,-0.1 L 57.3,406.3 76,366 c 0.1,-0.2 0.1,-0.4 -0.1,-0.6 -4.1,-5.5 -7.1,-10.2 -9.7,-15 l 30.1,16.9 17,30.1 z"
         id="path125"
         inkscape:connector-curvature="0"
         style="fill:#009ad7" /></g><g
       id="g127"
       transform="translate(-4.384896,0.73081599)"><g
         id="g129"
         transform="translate(0,42)"><g
           id="g131"><path
             d="m 349.6,322.5 0,0.3 c 0,3.7 -1.3,6.9 -3.9,9.5 -2.6,2.6 -5.8,3.9 -9.5,3.9 l -0.5,0 c -3.7,0 -6.8,-1.3 -9.4,-3.9 -2.6,-2.6 -3.9,-5.8 -3.9,-9.5 l 0,-28.2 c 0,-3.7 1.3,-6.9 3.9,-9.5 2.6,-2.6 5.8,-3.9 9.4,-3.9 l 0.5,0 c 3.7,0 6.9,1.3 9.5,3.9 2.6,2.6 3.9,5.8 3.9,9.5 l -4,0 c 0,-2.7 -1,-5 -2.9,-6.9 -1.9,-1.9 -4.1,-2.8 -6.8,-2.8 -2.8,0 -5.1,0.9 -6.9,2.8 -1.9,1.9 -2.8,4.2 -2.8,6.9 l 0,28.3 c 0,2.7 0.9,5 2.8,6.9 1.9,1.9 4.2,2.8 6.9,2.8 2.7,0 5,-0.9 6.8,-2.8 1.9,-1.9 2.8,-4.1 2.8,-6.8 l 0,-0.4 4.1,0 z"
             id="path133"
             inkscape:connector-curvature="0"
             style="fill:#009ad7" /><path
             d="m 400,294.5 0,28.3 c 0,3.7 -1.3,6.9 -3.9,9.5 -2.6,2.6 -5.8,3.9 -9.5,3.9 l -1.5,0 c -3.7,0 -6.9,-1.3 -9.5,-3.9 -2.6,-2.6 -3.9,-5.8 -3.9,-9.5 l 0,-28.2 c 0,-3.7 1.3,-6.9 3.9,-9.5 2.6,-2.6 5.8,-3.9 9.5,-3.9 l 1.5,0 c 3.7,0 6.9,1.3 9.5,3.9 2.6,2.5 3.9,5.7 3.9,9.4 z m -4,28.3 0,-28.4 c 0,-2.7 -0.9,-5 -2.8,-6.9 -1.9,-1.9 -4.1,-2.8 -6.8,-2.8 l -1,0 c -2.7,0 -5,0.9 -6.8,2.8 -1.9,1.9 -2.8,4.2 -2.8,6.9 l 0,28.3 c 0,2.7 0.9,5 2.8,6.9 1.9,1.9 4.1,2.8 6.8,2.8 l 1,0 c 2.7,0 5,-0.9 6.8,-2.8 1.9,-1.8 2.8,-4 2.8,-6.8 z"
             id="path135"
             inkscape:connector-curvature="0"
             style="fill:#009ad7" /><path
             d="m 447.2,281.9 4,0 0,53.5 -5.1,0 -17.3,-42.7 -1.1,-3.7 -0.3,0.1 0.3,3.9 0,42.5 -4,0 0,-53.5 4.9,0 17.4,43 1.2,3.4 0.3,-0.1 -0.3,-3.4 0,-43 z"
             id="path137"
             inkscape:connector-curvature="0"
             style="fill:#009ad7" /><path
             d="m 475.6,281.9 24,0 0,3.7 -20,0 0,19.7 18.2,0 0,3.7 -18.2,0 0,26.5 -4,0 0,-53.6 z"
             id="path139"
             inkscape:connector-curvature="0"
             style="fill:#009ad7" /><path
             d="m 520.6,281.9 24,0 0,3.7 -20,0 0,19.7 18.2,0 0,3.7 -18.2,0 0,22.8 20.7,0 0,3.7 -24.7,0 0,-53.6 z"
             id="path141"
             inkscape:connector-curvature="0"
             style="fill:#009ad7" /><path
             d="m 589.2,335.4 -8.6,-20.4 -9.1,0 0,20.4 -4,0 0,-53.5 13.6,0 c 3.1,0 5.7,1.1 7.9,3.3 2.2,2.2 3.3,4.8 3.3,7.9 l 0,10.7 c 0,2.4 -0.7,4.5 -2.2,6.5 -1.5,2 -3.4,3.4 -5.6,4.1 l 8.7,20.9 -4,0 z m -0.9,-31.5 0,-10.9 c 0,-2 -0.7,-3.8 -2.2,-5.3 -1.5,-1.5 -3.2,-2.2 -5.2,-2.2 l -9.4,0 0,25.8 9.4,0 c 2,0 3.8,-0.7 5.2,-2.2 1.5,-1.4 2.2,-3.1 2.2,-5.2 z"
             id="path143"
             inkscape:connector-curvature="0"
             style="fill:#009ad7" /><path
             d="m 615.6,281.9 24,0 0,3.7 -20,0 0,19.7 18.2,0 0,3.7 -18.2,0 0,22.8 20.7,0 0,3.7 -24.7,0 0,-53.6 z"
             id="path145"
             inkscape:connector-curvature="0"
             style="fill:#009ad7" /><path
             d="m 686,281.9 4,0 0,53.5 -5,0 -17.3,-42.7 -1.1,-3.7 -0.3,0.1 0.3,3.9 0,42.5 -4,0 0,-53.5 4.9,0 17.4,43.1 1.2,3.4 0.3,-0.1 -0.3,-3.4 0,-43.1 z"
             id="path147"
             inkscape:connector-curvature="0"
             style="fill:#009ad7" /><path
             d="m 740.9,322.5 0,0.3 c 0,3.7 -1.3,6.9 -3.9,9.5 -2.6,2.6 -5.8,3.9 -9.5,3.9 l -0.5,0 c -3.7,0 -6.8,-1.3 -9.5,-3.9 -2.6,-2.6 -3.9,-5.8 -3.9,-9.5 l 0,-28.2 c 0,-3.7 1.3,-6.9 3.9,-9.5 2.6,-2.6 5.8,-3.9 9.5,-3.9 l 0.5,0 c 3.7,0 6.9,1.3 9.5,3.9 2.6,2.6 3.9,5.8 3.9,9.5 l -4,0 c 0,-2.7 -1,-5 -2.9,-6.9 -1.9,-1.9 -4.1,-2.8 -6.8,-2.8 -2.8,0 -5.1,0.9 -6.9,2.8 -1.9,1.9 -2.8,4.2 -2.8,6.9 l 0,28.3 c 0,2.7 0.9,5 2.8,6.9 1.9,1.9 4.2,2.8 6.9,2.8 2.7,0 5,-0.9 6.8,-2.8 1.9,-1.9 2.8,-4.1 2.8,-6.8 l 0,-0.4 4.1,0 z"
             id="path149"
             inkscape:connector-curvature="0"
             style="fill:#009ad7" /><path
             d="m 763.9,281.9 24,0 0,3.7 -20,0 0,19.7 18.2,0 0,3.7 -18.2,0 0,22.8 20.7,0 0,3.7 -24.7,0 0,-53.6 z"
             id="path151"
             inkscape:connector-curvature="0"
             style="fill:#009ad7" /></g><g
           id="g153"><polygon
             points="322.4,195.9 322.4,183.8 365,183.8 365,195.9 350.2,195.9 350.2,255.9 337.1,255.9 337.1,195.9 "
             id="polygon155"
             style="fill:#ffffff" /><path
             d="m 400.5,195.9 -2.3,0 -6.5,26.6 15.3,0 -6.5,-26.6 z m 9.1,-12.1 11.2,40.6 0,31.5 -12.8,0 0,-21.4 -17.5,0 0,21.4 -12.8,0 0,-31.5 11.2,-40.6 20.7,0 z"
             id="path157"
             inkscape:connector-curvature="0"
             style="fill:#ffffff" /><path
             d="m 515.5,218.2 22.2,37.7 -15.2,0 -22.2,-38.1 21.2,-34 15.1,0 -21.1,34.4 z m -14.8,37.7 -13.1,0 0,-72.1 13.1,0 0,72.1 z"
             id="path159"
             inkscape:connector-curvature="0"
             style="fill:#ffffff" /><polygon
             points="474.9,255.9 439.2,255.9 439.2,183.8 452.3,183.8 452.3,243.8 474.9,243.8 "
             id="polygon161"
             style="fill:#ffffff" /><path
             d="m 604.1,227.9 -28.7,-6.9 0,-2.3 c 0,0 28.7,-6.7 28.8,-6.8 l 10.2,-0.8 21.6,0 0,-12.9 -31.8,0 -40.9,11.3 0,20.8 40.9,11.3 31.8,0 0,-12.9 -21.6,0 c 0,0 -10.2,-0.8 -10.3,-0.8 z"
             id="path163"
             inkscape:connector-curvature="0"
             style="fill:#ffffff" /><path
             d="m 674.9,243.8 7.1,0 c 3.7,0 6.5,-2.8 6.5,-6 l 0,-7.6 c 0,-2.1 -2,-6.1 -6.5,-6.1 l -7.1,0 0,19.7 z m 0,-47.9 0,16.3 7.5,0 c 3.2,0 5.8,-2.3 5.8,-5.1 l 0,-6.2 c 0,-2.8 -2.6,-5 -5.8,-5 l -7.5,0 z m 26.1,4.8 0,6 c 0,4.2 -2.1,8.1 -4.6,11.2 3.1,3.2 5.3,7.3 5.3,12.3 l 0,7.7 c 0,10.8 -9.5,18 -19.8,18 l -20.3,0 0,-72.1 20.6,0 c 11,0 18.8,7.4 18.8,16.9"
             id="path165"
             inkscape:connector-curvature="0"
             style="fill:#ffffff" /><rect
             x="720.29999"
             y="183.8"
             width="13.2"
             height="72.099998"
             id="rect167"
             style="fill:#ffffff" /><polygon
             points="746.4,195.9 746.4,183.8 788.9,183.8 788.9,195.9 774.2,195.9 774.2,255.9 761,255.9 761,195.9 "
             id="polygon169"
             style="fill:#ffffff" /></g></g></g></g></svg>