<?xml version="1.0" encoding="utf-8"?>
<!-- Generator: Adobe Illustrator 18.0.0, SVG Export Plug-In . SVG Version: 6.00 Build 0)  -->
<!DOCTYPE svg PUBLIC "-//W3C//DTD SVG 1.1//EN" "http://www.w3.org/Graphics/SVG/1.1/DTD/svg11.dtd">
<svg version="1.1" id="Layer_1" xmlns="http://www.w3.org/2000/svg" xmlns:xlink="http://www.w3.org/1999/xlink" x="0px" y="0px"
	 viewBox="0 0 841.9 595.3" enable-background="new 0 0 841.9 595.3" xml:space="preserve">
<g>
	<g>
		<path fill="#009AD7" d="M108.6,350.6L84.6,339l0,0l4.7-26.3c1.4,7.1,3.8,13.9,7.1,20.3C99.6,339.4,103.7,345.3,108.6,350.6"/>
		<polygon fill="#009AD7" points="110.7,353.7 114,396.3 97.4,367 		"/>
		<path fill="#009AD7" d="M124.7,379.1l-11.7-24c5.3,4.9,11.2,9,17.7,12.3c6.4,3.3,13.3,5.7,20.3,7L124.7,379.1L124.7,379.1z"/>
		<polygon fill="#009AD7" points="112,355.3 123.8,379.7 115.1,396.7 		"/>
		<polygon fill="#009AD7" points="151.5,375.4 116.1,397.2 124.8,380.2 		"/>
		<polygon fill="#009AD7" points="153.5,375.5 150.6,393.9 150.6,394.1 117.2,397.9 		"/>
		<path fill="#009AD7" d="M182.4,409.4c-5.3,0.8-10.7,1.1-16.1,1.1c-17.1,0-34.2-4-49.6-11.5l34.3-4L182.4,409.4z"/>
		<polygon fill="#009AD7" points="154.6,375.7 182.3,408.2 151.7,394.2 		"/>
		<polygon fill="#009AD7" points="183.4,407.8 156.5,376.2 180.4,388.9 		"/>
		<path fill="#009AD7" d="M178.8,374.9c7.1-1.1,14.1-3.2,20.6-6.3l-18.5,19.3l-23.6-12.6C164.4,376.2,171.6,376,178.8,374.9"/>
		<polygon fill="#009AD7" points="200.3,369.3 184.5,407.7 181.5,388.8 		"/>
		<polygon fill="#009AD7" points="210.5,384.9 210.5,384.9 185.8,407.6 185.8,407.6 202,368.1 		"/>
		<path fill="#009AD7" d="M186,408.8l25.4-23.3h0l33.8-6.9C228.9,394.5,208.5,404.9,186,408.8"/>
		<polygon fill="#009AD7" points="244.4,377.6 211.5,384.4 203,367.6 		"/>
		<polygon fill="#009AD7" points="245.2,376.7 204.9,366.9 231.7,363.2 		"/>
		<path fill="#009AD7" d="M235,335.6l-3.6,26.5l-26.4,3.7c6.3-3.5,12-7.9,17.1-13C227.1,347.7,231.5,341.9,235,335.6"/>
		<polygon fill="#009AD7" points="236.1,335.6 246,375.9 232.5,362.4 		"/>
		<polygon fill="#009AD7" points="253.6,342.2 247,375.1 236.8,333.6 		"/>
		<polygon fill="#009AD7" points="276.8,316.4 254.1,341.2 237.3,332.7 		"/>
		<path fill="#009AD7" d="M254.7,342.1l23.3-25.4c-3.9,22.1-14.5,43-30.2,59.3L254.7,342.1z"/>
		<polygon fill="#009AD7" points="276.9,315.2 238.5,331 258,312.2 		"/>
		<path fill="#009AD7" d="M244.5,287.9l12.6,23.6l0,0L237.9,330c3-6.6,5.1-13.5,6.2-20.6C245.2,302.3,245.3,295.1,244.5,287.9"/>
		<polygon fill="#009AD7" points="277.1,314.1 258.2,311.1 258.2,311.1 245.4,287.2 		"/>
		<polygon fill="#009AD7" points="277.4,312.9 244.8,285.3 263.4,282.3 		"/>
		<path fill="#009AD7" d="M278.7,313l-14.4-31.4l3.9-34.3c4.9,10.1,8.4,20.9,10.1,32.1C280.1,290.6,280.2,301.8,278.7,313"/>
		<polygon fill="#009AD7" points="244.6,284.2 244.8,283.8 253.7,269.5 267,247.8 263.2,281.2 244.9,284.1 		"/>
		<polygon fill="#009AD7" points="266.4,246.8 266.1,247.2 244.6,282.1 249.3,255.5 		"/>
		<path fill="#009AD7" d="M224.1,243.8l24.1,11.6l-4.7,26.4c-1.4-7.1-3.8-13.9-7.1-20.3C233.2,255,229,249.1,224.1,243.8"/>
		<polygon fill="#009AD7" points="265.9,245.8 248.8,254.5 224.4,242.7 		"/>
		<polygon fill="#009AD7" points="265.4,244.6 222.8,241.5 236.1,228.1 		"/>
		<path fill="#009AD7" d="M219.4,197c19.9,10.6,36.5,27.1,47.1,47L236.4,227L219.4,197z"/>
		<polygon fill="#009AD7" points="235.3,227.4 222,240.7 218.8,198.1 235.3,227.4 		"/>
		<polygon fill="#009AD7" points="220.8,239.1 208.9,214.7 217.6,197.7 		"/>
		<path fill="#009AD7" d="M219.7,239.4c-5.3-4.9-11.2-9-17.7-12.3c-6.5-3.3-13.3-5.7-20.3-7.1l26.3-4.7L219.7,239.4z"/>
		<polygon fill="#009AD7" points="216.6,197.2 208,214.2 181.3,219 		"/>
		<polygon fill="#009AD7" points="215.6,196.5 179.3,218.9 182.2,200.3 		"/>
		<path fill="#009AD7" d="M150.4,185c22.6-3.2,45.2,0.3,65.7,10.3l-34.3,4L150.4,185z"/>
		<polygon fill="#009AD7" points="181.1,200.2 178.2,218.8 150.5,186.2 		"/>
		<polygon fill="#009AD7" points="176.2,218.2 152.3,205.5 149.3,186.6 		"/>
		<path fill="#009AD7" d="M151.9,206.5l23.6,12.6c-7.1-0.8-14.4-0.7-21.5,0.5c-7.2,1.1-14.1,3.2-20.6,6.3L151.9,206.5z"/>
		<polygon fill="#009AD7" points="151.2,205.6 132.5,225.1 148,187.2 148.2,186.7 		"/>
		<polygon fill="#009AD7" points="122.2,209.5 147,186.8 130.8,226.3 130.8,226.3 122.2,209.5 		"/>
		<path fill="#009AD7" d="M146.7,185.6l-25.4,23.3h0l-33.8,6.9C103.8,199.9,124.2,189.5,146.7,185.6"/>
		<polygon fill="#009AD7" points="129.8,226.8 88.3,216.8 121.3,210 		"/>
		<polygon fill="#009AD7" points="127.9,227.5 101.1,231.2 87.6,217.7 		"/>
		<path fill="#009AD7" d="M127.9,228.6c-6.3,3.5-12,7.9-17.1,13c-5.1,5.1-9.5,10.9-13,17.2l3.6-26.5L127.9,228.6z"/>
		<polygon fill="#009AD7" points="100.3,232 96.6,258.8 86.8,218.5 		"/>
		<polygon fill="#009AD7" points="85.8,219.3 95.9,260.8 79.2,252.2 		"/>
		<path fill="#009AD7" d="M84.8,218.4L78,252.3l-23.3,25.4C58.6,255.6,69.2,234.7,84.8,218.4"/>
		<polygon fill="#009AD7" points="78.7,253.2 95.4,261.8 55.9,278 		"/>
		<polygon fill="#009AD7" points="94.3,263.5 74.8,282.2 55.9,279.2 		"/>
		<path fill="#009AD7" d="M94.9,264.4c-3,6.6-5.1,13.5-6.2,20.6c-1.1,7.1-1.2,14.4-0.4,21.5l-12.7-23.6L94.9,264.4z"/>
		<polygon fill="#009AD7" points="74.6,283.3 87.4,307.2 55.7,280.3 		"/>
		<polygon fill="#009AD7" points="88,309.1 69.4,312.1 55.4,281.5 		"/>
		<path fill="#009AD7" d="M54.1,281.4l14.4,31.4l-3.9,34.3c-4.9-10.1-8.3-20.9-10.1-32.1C52.6,303.8,52.5,292.5,54.1,281.4"/>
		<polygon fill="#009AD7" points="88.2,310.2 65.7,346.6 69.6,313.2 88.2,310.2 		"/>
		<polygon fill="#009AD7" points="110,352.9 96.7,366.2 67.4,349.7 		"/>
		<polygon fill="#009AD7" points="108.3,351.7 66.9,348.6 83.9,339.9 		"/>
		<polygon fill="#009AD7" points="88.2,312.3 83.4,338.9 66.4,347.6 		"/>
		<path fill="#009AD7" d="M113.3,397.4c-5.8-3.1-11-6.3-15.3-9.6c-0.2-0.1-0.4-0.2-0.6-0.1l-40.1,18.6L76,366
			c0.1-0.2,0.1-0.4-0.1-0.6c-4.1-5.5-7.1-10.2-9.7-15l30.1,16.9L113.3,397.4z"/>
	</g>
	<g>
		<g>
			<g>
				<path fill="#009AD7" d="M349.6,322.5v0.3c0,3.7-1.3,6.9-3.9,9.5c-2.6,2.6-5.8,3.9-9.5,3.9h-0.5c-3.7,0-6.8-1.3-9.4-3.9
					c-2.6-2.6-3.9-5.8-3.9-9.5v-28.2c0-3.7,1.3-6.9,3.9-9.5c2.6-2.6,5.8-3.9,9.4-3.9h0.5c3.7,0,6.9,1.3,9.5,3.9
					c2.6,2.6,3.9,5.8,3.9,9.5h-4c0-2.7-1-5-2.9-6.9c-1.9-1.9-4.1-2.8-6.8-2.8c-2.8,0-5.1,0.9-6.9,2.8c-1.9,1.9-2.8,4.2-2.8,6.9v28.3
					c0,2.7,0.9,5,2.8,6.9c1.9,1.9,4.2,2.8,6.9,2.8c2.7,0,5-0.9,6.8-2.8c1.9-1.9,2.8-4.1,2.8-6.8v-0.4H349.6z"/>
				<path fill="#009AD7" d="M400,294.5v28.3c0,3.7-1.3,6.9-3.9,9.5c-2.6,2.6-5.8,3.9-9.5,3.9h-1.5c-3.7,0-6.9-1.3-9.5-3.9
					c-2.6-2.6-3.9-5.8-3.9-9.5v-28.2c0-3.7,1.3-6.9,3.9-9.5c2.6-2.6,5.8-3.9,9.5-3.9h1.5c3.7,0,6.9,1.3,9.5,3.9
					C398.7,287.6,400,290.8,400,294.5z M396,322.8v-28.4c0-2.7-0.9-5-2.8-6.9c-1.9-1.9-4.1-2.8-6.8-2.8h-1c-2.7,0-5,0.9-6.8,2.8
					c-1.9,1.9-2.8,4.2-2.8,6.9v28.3c0,2.7,0.9,5,2.8,6.9c1.9,1.9,4.1,2.8,6.8,2.8h1c2.7,0,5-0.9,6.8-2.8
					C395.1,327.8,396,325.6,396,322.8z"/>
				<path fill="#009AD7" d="M447.2,281.9h4v53.5h-5.1l-17.3-42.7l-1.1-3.7l-0.3,0.1l0.3,3.9v42.5h-4v-53.5h4.9L446,325l1.2,3.4
					l0.3-0.1l-0.3-3.4V281.9z"/>
				<path fill="#009AD7" d="M475.6,281.9h24v3.7h-20v19.7h18.2v3.7h-18.2v26.5h-4V281.9z"/>
				<path fill="#009AD7" d="M520.6,281.9h24v3.7h-20v19.7h18.2v3.7h-18.2v22.8h20.7v3.7h-24.7V281.9z"/>
				<path fill="#009AD7" d="M589.2,335.4l-8.6-20.4h-9.1v20.4h-4v-53.5h13.6c3.1,0,5.7,1.1,7.9,3.3c2.2,2.2,3.3,4.8,3.3,7.9v10.7
					c0,2.4-0.7,4.5-2.2,6.5c-1.5,2-3.4,3.4-5.6,4.1l8.7,20.9H589.2z M588.3,303.9V293c0-2-0.7-3.8-2.2-5.3c-1.5-1.5-3.2-2.2-5.2-2.2
					h-9.4v25.8h9.4c2,0,3.8-0.7,5.2-2.2C587.6,307.7,588.3,306,588.3,303.9z"/>
				<path fill="#009AD7" d="M615.6,281.9h24v3.7h-20v19.7h18.2v3.7h-18.2v22.8h20.7v3.7h-24.7V281.9z"/>
				<path fill="#009AD7" d="M686,281.9h4v53.5h-5l-17.3-42.7l-1.1-3.7l-0.3,0.1l0.3,3.9v42.5h-4v-53.5h4.9l17.4,43.1l1.2,3.4
					l0.3-0.1l-0.3-3.4V281.9z"/>
				<path fill="#009AD7" d="M740.9,322.5v0.3c0,3.7-1.3,6.9-3.9,9.5c-2.6,2.6-5.8,3.9-9.5,3.9H727c-3.7,0-6.8-1.3-9.5-3.9
					c-2.6-2.6-3.9-5.8-3.9-9.5v-28.2c0-3.7,1.3-6.9,3.9-9.5c2.6-2.6,5.8-3.9,9.5-3.9h0.5c3.7,0,6.9,1.3,9.5,3.9
					c2.6,2.6,3.9,5.8,3.9,9.5h-4c0-2.7-1-5-2.9-6.9c-1.9-1.9-4.1-2.8-6.8-2.8c-2.8,0-5.1,0.9-6.9,2.8c-1.9,1.9-2.8,4.2-2.8,6.9v28.3
					c0,2.7,0.9,5,2.8,6.9c1.9,1.9,4.2,2.8,6.9,2.8c2.7,0,5-0.9,6.8-2.8c1.9-1.9,2.8-4.1,2.8-6.8v-0.4H740.9z"/>
				<path fill="#009AD7" d="M763.9,281.9h24v3.7h-20v19.7h18.2v3.7h-18.2v22.8h20.7v3.7h-24.7V281.9z"/>
			</g>
			<g>
				<polygon fill="#FFFFFF" points="322.4,183.8 365,183.8 365,195.9 350.2,195.9 350.2,255.9 337.1,255.9 337.1,195.9 322.4,195.9 
									"/>
				<path fill="#FFFFFF" d="M400.5,195.9h-2.3l-6.5,26.6H407L400.5,195.9z M409.6,183.8l11.2,40.6v31.5h-12.8v-21.4h-17.5v21.4
					h-12.8v-31.5l11.2-40.6H409.6z"/>
				<path fill="#FFFFFF" d="M515.5,218.2l22.2,37.7h-15.2l-22.2-38.1l21.2-34h15.1L515.5,218.2z M500.7,255.9h-13.1v-72.1h13.1
					V255.9z"/>
				<polygon fill="#FFFFFF" points="452.3,183.8 452.3,243.8 474.9,243.8 474.9,255.9 439.2,255.9 439.2,183.8 				"/>
				<path fill="#FFFFFF" d="M604.1,227.9l-28.7-6.9v-2.3c0,0,28.7-6.7,28.8-6.8l10.2-0.8l21.6,0v-12.9h-31.8l-40.9,11.3v20.8
					l40.9,11.3H636v-12.9h-21.6C614.4,228.7,604.2,227.9,604.1,227.9z"/>
				<path fill="#FFFFFF" d="M674.9,243.8h7.1c3.7,0,6.5-2.8,6.5-6v-7.6c0-2.1-2-6.1-6.5-6.1h-7.1V243.8z M674.9,195.9v16.3h7.5
					c3.2,0,5.8-2.3,5.8-5.1v-6.2c0-2.8-2.6-5-5.8-5H674.9z M701,200.7v6c0,4.2-2.1,8.1-4.6,11.2c3.1,3.2,5.3,7.3,5.3,12.3v7.7
					c0,10.8-9.5,18-19.8,18h-20.3v-72.1h20.6C693.2,183.8,701,191.2,701,200.7"/>
				<rect x="720.3" y="183.8" fill="#FFFFFF" width="13.2" height="72.1"/>
				<polygon fill="#FFFFFF" points="746.4,183.8 788.9,183.8 788.9,195.9 774.2,195.9 774.2,255.9 761,255.9 761,195.9 746.4,195.9 
									"/>
			</g>
		</g>
		<g>
			<path fill="#FFFFFF" d="M324.9,361.6h22.9v5.2l-8.4,10.9c4.9,0.6,9.6,5.2,9.6,11v9.8c0,7.2-5.8,13-13.2,13h-0.5
				c-7.3,0-13.1-5.8-13.1-12.9v-1.4h5.9v1.5c0,4.1,3.3,7.3,7.5,7.3c4.2,0,7.5-3.2,7.5-7.4v-9.8c0-3-2.5-5.6-5.6-5.6h-5.3v-5.3
				l8-10.8h-15.4V361.6z"/>
			<path fill="#FFFFFF" d="M380.8,398.5c0,7.2-5.6,12.9-12.6,12.9h-0.5c-7,0-12.5-5.8-12.5-13v-24.7c0-7.2,5.5-12.9,12.5-12.9h0.5
				c7,0,12.6,5.8,12.6,12.9V398.5z M374.9,373.9c0-4.1-3.1-7.5-7-7.5c-3.9,0-7,3.3-7,7.5v24.7c0,4.1,3.1,7.4,7,7.4
				c3.9,0,7-3.2,7-7.3V373.9z"/>
			<path fill="#FFFFFF" d="M421.3,361.6v38.5c0,6.3-5.2,11.4-11.7,11.4c-6.5,0-11.7-5.1-11.7-11.4v-7.7h5.9v8.1c0,3,2.6,5.5,5.6,5.5
				c3.2,0,5.8-2.5,5.8-5.5v-38.9H421.3z"/>
			<path fill="#FFFFFF" d="M447.1,361.6l8.5,28.3v20.9h-6v-15.7h-15.2v15.7h-5.9v-21l8.5-28.2H447.1z M442.7,367.1h-1.3l-6.7,22.5
				h14.8L442.7,367.1z"/>
			<path fill="#FFFFFF" d="M490.2,361.6v49.2h-6.5l-15.2-37.6l0.5,3.9v33.7h-5.9v-49.2h6.5l15.2,37.5l-0.5-3.8v-33.7H490.2z"/>
			<path fill="#FFFFFF" d="M508.9,374.9c0-8.2,6.1-14.1,13.4-14.1c7.3,0,13.1,5.5,13.1,12.9c0,14.9-21.1,18.8-21.1,31.5h21.1v5.6
				h-27v-5.1c0-16.7,21.1-20.2,21.1-32.3c0-3.9-3.4-6.9-7.2-6.9c-4.3,0-7.4,3.8-7.4,8.5H508.9z"/>
			<path fill="#FFFFFF" d="M565.7,398.5c0,7.2-5.6,12.9-12.6,12.9h-0.5c-7,0-12.5-5.8-12.5-13v-24.7c0-7.2,5.5-12.9,12.5-12.9h0.5
				c7,0,12.6,5.8,12.6,12.9V398.5z M559.8,373.9c0-4.1-3.1-7.5-7-7.5c-3.9,0-7,3.3-7,7.5v24.7c0,4.1,3.1,7.4,7,7.4
				c3.9,0,7-3.2,7-7.3V373.9z"/>
			<path fill="#FFFFFF" d="M568.3,361.6h12.3v49.2h-5.9v-43.7h-6.4V361.6z"/>
			<path fill="#FFFFFF" d="M593.9,380.6c1.5-1.5,3.8-3,7.2-3h0.5c7.3,0,13.1,5.7,13.1,12.9v8c0,7.2-5.8,13-13.1,13h-0.5
				c-7.3,0-13.1-5.8-13.1-12.9v-24.7c0-7.2,5.6-13,12.9-13h0.4c7.4,0,13,5.8,13,13.1h-6c0-4.1-3-7.5-7.2-7.5c-4.1,0-7.2,3.3-7.2,7.5
				V380.6z M593.9,390.5v8.1c0,4.1,3.4,7.3,7.5,7.3c4.1,0,7.5-3.2,7.5-7.4v-8c0-4.1-3.3-7.4-7.5-7.4H601
				C597.6,383.1,593.9,386.4,593.9,390.5z"/>
			<path fill="#FFFFFF" d="M634.4,361.6h13.4c6.3,0,11.2,4.9,11.2,11v10.1c0,6.2-5,11-11.2,11h-7.5v17.1h-5.9V361.6z M653.1,372.6
				c0-3-2.5-5.3-5.6-5.3h-7.2v20.9h7.2c3.1,0,5.6-2.4,5.6-5.3V372.6z"/>
			<path fill="#FFFFFF" d="M692.4,398.5c0,7.2-6,12.9-13.4,12.9h-1.2c-7.5,0-13.4-5.8-13.4-13v-24.7c0-7.2,5.9-12.9,13.4-12.9h1.2
				c7.4,0,13.4,5.8,13.4,12.9V398.5z M686.4,373.9c0-4.1-3.2-7.3-7.5-7.3h-0.8c-4.3,0-7.6,3.2-7.6,7.3v24.7c0,4.1,3.3,7.4,7.6,7.4
				h0.8c4.3,0,7.5-3.2,7.5-7.3V373.9z"/>
			<path fill="#FFFFFF" d="M712.2,392.8h-6.3v17.9H700v-49.2h13.4c6.3,0,11.2,4.9,11.2,11v9.4c0,4.5-2.4,8.2-6.4,10l8,18.9h-6.4
				L712.2,392.8z M718.7,372.6c0-3-2.5-5.3-5.5-5.3h-7.3v20.1h7.3c3,0,5.5-2.4,5.5-5.3V372.6z"/>
			<path fill="#FFFFFF" d="M728.5,361.6h27v5.6H745v43.6h-6.1v-43.6h-10.4V361.6z"/>
			<path fill="#FFFFFF" d="M784.9,398.5c0,7.2-6,12.9-13.4,12.9h-1.2c-7.4,0-13.4-5.8-13.4-13v-24.7c0-7.2,5.9-12.9,13.4-12.9h1.2
				c7.4,0,13.4,5.8,13.4,12.9V398.5z M778.8,373.9c0-4.1-3.2-7.3-7.5-7.3h-0.8c-4.3,0-7.6,3.2-7.6,7.3v24.7c0,4.1,3.3,7.4,7.6,7.4
				h0.8c4.3,0,7.5-3.2,7.5-7.3V373.9z"/>
		</g>
	</g>
</g>
</svg>
