<svg width="138" height="70" viewBox="0 0 138 70" fill="none" xmlns="http://www.w3.org/2000/svg">
<path d="M32.3937 12.0801H135.808C136.573 12.0801 137.193 12.7002 137.193 13.4651V42.5505C137.193 43.3154 136.573 43.9355 135.808 43.9355H32.3937V12.0801Z" fill="#149FC4"/>
<path d="M54.4039 31.9863C54.173 31.9863 53.9884 31.9209 53.8499 31.7901C53.7191 31.6516 53.6537 31.4707 53.6537 31.2476V25.015H51.553C51.0914 25.015 50.8605 24.8111 50.8605 24.4033C50.8605 23.9955 51.0914 23.7916 51.553 23.7916H57.2432C57.7048 23.7916 57.9357 23.9955 57.9357 24.4033C57.9357 24.8111 57.7048 25.015 57.2432 25.015H55.1425V31.2476C55.1425 31.4707 55.0733 31.6516 54.9348 31.7901C54.804 31.9209 54.627 31.9863 54.4039 31.9863ZM65.6498 31.0398C65.696 31.1399 65.7191 31.2399 65.7191 31.3399C65.7191 31.5169 65.646 31.6669 65.4998 31.7901C65.3613 31.9132 65.1997 31.9747 65.015 31.9747C64.8919 31.9747 64.7765 31.9439 64.6688 31.8824C64.561 31.8131 64.4764 31.7093 64.4148 31.5708L63.7223 30.0242H59.6596L58.9671 31.5708C58.9056 31.7093 58.8209 31.8131 58.7132 31.8824C58.6055 31.9439 58.4862 31.9747 58.3554 31.9747C58.1784 31.9747 58.0168 31.9132 57.8706 31.7901C57.7244 31.6669 57.6514 31.5169 57.6514 31.3399C57.6514 31.2399 57.6744 31.1399 57.7206 31.0398L60.9061 24.1956C60.9754 24.0417 61.0793 23.9262 61.2178 23.8493C61.364 23.7647 61.5179 23.7223 61.6794 23.7223C61.841 23.7223 61.9911 23.7647 62.1296 23.8493C62.2758 23.9262 62.3835 24.0417 62.4527 24.1956L65.6498 31.0398ZM60.1675 28.87H63.2145L61.691 25.4421L60.1675 28.87ZM68.0065 31.9286C67.7834 31.9286 67.6102 31.867 67.4871 31.7439C67.364 31.6208 67.3025 31.4515 67.3025 31.2361V24.4726C67.3025 24.2494 67.3679 24.0724 67.4987 23.9416C67.6372 23.8031 67.818 23.7339 68.0411 23.7339C68.272 23.7339 68.4528 23.8031 68.5836 23.9416C68.7221 24.0724 68.7914 24.2494 68.7914 24.4726V30.7051H72.0346C72.4963 30.7051 72.7271 30.909 72.7271 31.3168C72.7271 31.7247 72.4963 31.9286 72.0346 31.9286H68.0065ZM80.4796 30.809C80.6335 30.9552 80.7104 31.1206 80.7104 31.3053C80.7104 31.4823 80.6412 31.64 80.5027 31.7785C80.3719 31.9093 80.2141 31.9747 80.0295 31.9747C79.8371 31.9747 79.6601 31.8939 79.4985 31.7323L75.6551 28.1313V31.2476C75.6551 31.4707 75.5859 31.6516 75.4474 31.7901C75.3166 31.9286 75.1357 31.9978 74.9049 31.9978C74.6818 31.9978 74.5009 31.9286 74.3624 31.7901C74.2316 31.6516 74.1662 31.4707 74.1662 31.2476V24.4726C74.1662 24.2494 74.2316 24.0724 74.3624 23.9416C74.5009 23.8031 74.6818 23.7339 74.9049 23.7339C75.1357 23.7339 75.3166 23.8031 75.4474 23.9416C75.5859 24.0724 75.6551 24.2494 75.6551 24.4726V27.4388L79.3716 23.9532C79.5101 23.8147 79.6678 23.7454 79.8448 23.7454C80.0218 23.7454 80.1757 23.8147 80.3065 23.9532C80.445 24.084 80.5142 24.2379 80.5142 24.4148C80.5142 24.5918 80.4373 24.7534 80.2834 24.8996L77.1786 27.7389L80.4796 30.809ZM93.2176 31.0398C93.2638 31.1399 93.2868 31.2399 93.2868 31.3399C93.2868 31.5169 93.2137 31.6669 93.0675 31.7901C92.929 31.9132 92.7675 31.9747 92.5828 31.9747C92.4597 31.9747 92.3443 31.9439 92.2365 31.8824C92.1288 31.8131 92.0442 31.7093 91.9826 31.5708L91.2901 30.0242H87.2274L86.5349 31.5708C86.4733 31.7093 86.3887 31.8131 86.281 31.8824C86.1732 31.9439 86.054 31.9747 85.9232 31.9747C85.7462 31.9747 85.5846 31.9132 85.4384 31.7901C85.2922 31.6669 85.2191 31.5169 85.2191 31.3399C85.2191 31.2399 85.2422 31.1399 85.2884 31.0398L88.4739 24.1956C88.5432 24.0417 88.647 23.9262 88.7855 23.8493C88.9317 23.7647 89.0856 23.7223 89.2472 23.7223C89.4088 23.7223 89.5588 23.7647 89.6973 23.8493C89.8435 23.9262 89.9513 24.0417 90.0205 24.1956L93.2176 31.0398ZM87.7352 28.87H90.7823L89.2587 25.4421L87.7352 28.87ZM103.474 27.7273C103.944 27.8582 104.305 28.0967 104.559 28.4429C104.821 28.7892 104.952 29.2124 104.952 29.7125C104.952 30.405 104.702 30.9475 104.202 31.3399C103.709 31.7323 103.028 31.9286 102.159 31.9286H99.1809C98.9578 31.9286 98.7808 31.867 98.65 31.7439C98.5269 31.6208 98.4653 31.4477 98.4653 31.2245V24.4956C98.4653 24.2725 98.5269 24.0994 98.65 23.9763C98.7808 23.8531 98.9578 23.7916 99.1809 23.7916H102.043C102.89 23.7916 103.551 23.9801 104.028 24.3571C104.513 24.7265 104.756 25.2459 104.756 25.9153C104.756 26.3462 104.64 26.7194 104.409 27.0348C104.186 27.3503 103.875 27.5811 103.474 27.7273ZM99.9196 27.2195H101.801C102.824 27.2195 103.336 26.8386 103.336 26.0769C103.336 25.6921 103.209 25.4074 102.955 25.2228C102.701 25.0381 102.316 24.9458 101.801 24.9458H99.9196V27.2195ZM101.997 30.7744C102.536 30.7744 102.928 30.6782 103.174 30.4858C103.421 30.2935 103.544 29.9934 103.544 29.5856C103.544 29.1778 103.417 28.8738 103.163 28.6738C102.917 28.4737 102.528 28.3737 101.997 28.3737H99.9196V30.7744H101.997ZM107.544 31.9978C107.321 31.9978 107.14 31.9286 107.002 31.7901C106.871 31.6516 106.806 31.4707 106.806 31.2476V24.4726C106.806 24.2494 106.871 24.0724 107.002 23.9416C107.14 23.8031 107.321 23.7339 107.544 23.7339C107.775 23.7339 107.956 23.8031 108.087 23.9416C108.225 24.0724 108.295 24.2494 108.295 24.4726V31.2476C108.295 31.4707 108.225 31.6516 108.087 31.7901C107.956 31.9286 107.775 31.9978 107.544 31.9978ZM113.18 31.9863C112.949 31.9863 112.764 31.9209 112.626 31.7901C112.495 31.6516 112.429 31.4707 112.429 31.2476V25.015H110.329C109.867 25.015 109.636 24.8111 109.636 24.4033C109.636 23.9955 109.867 23.7916 110.329 23.7916H116.019C116.481 23.7916 116.711 23.9955 116.711 24.4033C116.711 24.8111 116.481 25.015 116.019 25.015H113.918V31.2476C113.918 31.4707 113.849 31.6516 113.711 31.7901C113.58 31.9209 113.403 31.9863 113.18 31.9863Z" fill="white"/>
<path d="M131.824 41.1256L103.178 43.3384C102.415 43.3973 101.845 44.0634 101.904 44.826L103.062 59.8167C103.154 61.0177 101.776 61.7564 100.827 61.0142L80.9003 45.4236C80.6278 45.2103 80.2852 45.1068 79.9402 45.1335L11.9356 50.3866C11.173 50.4455 10.507 49.875 10.448 49.1124L7.57005 11.8552C7.51114 11.0926 8.08163 10.4265 8.84428 10.3676L128.732 1.10668C129.495 1.04776 130.161 1.61826 130.22 2.38091L133.098 39.6381C133.157 40.4007 132.586 41.0667 131.824 41.1256Z" stroke="white" stroke-width="1.38502"/>
<path d="M2.84663 12.7726H32.7399V27.9378V43.243H28.7003H25.4081C25.0066 43.243 24.6249 43.4172 24.3619 43.7204L10.5871 59.5997C9.74716 60.568 8.15585 59.9739 8.15585 58.6921V44.628C8.15585 43.8631 7.53576 43.243 6.77084 43.243H2.84662C2.0817 43.243 1.46161 42.6229 1.46161 41.858V14.1577C1.46161 13.3927 2.0817 12.7726 2.84663 12.7726Z" fill="white" stroke="#149FC4" stroke-width="1.38502"/>
<path d="M16.9259 36.0313C16.5861 36.0313 16.3054 35.9279 16.0838 35.7211C15.8769 35.4995 15.7735 35.2188 15.7735 34.879V22.2033H11.3415C10.6323 22.2033 10.2778 21.8857 10.2778 21.2504C10.2778 20.9402 10.3664 20.7038 10.5437 20.5413C10.7358 20.3788 11.0017 20.2976 11.3415 20.2976H22.5102C22.85 20.2976 23.1086 20.3788 23.2859 20.5413C23.4779 20.7038 23.5739 20.9402 23.5739 21.2504C23.5739 21.8857 23.2194 22.2033 22.5102 22.2033H18.0782V34.879C18.0782 35.2188 17.9748 35.4995 17.7679 35.7211C17.5611 35.9279 17.2804 36.0313 16.9259 36.0313Z" fill="#149FC4"/>
</svg>
