<?xml version="1.0" encoding="UTF-8" standalone="no"?>
<svg
   xmlns:dc="http://purl.org/dc/elements/1.1/"
   xmlns:cc="http://creativecommons.org/ns#"
   xmlns:rdf="http://www.w3.org/1999/02/22-rdf-syntax-ns#"
   xmlns:svg="http://www.w3.org/2000/svg"
   xmlns="http://www.w3.org/2000/svg"
   xmlns:sodipodi="http://sodipodi.sourceforge.net/DTD/sodipodi-0.dtd"
   xmlns:inkscape="http://www.inkscape.org/namespaces/inkscape"
   width="259.42999"
   height="220.74117"
   viewBox="0 0 259.42999 220.74117"
   fill="none"
   version="1.1"
   id="svg70"
   sodipodi:docname="Tab4v-02.inline.svg"
   inkscape:version="1.0.2 (e86c870, 2021-01-15)">
  <metadata
     id="metadata76">
    <rdf:RDF>
      <cc:Work
         rdf:about="">
        <dc:format>image/svg+xml</dc:format>
        <dc:type
           rdf:resource="http://purl.org/dc/dcmitype/StillImage" />
      </cc:Work>
    </rdf:RDF>
  </metadata>
  <defs
     id="defs74" />
  <sodipodi:namedview
     pagecolor="#ffffff"
     bordercolor="#666666"
     borderopacity="1"
     objecttolerance="10"
     gridtolerance="10"
     guidetolerance="10"
     inkscape:pageopacity="0"
     inkscape:pageshadow="2"
     inkscape:window-width="1848"
     inkscape:window-height="1016"
     id="namedview72"
     showgrid="false"
     inkscape:zoom="1.4550265"
     inkscape:cx="126.82"
     inkscape:cy="95.485"
     inkscape:window-x="72"
     inkscape:window-y="27"
     inkscape:window-maximized="1"
     inkscape:current-layer="svg70" />
  <path
     d="M 32.52,131.735 0,133.405 V 32.785 l 25.23,-1.5"
     fill="#149fc4"
     id="path62" />
  <path
     d="m 232.64,3.585 v 148.38 h -89.69 l -49,58.76 0.6,-60.47 H 20.83 V 3.585 h 13.81 z"
     stroke="#ffffff"
     stroke-width="7.17"
     stroke-miterlimit="10"
     id="path64" />
  <path
     d="m 259.43,22.805 v 93.21 l -52.89,5.45 4.95,58.44 -57.36,-54.43 -127.28,6.56 -1.32,-100.65 z"
     fill="#149fc4"
     id="path66" />
  <path
     d="m 53.331,90.095 c -0.257,0 -0.47,-0.085 -0.641,-0.256 -0.171,-0.171 -0.256,-0.385 -0.256,-0.641 V 64.554 h -7.176 c -0.256,0 -0.469,-0.085 -0.64,-0.256 -0.171,-0.171 -0.256,-0.384 -0.256,-0.641 v -3.203 c 0,-0.256 0.085,-0.47 0.256,-0.64 0.171,-0.171 0.384,-0.257 0.64,-0.257 H 64.82 c 0.256,0 0.469,0.086 0.64,0.257 0.171,0.17 0.257,0.384 0.257,0.64 v 3.203 c 0,0.257 -0.086,0.47 -0.257,0.641 -0.171,0.171 -0.384,0.256 -0.64,0.256 h -7.176 v 24.644 c 0,0.256 -0.085,0.47 -0.256,0.641 -0.171,0.171 -0.384,0.256 -0.641,0.256 z m 21.584,0.555 c -2.392,0 -4.342,-0.669 -5.851,-2.007 -1.481,-1.367 -2.221,-3.132 -2.221,-5.296 0,-1.965 0.683,-3.588 2.05,-4.869 1.367,-1.31 3.288,-2.164 5.766,-2.563 0.626,-0.057 1.224,-0.142 1.793,-0.256 1.994,-0.228 3.204,-0.399 3.631,-0.513 1.053,-0.17 1.58,-0.768 1.58,-1.793 0,-1.054 -0.441,-1.894 -1.324,-2.52 -0.854,-0.655 -1.936,-0.983 -3.246,-0.983 -2.306,0 -3.986,0.84 -5.04,2.52 -0.227,0.37 -0.498,0.556 -0.811,0.556 -0.228,0 -0.413,-0.057 -0.555,-0.171 l -2.392,-1.623 c -0.256,-0.171 -0.385,-0.413 -0.385,-0.726 0,-0.086 0.029,-0.214 0.086,-0.385 0.826,-1.566 2.05,-2.776 3.673,-3.63 1.623,-0.883 3.459,-1.324 5.51,-1.324 1.879,0 3.53,0.356 4.954,1.068 1.424,0.712 2.52,1.722 3.289,3.032 0.797,1.31 1.195,2.819 1.195,4.527 v 15.504 c 0,0.256 -0.085,0.47 -0.256,0.641 -0.171,0.171 -0.384,0.256 -0.64,0.256 h -2.905 c -0.256,0 -0.47,-0.071 -0.64,-0.214 -0.171,-0.17 -0.257,-0.398 -0.257,-0.683 v -1.666 c -1.964,2.079 -4.299,3.118 -7.004,3.118 z m 0.384,-4.57 c 1.111,0 2.164,-0.284 3.161,-0.854 0.996,-0.569 1.794,-1.31 2.392,-2.221 0.626,-0.939 0.939,-1.922 0.939,-2.947 v -0.854 l -3.203,0.47 c -1.737,0.199 -2.862,0.356 -3.374,0.47 -2.335,0.427 -3.502,1.437 -3.502,3.032 0,0.883 0.327,1.594 0.982,2.135 0.655,0.513 1.523,0.769 2.605,0.769 z m 20.994,4.015 c -0.512,0 -0.954,-0.171 -1.324,-0.513 -0.341,-0.37 -0.512,-0.811 -0.512,-1.324 V 62.333 H 90.57 c -0.256,0 -0.47,-0.085 -0.641,-0.256 -0.17,-0.171 -0.256,-0.384 -0.256,-0.64 v -3.161 c 0,-0.256 0.086,-0.47 0.256,-0.641 0.171,-0.17 0.385,-0.256 0.641,-0.256 h 7.175 c 0.513,0 0.94,0.185 1.282,0.555 0.37,0.342 0.555,0.769 0.555,1.282 v 25.925 h 3.887 c 0.256,0 0.469,0.085 0.64,0.256 0.171,0.171 0.256,0.384 0.256,0.641 v 3.16 c 0,0.256 -0.085,0.47 -0.256,0.641 -0.171,0.171 -0.384,0.256 -0.64,0.256 z m 13.444,0 c -0.256,0 -0.47,-0.085 -0.641,-0.256 -0.171,-0.171 -0.256,-0.385 -0.256,-0.641 V 58.276 c 0,-0.256 0.085,-0.47 0.256,-0.641 0.171,-0.17 0.385,-0.256 0.641,-0.256 h 3.331 c 0.257,0 0.47,0.086 0.641,0.256 0.171,0.171 0.256,0.385 0.256,0.641 v 16.059 h 1.452 l 7.645,-8.2 c 0.314,-0.342 0.698,-0.513 1.154,-0.513 h 3.886 c 0.256,0 0.47,0.086 0.641,0.256 0.171,0.143 0.256,0.328 0.256,0.556 0,0.199 -0.085,0.413 -0.256,0.64 l -9.183,9.567 9.738,12.13 c 0.142,0.199 0.214,0.384 0.214,0.555 0,0.228 -0.072,0.413 -0.214,0.555 -0.142,0.143 -0.342,0.214 -0.598,0.214 h -3.801 c -0.541,0 -0.982,-0.214 -1.324,-0.641 l -8.2,-10.335 h -1.41 v 10.079 c 0,0.256 -0.085,0.47 -0.256,0.641 -0.171,0.171 -0.384,0.256 -0.641,0.256 z m 41.213,0.555 c -2.391,0 -4.342,-0.669 -5.851,-2.007 -1.481,-1.367 -2.221,-3.132 -2.221,-5.296 0,-1.965 0.684,-3.588 2.05,-4.869 1.367,-1.31 3.289,-2.164 5.766,-2.563 0.627,-0.057 1.224,-0.142 1.794,-0.256 1.993,-0.228 3.203,-0.399 3.63,-0.513 1.054,-0.17 1.581,-0.768 1.581,-1.793 0,-1.054 -0.442,-1.894 -1.324,-2.52 -0.855,-0.655 -1.937,-0.983 -3.246,-0.983 -2.307,0 -3.987,0.84 -5.04,2.52 -0.228,0.37 -0.498,0.556 -0.812,0.556 -0.227,0 -0.413,-0.057 -0.555,-0.171 l -2.392,-1.623 c -0.256,-0.171 -0.384,-0.413 -0.384,-0.726 0,-0.086 0.028,-0.214 0.085,-0.385 0.826,-1.566 2.05,-2.776 3.673,-3.63 1.623,-0.883 3.46,-1.324 5.51,-1.324 1.879,0 3.531,0.356 4.954,1.068 1.424,0.712 2.52,1.722 3.289,3.032 0.797,1.31 1.196,2.819 1.196,4.527 v 15.504 c 0,0.256 -0.086,0.47 -0.256,0.641 -0.171,0.171 -0.385,0.256 -0.641,0.256 h -2.904 c -0.257,0 -0.47,-0.071 -0.641,-0.214 -0.171,-0.17 -0.256,-0.398 -0.256,-0.683 v -1.666 c -1.965,2.079 -4.3,3.118 -7.005,3.118 z m 0.385,-4.57 c 1.11,0 2.164,-0.284 3.16,-0.854 0.997,-0.569 1.794,-1.31 2.392,-2.221 0.626,-0.939 0.94,-1.922 0.94,-2.947 v -0.854 l -3.204,0.47 c -1.736,0.199 -2.861,0.356 -3.374,0.47 -2.334,0.427 -3.502,1.437 -3.502,3.032 0,0.883 0.328,1.594 0.982,2.135 0.655,0.513 1.524,0.769 2.606,0.769 z m 30.247,4.015 c -0.513,0 -0.954,-0.171 -1.324,-0.513 -0.342,-0.37 -0.513,-0.811 -0.513,-1.324 V 61.394 c 0,-0.513 0.171,-0.94 0.513,-1.281 0.37,-0.371 0.811,-0.556 1.324,-0.556 h 7.559 c 1.595,0 3.047,0.385 4.357,1.154 1.338,0.768 2.392,1.808 3.16,3.117 0.798,1.282 1.196,2.705 1.196,4.271 0,2.107 -0.882,3.915 -2.648,5.425 1.452,0.597 2.577,1.537 3.374,2.818 0.798,1.253 1.196,2.734 1.196,4.442 0,1.709 -0.427,3.275 -1.281,4.698 -0.826,1.424 -1.95,2.549 -3.374,3.374 -1.424,0.826 -2.99,1.239 -4.698,1.239 z m 7.175,-18.194 c 1.082,0 2.007,-0.371 2.776,-1.111 0.797,-0.74 1.196,-1.609 1.196,-2.605 0,-1.054 -0.399,-1.951 -1.196,-2.691 -0.769,-0.74 -1.694,-1.11 -2.776,-1.11 h -3.887 v 7.517 z m 1.452,13.325 c 1.282,0 2.335,-0.413 3.161,-1.239 0.825,-0.825 1.238,-1.893 1.238,-3.203 0,-1.224 -0.427,-2.235 -1.281,-3.032 -0.826,-0.826 -1.865,-1.239 -3.118,-1.239 h -5.339 v 8.713 z m 18.447,-22.465 c -0.256,0 -0.47,-0.086 -0.64,-0.257 -0.171,-0.171 -0.257,-0.384 -0.257,-0.64 v -4.656 c 0,-0.256 0.086,-0.47 0.257,-0.64 0.17,-0.171 0.384,-0.257 0.64,-0.257 h 2.905 c 0.256,0 0.469,0.086 0.64,0.257 0.171,0.17 0.256,0.384 0.256,0.64 v 4.656 c 0,0.256 -0.085,0.469 -0.256,0.64 -0.171,0.171 -0.384,0.257 -0.64,0.257 z m 1.025,27.334 c -0.598,0 -1.11,-0.199 -1.537,-0.598 -0.399,-0.427 -0.598,-0.94 -0.598,-1.538 V 70.491 h -3.46 c -0.256,0 -0.47,-0.085 -0.64,-0.256 -0.171,-0.171 -0.257,-0.385 -0.257,-0.641 v -3.075 c 0,-0.256 0.086,-0.47 0.257,-0.641 0.17,-0.17 0.384,-0.256 0.64,-0.256 h 6.449 c 0.598,0 1.097,0.214 1.495,0.641 0.427,0.398 0.641,0.897 0.641,1.495 v 17.468 h 3.459 c 0.257,0 0.47,0.085 0.641,0.256 0.171,0.171 0.256,0.385 0.256,0.641 v 3.075 c 0,0.256 -0.085,0.47 -0.256,0.641 -0.171,0.171 -0.384,0.256 -0.641,0.256 z m 20.713,0 c -2.221,0 -4.029,-0.683 -5.425,-2.05 -1.366,-1.367 -2.05,-3.161 -2.05,-5.382 V 70.406 h -2.947 c -0.256,0 -0.469,-0.086 -0.64,-0.257 -0.171,-0.17 -0.257,-0.384 -0.257,-0.64 v -2.99 c 0,-0.256 0.086,-0.47 0.257,-0.641 0.171,-0.17 0.384,-0.256 0.64,-0.256 h 2.947 v -4.613 c 0,-0.256 0.086,-0.469 0.257,-0.64 0.17,-0.171 0.384,-0.256 0.64,-0.256 h 3.332 c 0.256,0 0.469,0.085 0.64,0.256 0.171,0.171 0.257,0.384 0.257,0.64 v 4.613 h 7.218 c 0.256,0 0.469,0.086 0.64,0.256 0.171,0.171 0.256,0.385 0.256,0.641 v 3.032 c 0,0.257 -0.085,0.47 -0.256,0.641 -0.171,0.171 -0.384,0.256 -0.64,0.256 h -7.218 V 82.45 c 0,0.854 0.242,1.537 0.726,2.05 0.512,0.512 1.181,0.769 2.007,0.769 l 4.485,0.042 c 0.256,0 0.469,0.086 0.64,0.257 0.171,0.171 0.256,0.384 0.256,0.64 v 2.99 c 0,0.256 -0.085,0.47 -0.256,0.641 -0.171,0.171 -0.384,0.256 -0.64,0.256 z"
     fill="#ffffff"
     id="path68" />
</svg>
