<?xml version="1.0" encoding="utf-8"?>
<!-- Generator: Adobe Illustrator 16.0.0, SVG Export Plug-In . SVG Version: 6.00 Build 0)  -->
<!DOCTYPE svg PUBLIC "-//W3C//DTD SVG 1.1//EN" "http://www.w3.org/Graphics/SVG/1.1/DTD/svg11.dtd">
<svg version="1.1" id="Layer_1" xmlns="http://www.w3.org/2000/svg" xmlns:xlink="http://www.w3.org/1999/xlink" x="0px" y="0px"
	 width="94px" height="94px" viewBox="0 0 94 94" enable-background="new 0 0 94 94" xml:space="preserve">
<g>
	<g>
		<path d="M32.906,42.098h2.452v9.805h-1.177v-8.699h-1.275V42.098z"/>
		<path d="M36.756,42.098h2.452v9.805h-1.177v-8.699h-1.275V42.098z"/>
		<path d="M45.467,48.107c-0.294,0.294-0.756,0.602-1.443,0.602h-0.098c-1.457,0-2.619-1.134-2.619-2.563v-1.597
			c0-1.429,1.163-2.591,2.619-2.591h0.098c1.457,0,2.605,1.148,2.605,2.577v4.917c0,1.429-1.106,2.591-2.563,2.591h-0.07
			c-1.471,0-2.592-1.163-2.592-2.605h1.191c0,0.827,0.602,1.485,1.443,1.485c0.812,0,1.429-0.658,1.429-1.485V48.107z
			 M45.467,46.132v-1.611c0-0.827-0.672-1.457-1.499-1.457c-0.826,0-1.485,0.645-1.485,1.471v1.597c0,0.812,0.659,1.471,1.485,1.471
			h0.084C44.739,47.603,45.467,46.945,45.467,46.132z"/>
		<path d="M52.607,48.107c-0.294,0.294-0.756,0.602-1.443,0.602h-0.098c-1.457,0-2.619-1.134-2.619-2.563v-1.597
			c0-1.429,1.163-2.591,2.619-2.591h0.098c1.457,0,2.605,1.148,2.605,2.577v4.917c0,1.429-1.106,2.591-2.563,2.591h-0.07
			c-1.471,0-2.591-1.163-2.591-2.605h1.19c0,0.827,0.603,1.485,1.443,1.485c0.812,0,1.429-0.658,1.429-1.485V48.107z M52.607,46.132
			v-1.611c0-0.827-0.672-1.457-1.499-1.457c-0.826,0-1.485,0.645-1.485,1.471v1.597c0,0.812,0.659,1.471,1.485,1.471h0.084
			C51.879,47.603,52.607,46.945,52.607,46.132z"/>
		<path d="M60.266,46.636h-3.124v0.799h2.689v1.106h-2.689v0.924c0,0.812,0.658,1.485,1.485,1.485c0.826,0,1.485-0.658,1.485-1.471
			v-0.168h1.177v0.154c0,1.429-1.163,2.578-2.62,2.578h-0.084c-1.457,0-2.62-1.163-2.62-2.591v-0.911h-0.658v-1.106h0.658v-0.799
			h-0.658V45.53h0.658v-0.995c0-1.429,1.163-2.577,2.62-2.577h0.084c1.457,0,2.62,1.106,2.62,2.591h-1.177
			c0-0.812-0.659-1.471-1.485-1.471c-0.827,0-1.485,0.658-1.485,1.471v0.98h3.124V46.636z"/>
	</g>
	<g>
		<path fill="#86754D" d="M24.067,68.203l-9.546-4.616l-0.011-0.008l1.869-10.445c0.562,2.815,1.501,5.524,2.8,8.071
			C20.482,63.755,22.122,66.101,24.067,68.203"/>
		<polygon fill="#86754D" points="24.904,69.441 26.192,86.322 19.626,74.718 		"/>
		<path fill="#86754D" d="M30.461,79.496l-4.636-9.542c2.103,1.938,4.459,3.575,7.014,4.878c2.558,1.302,5.267,2.243,8.067,2.796
			l-10.442,1.868H30.461z"/>
		<polygon fill="#86754D" points="25.396,70.078 30.09,79.738 26.651,86.502 		"/>
		<polygon fill="#86754D" points="41.062,78.05 27.044,86.704 30.483,79.94 		"/>
		<polygon fill="#86754D" points="41.869,78.068 40.713,85.391 40.706,85.442 27.451,86.972 		"/>
		<path fill="#86754D" d="M53.328,91.545C51.21,91.846,49.062,92,46.938,92c-6.78,0-13.566-1.575-19.681-4.562l13.606-1.572
			L53.328,91.545z"/>
		<polygon fill="#86754D" points="42.306,78.138 53.288,91.038 41.142,85.511 		"/>
		<polygon fill="#86754D" points="53.753,90.91 43.08,78.366 52.56,83.412 		"/>
		<path fill="#86754D" d="M51.896,77.833c2.837-0.451,5.583-1.285,8.174-2.48l-7.351,7.644l-9.363-4.983
			C46.189,78.348,49.07,78.285,51.896,77.833"/>
		<polygon fill="#86754D" points="60.441,75.606 54.19,90.841 52.998,83.343 		"/>
		<polygon fill="#86754D" points="64.5,81.79 64.5,81.793 54.678,90.818 54.674,90.818 61.105,75.144 		"/>
		<path fill="#86754D" d="M54.792,91.311l10.083-9.267h0.004l13.423-2.73C71.815,85.607,63.715,89.743,54.792,91.311"/>
		<polygon fill="#86754D" points="77.967,78.924 64.897,81.591 61.502,74.945 		"/>
		<polygon fill="#86754D" points="78.275,78.545 62.265,74.673 72.901,73.184 		"/>
		<path fill="#86754D" d="M74.227,62.247l-1.442,10.508l-10.498,1.472c2.485-1.402,4.769-3.135,6.791-5.164
			C71.104,67.032,72.832,64.746,74.227,62.247"/>
		<polygon fill="#86754D" points="74.674,62.232 78.583,78.234 73.214,72.872 		"/>
		<polygon fill="#86754D" points="81.6,64.849 78.965,77.929 74.943,61.469 		"/>
		<polygon fill="#86754D" points="90.828,54.617 81.802,64.453 75.145,61.076 		"/>
		<path fill="#86754D" d="M82.056,64.827l9.265-10.09c-1.535,8.776-5.76,17.074-11.97,23.518L82.056,64.827z"/>
		<polygon fill="#86754D" points="90.851,54.132 75.604,60.412 83.348,52.954 		"/>
		<path fill="#86754D" d="M77.986,43.324l5.017,9.351l-0.007,0.007l-7.638,7.352c1.196-2.603,2.025-5.344,2.47-8.17
			C78.271,49.042,78.323,46.175,77.986,43.324"/>
		<polygon fill="#86754D" points="90.916,53.695 83.421,52.518 83.417,52.518 78.337,43.048 		"/>
		<polygon fill="#86754D" points="91.045,53.225 78.107,42.274 85.477,41.096 		"/>
		<path fill="#86754D" d="M91.552,53.266l-5.716-12.449l1.563-13.612c1.964,4.008,3.314,8.283,4.02,12.724
			C92.127,44.366,92.172,48.847,91.552,53.266"/>
		<polygon fill="#86754D" points="78.037,41.837 78.125,41.698 81.63,36.005 86.934,27.403 85.407,40.659 78.143,41.822 		"/>
		<polygon fill="#86754D" points="86.67,26.992 86.563,27.167 78.018,41.026 79.905,30.441 		"/>
		<path fill="#86754D" d="M69.899,25.806l9.561,4.617l-1.864,10.459c-0.562-2.815-1.502-5.523-2.805-8.07
			C73.493,30.258,71.848,27.91,69.899,25.806"/>
		<polygon fill="#86754D" points="86.467,26.599 79.703,30.052 70.032,25.381 		"/>
		<polygon fill="#86754D" points="86.295,26.144 69.382,24.889 74.656,19.597 		"/>
		<path fill="#86754D" d="M68.039,7.239c7.906,4.198,14.494,10.772,18.682,18.637l-11.94-6.716L68.039,7.239z"/>
		<polygon fill="#86754D" points="74.345,19.289 69.07,24.577 67.774,7.668 74.345,19.285 		"/>
		<polygon fill="#86754D" points="68.578,23.935 63.88,14.264 67.315,7.503 		"/>
		<path fill="#86754D" d="M68.149,24.063c-2.103-1.938-4.46-3.578-7.014-4.877c-2.562-1.307-5.271-2.246-8.071-2.8l10.445-1.876
			L68.149,24.063z"/>
		<polygon fill="#86754D" points="66.926,7.302 63.488,14.062 52.917,15.963 		"/>
		<polygon fill="#86754D" points="66.519,7.034 52.101,15.945 53.265,8.564 		"/>
		<path fill="#86754D" d="M40.639,2.457C49.61,1.18,58.594,2.593,66.714,6.564l-13.606,1.57L40.639,2.457z"/>
		<polygon fill="#86754D" points="52.829,8.495 51.666,15.875 40.684,2.963 		"/>
		<polygon fill="#86754D" points="50.895,15.647 41.41,10.59 40.217,3.096 		"/>
		<path fill="#86754D" d="M41.252,11.005L50.619,16c-2.834-0.327-5.718-0.268-8.541,0.183c-2.841,0.452-5.583,1.285-8.178,2.481
			L41.252,11.005z"/>
		<polygon fill="#86754D" points="40.974,10.66 33.537,18.408 39.704,3.349 39.78,3.166 		"/>
		<polygon fill="#86754D" points="29.467,12.212 39.296,3.184 32.869,18.87 32.865,18.87 29.467,12.216 		"/>
		<path fill="#86754D" d="M39.178,2.692l-10.083,9.267h-0.004L15.673,14.69C22.156,8.396,30.255,4.259,39.178,2.692"/>
		<polygon fill="#86754D" points="32.472,19.072 16,15.075 29.074,12.414 		"/>
		<polygon fill="#86754D" points="31.705,19.343 21.069,20.818 15.703,15.457 		"/>
		<path fill="#86754D" d="M31.695,19.788c-2.492,1.398-4.772,3.134-6.801,5.167c-2.023,2.029-3.751,4.319-5.149,6.819l1.442-10.526
			L31.695,19.788z"/>
		<polygon fill="#86754D" points="20.757,21.13 19.296,31.781 15.387,15.769 		"/>
		<polygon fill="#86754D" points="15.005,16.07 19.032,32.548 12.37,29.153 		"/>
		<path fill="#86754D" d="M14.62,15.747l-2.705,13.429L2.65,39.264C4.188,30.49,8.41,22.191,14.62,15.747"/>
		<polygon fill="#86754D" points="12.168,29.546 18.83,32.941 3.139,39.386 		"/>
		<polygon fill="#86754D" points="18.367,33.609 10.623,41.052 3.121,39.87 		"/>
		<path fill="#86754D" d="M18.621,33.976c-1.196,2.606-2.03,5.344-2.478,8.177c-0.444,2.83-0.496,5.704-0.154,8.537l-5.022-9.363
			L18.621,33.976z"/>
		<polygon fill="#86754D" points="10.553,41.485 15.637,50.965 3.051,40.303 		"/>
		<polygon fill="#86754D" points="15.868,51.739 8.498,52.914 2.922,40.776 		"/>
		<path fill="#86754D" d="M2.419,40.736l5.719,12.453L6.571,66.801c-1.959-4.007-3.314-8.283-4.019-12.724
			C1.843,49.64,1.799,45.151,2.419,40.736"/>
		<polygon fill="#86754D" points="15.938,52.18 7.037,66.607 8.567,53.35 15.938,52.176 		"/>
		<polygon fill="#86754D" points="24.592,69.124 19.314,74.406 7.683,67.858 		"/>
		<polygon fill="#86754D" points="23.946,68.633 7.51,67.403 14.268,63.954 		"/>
		<polygon fill="#86754D" points="15.956,52.991 14.066,63.561 7.309,67.006 		"/>
		<path fill="#86754D" d="M25.928,86.759c-2.308-1.236-4.349-2.518-6.067-3.82c-0.062-0.052-0.151-0.063-0.224-0.025L3.712,90.29
			l7.399-15.972c0.033-0.074,0.026-0.159-0.025-0.224c-1.623-2.176-2.831-4.044-3.847-5.972l11.951,6.721L25.928,86.759z"/>
	</g>
</g>
</svg>
