<?xml version="1.0" encoding="utf-8"?>
<!-- Generator: Adobe Illustrator 16.0.0, SVG Export Plug-In . SVG Version: 6.00 Build 0)  -->
<!DOCTYPE svg PUBLIC "-//W3C//DTD SVG 1.1//EN" "http://www.w3.org/Graphics/SVG/1.1/DTD/svg11.dtd">
<svg version="1.1" id="Layer_1" xmlns="http://www.w3.org/2000/svg" xmlns:xlink="http://www.w3.org/1999/xlink" x="0px" y="0px"
	 width="94px" height="94px" viewBox="0 0 94 94" enable-background="new 0 0 94 94" xml:space="preserve">
<g>
	<g>
		<path fill="#00A9E1" d="M24.062,68.203l-9.546-4.616l-0.011-0.008l1.869-10.445c0.562,2.815,1.501,5.524,2.8,8.071
			C20.477,63.755,22.117,66.101,24.062,68.203"/>
		<polygon fill="#00A9E1" points="24.899,69.441 26.187,86.322 19.621,74.718 		"/>
		<path fill="#00A9E1" d="M30.456,79.496l-4.636-9.542c2.103,1.938,4.459,3.575,7.014,4.878c2.558,1.302,5.267,2.243,8.067,2.796
			l-10.442,1.868H30.456z"/>
		<polygon fill="#00A9E1" points="25.391,70.078 30.085,79.738 26.646,86.502 		"/>
		<polygon fill="#00A9E1" points="41.056,78.05 27.039,86.703 30.478,79.94 		"/>
		<polygon fill="#00A9E1" points="41.864,78.068 40.708,85.391 40.7,85.441 27.446,86.972 		"/>
		<path fill="#00A9E1" d="M53.322,91.545C51.205,91.846,49.057,92,46.933,92c-6.78,0-13.566-1.574-19.681-4.562l13.606-1.571
			L53.322,91.545z"/>
		<polygon fill="#00A9E1" points="42.3,78.138 53.282,91.038 41.137,85.511 		"/>
		<polygon fill="#00A9E1" points="53.748,90.91 43.074,78.366 52.555,83.412 		"/>
		<path fill="#00A9E1" d="M51.891,77.833c2.837-0.451,5.583-1.285,8.174-2.48l-7.351,7.644l-9.363-4.983
			C46.184,78.348,49.064,78.285,51.891,77.833"/>
		<polygon fill="#00A9E1" points="60.436,75.606 54.185,90.841 52.993,83.343 		"/>
		<polygon fill="#00A9E1" points="64.495,81.79 64.495,81.793 54.673,90.818 54.669,90.818 61.1,75.144 		"/>
		<path fill="#00A9E1" d="M54.787,91.311l10.083-9.267h0.004l13.423-2.73C71.81,85.606,63.709,89.743,54.787,91.311"/>
		<polygon fill="#00A9E1" points="77.962,78.924 64.892,81.591 61.497,74.945 		"/>
		<polygon fill="#00A9E1" points="78.27,78.545 62.26,74.673 72.896,73.184 		"/>
		<path fill="#00A9E1" d="M74.222,62.247l-1.442,10.508l-10.498,1.472c2.485-1.402,4.769-3.135,6.791-5.164
			C71.098,67.032,72.826,64.746,74.222,62.247"/>
		<polygon fill="#00A9E1" points="74.669,62.232 78.578,78.234 73.209,72.872 		"/>
		<polygon fill="#00A9E1" points="81.595,64.849 78.96,77.929 74.938,61.469 		"/>
		<polygon fill="#00A9E1" points="90.823,54.617 81.797,64.453 75.139,61.076 		"/>
		<path fill="#00A9E1" d="M82.05,64.827l9.265-10.09c-1.535,8.776-5.76,17.074-11.97,23.518L82.05,64.827z"/>
		<polygon fill="#00A9E1" points="90.845,54.132 75.598,60.412 83.342,52.954 		"/>
		<path fill="#00A9E1" d="M77.98,43.324l5.017,9.351l-0.007,0.007l-7.638,7.352c1.196-2.603,2.025-5.344,2.47-8.17
			C78.266,49.042,78.317,46.175,77.98,43.324"/>
		<polygon fill="#00A9E1" points="90.911,53.695 83.416,52.518 83.412,52.518 78.332,43.048 		"/>
		<polygon fill="#00A9E1" points="91.04,53.225 78.102,42.274 85.471,41.096 		"/>
		<path fill="#00A9E1" d="M91.546,53.266l-5.716-12.449l1.563-13.612c1.964,4.008,3.314,8.283,4.02,12.724
			C92.122,44.366,92.167,48.847,91.546,53.266"/>
		<polygon fill="#00A9E1" points="78.031,41.837 78.12,41.698 81.625,36.005 86.929,27.403 85.401,40.659 78.138,41.822 		"/>
		<polygon fill="#00A9E1" points="86.665,26.992 86.558,27.167 78.013,41.026 79.899,30.441 		"/>
		<path fill="#00A9E1" d="M69.894,25.806l9.561,4.617l-1.864,10.459c-0.562-2.815-1.502-5.523-2.805-8.07
			C73.487,30.258,71.843,27.91,69.894,25.806"/>
		<polygon fill="#00A9E1" points="86.462,26.599 79.697,30.052 70.027,25.381 		"/>
		<polygon fill="#00A9E1" points="86.29,26.144 69.376,24.889 74.651,19.597 		"/>
		<path fill="#00A9E1" d="M68.033,7.239c7.906,4.198,14.494,10.772,18.682,18.637l-11.94-6.716L68.033,7.239z"/>
		<polygon fill="#00A9E1" points="74.339,19.289 69.064,24.577 67.769,7.668 74.339,19.285 		"/>
		<polygon fill="#00A9E1" points="68.573,23.935 63.875,14.264 67.31,7.503 		"/>
		<path fill="#00A9E1" d="M68.144,24.063c-2.103-1.938-4.46-3.578-7.014-4.877c-2.562-1.307-5.271-2.246-8.071-2.8l10.445-1.876
			L68.144,24.063z"/>
		<polygon fill="#00A9E1" points="66.921,7.302 63.482,14.062 52.912,15.963 		"/>
		<polygon fill="#00A9E1" points="66.514,7.034 52.096,15.945 53.26,8.564 		"/>
		<path fill="#00A9E1" d="M40.634,2.457c8.971-1.277,17.955,0.136,26.075,4.107l-13.606,1.57L40.634,2.457z"/>
		<polygon fill="#00A9E1" points="52.823,8.495 51.66,15.875 40.678,2.963 		"/>
		<polygon fill="#00A9E1" points="50.889,15.647 41.405,10.59 40.212,3.096 		"/>
		<path fill="#00A9E1" d="M41.247,11.005L50.614,16c-2.834-0.327-5.718-0.268-8.541,0.183c-2.841,0.452-5.583,1.285-8.178,2.481
			L41.247,11.005z"/>
		<polygon fill="#00A9E1" points="40.968,10.66 33.532,18.408 39.698,3.349 39.775,3.166 		"/>
		<polygon fill="#00A9E1" points="29.461,12.212 39.291,3.184 32.864,18.87 32.86,18.87 29.461,12.216 		"/>
		<path fill="#00A9E1" d="M39.173,2.692L29.09,11.959h-0.004L15.668,14.69C22.15,8.396,30.25,4.259,39.173,2.692"/>
		<polygon fill="#00A9E1" points="32.467,19.072 15.994,15.075 29.069,12.414 		"/>
		<polygon fill="#00A9E1" points="31.7,19.343 21.063,20.818 15.697,15.457 		"/>
		<path fill="#00A9E1" d="M31.689,19.788c-2.492,1.398-4.772,3.134-6.801,5.167c-2.023,2.029-3.751,4.319-5.149,6.819l1.442-10.526
			L31.689,19.788z"/>
		<polygon fill="#00A9E1" points="20.751,21.13 19.291,31.781 15.382,15.769 		"/>
		<polygon fill="#00A9E1" points="15,16.07 19.026,32.548 12.364,29.153 		"/>
		<path fill="#00A9E1" d="M14.615,15.747L11.91,29.175L2.645,39.264C4.183,30.49,8.404,22.191,14.615,15.747"/>
		<polygon fill="#00A9E1" points="12.163,29.546 18.824,32.941 3.134,39.386 		"/>
		<polygon fill="#00A9E1" points="18.362,33.609 10.617,41.052 3.115,39.87 		"/>
		<path fill="#00A9E1" d="M18.615,33.976c-1.196,2.606-2.03,5.344-2.478,8.177c-0.444,2.83-0.496,5.704-0.154,8.537l-5.022-9.363
			L18.615,33.976z"/>
		<polygon fill="#00A9E1" points="10.547,41.485 15.631,50.965 3.045,40.303 		"/>
		<polygon fill="#00A9E1" points="15.863,51.739 8.492,52.914 2.917,40.776 		"/>
		<path fill="#00A9E1" d="M2.414,40.736l5.719,12.453L6.565,66.801c-1.959-4.007-3.314-8.283-4.019-12.724
			C1.838,49.64,1.794,45.151,2.414,40.736"/>
		<polygon fill="#00A9E1" points="15.932,52.18 7.031,66.607 8.562,53.35 15.932,52.176 		"/>
		<polygon fill="#00A9E1" points="24.587,69.124 19.309,74.406 7.678,67.858 		"/>
		<polygon fill="#00A9E1" points="23.94,68.633 7.505,67.403 14.262,63.954 		"/>
		<polygon fill="#00A9E1" points="15.951,52.991 14.061,63.561 7.303,67.006 		"/>
		<path fill="#00A9E1" d="M25.923,86.759c-2.308-1.236-4.349-2.518-6.067-3.82c-0.062-0.052-0.151-0.063-0.224-0.025L3.707,90.289
			l7.399-15.971c0.033-0.074,0.026-0.159-0.025-0.224c-1.623-2.176-2.831-4.044-3.847-5.972l11.951,6.721L25.923,86.759z"/>
	</g>
	<g>
		<path d="M30.186,44.759c0-1.639,1.219-2.801,2.662-2.801c1.457,0,2.605,1.092,2.605,2.563c0,2.969-4.202,3.74-4.202,6.275h4.202
			v1.106h-5.379V50.88c0-3.334,4.202-4.02,4.202-6.443c0-0.785-0.672-1.373-1.443-1.373c-0.854,0-1.471,0.756-1.471,1.695H30.186z"
			/>
		<path d="M41.15,48.107c-0.294,0.294-0.756,0.602-1.443,0.602h-0.098c-1.457,0-2.619-1.134-2.619-2.563v-1.597
			c0-1.429,1.163-2.591,2.619-2.591h0.098c1.457,0,2.605,1.148,2.605,2.577v4.917c0,1.429-1.106,2.591-2.563,2.591h-0.07
			c-1.471,0-2.591-1.163-2.591-2.605h1.19c0,0.827,0.603,1.485,1.443,1.485c0.812,0,1.429-0.658,1.429-1.485V48.107z M41.15,46.132
			v-1.611c0-0.827-0.672-1.457-1.499-1.457c-0.826,0-1.485,0.645-1.485,1.471v1.597c0,0.812,0.659,1.471,1.485,1.471h0.084
			C40.421,47.603,41.15,46.944,41.15,46.132z"/>
		<path d="M48.29,48.107c-0.294,0.294-0.756,0.602-1.443,0.602h-0.098c-1.457,0-2.619-1.134-2.619-2.563v-1.597
			c0-1.429,1.163-2.591,2.619-2.591h0.098c1.457,0,2.605,1.148,2.605,2.577v4.917c0,1.429-1.106,2.591-2.563,2.591h-0.07
			c-1.471,0-2.592-1.163-2.592-2.605h1.191c0,0.827,0.602,1.485,1.443,1.485c0.812,0,1.429-0.658,1.429-1.485V48.107z M48.29,46.132
			v-1.611c0-0.827-0.672-1.457-1.499-1.457c-0.826,0-1.485,0.645-1.485,1.471v1.597c0,0.812,0.659,1.471,1.485,1.471h0.084
			C47.562,47.603,48.29,46.944,48.29,46.132z"/>
		<path d="M56.369,49.465c0,1.429-1.121,2.578-2.507,2.578h-0.098c-1.401,0-2.493-1.163-2.493-2.591v-4.917
			c0-1.429,1.092-2.577,2.493-2.577h0.098c1.387,0,2.507,1.148,2.507,2.577V49.465z M55.206,44.549c0-0.826-0.616-1.485-1.401-1.485
			c-0.771,0-1.387,0.659-1.387,1.485v4.917c0,0.827,0.616,1.471,1.401,1.471c0.771,0,1.387-0.63,1.387-1.457V44.549z"/>
		<path d="M62.864,46.636h-3.124v0.799h2.689v1.106h-2.689v0.924c0,0.812,0.658,1.485,1.485,1.485c0.826,0,1.485-0.658,1.485-1.471
			v-0.168h1.176v0.154c0,1.429-1.163,2.578-2.619,2.578h-0.084c-1.457,0-2.62-1.163-2.62-2.591v-0.911h-0.658v-1.106h0.658v-0.799
			h-0.658v-1.106h0.658v-0.995c0-1.429,1.163-2.577,2.62-2.577h0.084c1.457,0,2.619,1.106,2.619,2.591H62.71
			c0-0.812-0.659-1.471-1.485-1.471c-0.827,0-1.485,0.658-1.485,1.471v0.98h3.124V46.636z"/>
	</g>
</g>
</svg>
