<svg viewBox="0 0 40 46" fill="none" xmlns="http://www.w3.org/2000/svg">
<g clip-path="url(#clip0_1_3180)">
<path d="M35.7143 2.85718H4.28571C3.14907 2.85718 2.05898 3.30871 1.25526 4.11243C0.451529 4.91616 0 6.00625 0 7.14289L0 38.5715C0 39.7081 0.451529 40.7982 1.25526 41.6019C2.05898 42.4056 3.14907 42.8572 4.28571 42.8572H16.5402V29.2581H10.9152V22.8572H16.5402V17.9786C16.5402 12.4295 19.8438 9.36432 24.9036 9.36432C27.3268 9.36432 29.8607 9.79646 29.8607 9.79646V15.2429H27.0688C24.3179 15.2429 23.4598 16.95 23.4598 18.7009V22.8572H29.6009L28.6188 29.2581H23.4598V42.8572H35.7143C36.8509 42.8572 37.941 42.4056 38.7447 41.6019C39.5485 40.7982 40 39.7081 40 38.5715V7.14289C40 6.00625 39.5485 4.91616 38.7447 4.11243C37.941 3.30871 36.8509 2.85718 35.7143 2.85718Z" />
</g>
<defs>
<clipPath id="clip0_1_3180">
<rect width="40" height="45.7143" />
</clipPath>
</defs>
</svg>
