<svg xmlns="http://www.w3.org/2000/svg" viewBox="0 0 929.76 481.89"><defs><style>.a,.c{fill:#fff;}.b{fill:#00a9ce;}.c{isolation:isolate;font-size:66px;font-family:Poppins-Bold, Poppins;font-weight:700;}</style></defs><path class="a" d="M418.28,135h42.66l180.19-34.4a20.68,20.68,0,0,1,24,16.43l3.43,18h8.14L673,115.52v0a28.75,28.75,0,0,0-28.09-23.26,28,28,0,0,0-5.28.5h0Z"/><path class="a" d="M625.13,363.85l-9.76-53.45h-8.13l10,54.91v0a2.49,2.49,0,0,1,0,.36,1.31,1.31,0,0,1-.12.58,1.72,1.72,0,0,1-1.49,1,1.52,1.52,0,0,1-1-.39l-.05,0L540,310.4H523.83a14,14,0,0,1,6.85,3l.05,0,79,59.74h0a9.56,9.56,0,0,0,5.91,2.08,9.69,9.69,0,0,0,8.8-5.7,9.47,9.47,0,0,0,.81-3.84,9.74,9.74,0,0,0-.18-1.85Z"/><polygon class="a" points="210.64 174.64 210.65 174.64 210.65 174.64 210.64 174.64"/><path class="a" d="M520,310.4H477.21l-52,9.92-9.16,9.9,103.3-19.73h0C519.57,310.45,519.8,310.43,520,310.4Z"/><path class="a" d="M338.88,345l-.06-8.13L245,354.74h0a20.2,20.2,0,0,1-16.83-4.3A20.85,20.85,0,0,1,221,338.31l-25.1-131.7h0a21.17,21.17,0,0,1-.39-4,20.62,20.62,0,0,1,4.64-13,20.12,20.12,0,0,1,12-7.1l25.27-4.83v-8.14l-26.75,5.11A28.15,28.15,0,0,0,194,184.55a28.54,28.54,0,0,0-6.44,18.06,29.73,29.73,0,0,0,.53,5.52h0l25.1,131.7h0a28.9,28.9,0,0,0,9.94,16.78,28.19,28.19,0,0,0,23.46,6h0Z"/><path class="b" d="M719,165.7a22.7,22.7,0,0,0-22.7-22.7H269.11a22.72,22.72,0,0,0-22.7,22.7v114a22.7,22.7,0,0,0,22.7,22.7h61.5a17.11,17.11,0,0,1,17.1,17.2v0l.5,67.95v.09a2,2,0,0,0,.17.86,1.86,1.86,0,0,0,.43.59,2.3,2.3,0,0,0,1.51.58,1.94,1.94,0,0,0,.8-.17,2.23,2.23,0,0,0,.76-.58l.05-.06,72.45-78.25h0a23.5,23.5,0,0,1,17.83-8.19h254.1A22.69,22.69,0,0,0,719,279.7Z"/><text class="c" transform="translate(329.4 247)">Talk a Bit</text></svg>