<?xml version="1.0" encoding="UTF-8" standalone="no"?>
<svg
   viewBox="0 0 929.76 481.89"
   version="1.1"
   id="svg45"
   sodipodi:docname="tab_social_blue.svg"
   inkscape:version="1.2.1 (9c6d41e410, 2022-07-14)"
   xmlns:inkscape="http://www.inkscape.org/namespaces/inkscape"
   xmlns:sodipodi="http://sodipodi.sourceforge.net/DTD/sodipodi-0.dtd"
   xmlns="http://www.w3.org/2000/svg"
   xmlns:svg="http://www.w3.org/2000/svg">
  <sodipodi:namedview
     id="namedview47"
     pagecolor="#ffffff"
     bordercolor="#000000"
     borderopacity="0.25"
     inkscape:showpageshadow="2"
     inkscape:pageopacity="0.0"
     inkscape:pagecheckerboard="0"
     inkscape:deskcolor="#d1d1d1"
     showgrid="false"
     inkscape:zoom="1.6082508"
     inkscape:cx="135.55099"
     inkscape:cy="82.387645"
     inkscape:window-width="1920"
     inkscape:window-height="991"
     inkscape:window-x="2391"
     inkscape:window-y="-9"
     inkscape:window-maximized="1"
     inkscape:current-layer="svg45" />
  <defs
     id="defs31">
    <style
       id="style29">.a{fill:#212c55;}.b,.d{fill:#fff;}.c{fill:#00a9ce;}.d{isolation:isolate;font-size:54px;font-family:Poppins-Bold, Poppins;font-weight:700;letter-spacing:0.03em;}</style>
  </defs>
  <circle
     class="a"
     cx="459.52"
     cy="234.24"
     r="197.22"
     id="circle33" />
  <path
     class="b"
     d="M526.84,167.76a17.55,17.55,0,0,1,3.5-.36,17.11,17.11,0,0,1,13.54,6.69h9.94a25.69,25.69,0,0,0-23.48-15.3,26.31,26.31,0,0,0-5.26.54l-70.82,14.76h42.22Z"
     id="path35" />
  <path
     class="b"
     d="M371,295.25a16.84,16.84,0,0,1-3.5.36A17.13,17.13,0,0,1,350.7,282l-12-57.47a17.85,17.85,0,0,1-.36-3.53A17.15,17.15,0,0,1,352,204.19L351.1,200l.88,4.21,3.85-.8v-6.2a22.79,22.79,0,0,1,.16-2.63l-5.76,1.2A25.74,25.74,0,0,0,329.75,221a26.53,26.53,0,0,0,.54,5.29l12,57.46a25.67,25.67,0,0,0,30.44,20l25.57-5.32.05-8.81Z"
     id="path37" />
  <path
     class="b"
     d="M531.73,304.34a.84.84,0,0,1-.19.14,1.24,1.24,0,0,1-.49.13.51.51,0,0,1-.3-.09h0l-38.27-25.77H457.63a5.59,5.59,0,0,0-4.06,1.74L446,288.41l32.37-6.74h0a5.35,5.35,0,0,1,1.13-.12,5.58,5.58,0,0,1,3.19,1l43.2,29.09h0a9.06,9.06,0,0,0,5.15,1.59,9.68,9.68,0,0,0,6.28-2.33,9,9,0,0,0,2.16-2.77,8.09,8.09,0,0,0,.87-3.69,7.72,7.72,0,0,0-.17-1.72v0L535,278.74h-8.81Z"
     id="path39" />
  <path
     class="c"
     d="M559.76,178.32H379.12a18.8,18.8,0,0,0-18.8,18.79v58.46a18.8,18.8,0,0,0,18.8,18.8h18.67a5.08,5.08,0,0,1,5.09,5.12l-.22,36.61c0,4,5.54,5.83,8.42,2.82l39.56-41.48a9.91,9.91,0,0,1,7.17-3.07H559.76a18.8,18.8,0,0,0,18.79-18.8V197.11A18.79,18.79,0,0,0,559.76,178.32Z"
     id="path41" />
  <text
     class="d"
     id="text43"
     transform="translate(414.26 245.59)">TaB</text>
</svg>
