<?xml version="1.0" encoding="UTF-8" standalone="no"?>
<!-- Created with Inkscape (http://www.inkscape.org/) -->

<svg
   xmlns:dc="http://purl.org/dc/elements/1.1/"
   xmlns:cc="http://creativecommons.org/ns#"
   xmlns:rdf="http://www.w3.org/1999/02/22-rdf-syntax-ns#"
   xmlns:svg="http://www.w3.org/2000/svg"
   xmlns="http://www.w3.org/2000/svg"
   xmlns:sodipodi="http://sodipodi.sourceforge.net/DTD/sodipodi-0.dtd"
   xmlns:inkscape="http://www.inkscape.org/namespaces/inkscape"
   width="512"
   height="617"
   id="svg4417"
   version="1.1"
   inkscape:version="0.48.3.1 r9886"
   sodipodi:docname="New document 3">
  <defs
     id="defs4419">
    <clipPath
       clipPathUnits="userSpaceOnUse"
       id="clipPath68">
      <path
         inkscape:connector-curvature="0"
         d="m 0,5102.359 2834.65,0 L 2834.65,0 0,0 0,5102.359 z"
         id="path70" />
    </clipPath>
  </defs>
  <sodipodi:namedview
     id="base"
     pagecolor="#ffffff"
     bordercolor="#666666"
     borderopacity="1.0"
     inkscape:pageopacity="0.0"
     inkscape:pageshadow="2"
     inkscape:zoom="0.49497475"
     inkscape:cx="693.06827"
     inkscape:cy="251.31334"
     inkscape:document-units="px"
     inkscape:current-layer="layer1"
     showgrid="false"
     inkscape:window-width="1366"
     inkscape:window-height="718"
     inkscape:window-x="0"
     inkscape:window-y="1"
     inkscape:window-maximized="1" />
  <metadata
     id="metadata4422">
    <rdf:RDF>
      <cc:Work
         rdf:about="">
        <dc:format>image/svg+xml</dc:format>
        <dc:type
           rdf:resource="http://purl.org/dc/dcmitype/StillImage" />
        <dc:title></dc:title>
      </cc:Work>
    </rdf:RDF>
  </metadata>
  <g
     inkscape:label="Layer 1"
     inkscape:groupmode="layer"
     id="layer1"
     transform="translate(0,-435.36218)">
    
    <g
       id="g52"
       transform="matrix(0.33506735,0,0,-0.33506735,133.7355,903.83373)">
      <path
         inkscape:connector-curvature="0"
         d="M 0,0 -364.898,632.021 0,1264.035 l 729.791,0 L 1094.689,632.021 729.791,0 0,0 z"
         style="fill:#7d221e;fill-opacity:1;fill-rule:nonzero;stroke:none"
         id="path54" />
    </g>
    <g
       id="g56"
       transform="matrix(0.33506735,0,0,-0.33506735,44.231257,814.32756)">
      <path
         inkscape:connector-curvature="0"
         d="M 0,0 0,729.785 632.016,1094.68 1264.025,729.785 1264.031,-0.006 632.016,-364.893 0,0 z"
         style="fill:#c03331;fill-opacity:1;fill-rule:nonzero;stroke:none"
         id="path58" />
    </g>
    <g
       id="g60"
       transform="matrix(0.33506735,0,0,-0.33506735,77.993885,794.83605)">
      <path
         inkscape:connector-curvature="0"
         d="M 0,0 -0.006,613.441 531.252,920.158 1062.504,613.441 1062.51,0 531.252,-306.721 0,0 z"
         style="fill:none;stroke:#ffffff;stroke-width:25.38999939;stroke-linecap:butt;stroke-linejoin:miter;stroke-miterlimit:10;stroke-opacity:1;stroke-dasharray:none"
         id="path62" />
    </g>
    <g
       transform="matrix(0.33506735,0,0,-0.33506735,-219.09666,1665.1571)"
       id="g64">
      <g
         id="g66"
         clip-path="url(#clipPath68)">
        <g
           id="g72"
           transform="translate(1032.2002,2015.9961)">
          <path
             inkscape:connector-curvature="0"
             d="m 0,0 c -5.572,0.879 -14.391,1.465 -24.082,1.465 -20.854,0 -26.438,-14.983 -26.438,-35.836 l 0,-22.916 c 0,-20.854 5.584,-36.129 26.438,-36.129 9.691,0 18.51,0.885 24.082,1.764 L 0,0 z m 38.197,-124.846 c -16.758,-4.107 -39.668,-7.634 -62.279,-7.634 -47.584,0 -73.729,27.609 -73.729,75.193 l 0,22.916 c 0,47.584 26.145,75.193 73.729,75.193 22.611,0 45.521,-3.521 62.279,-7.634 7.922,-1.764 9.1,-3.815 9.1,-8.52 l 0,-140.994 c 0,-4.699 -1.178,-6.762 -9.1,-8.52"
             style="fill:#c03331;fill-opacity:1;fill-rule:nonzero;stroke:none"
             id="path74" />
        </g>
        <g
           id="g76"
           transform="translate(1210.8115,1986.0313)">
          <path
             inkscape:connector-curvature="0"
             d="m 0,0 c 0,21.732 -9.984,32.607 -26.437,32.607 -16.161,0 -27.03,-11.162 -27.03,-32.607 l 0,-1.178 L 0,-1.178 0,0 z m 40.242,-30.551 -93.709,0 0,-0.586 c 0,-16.752 7.055,-32.021 30.258,-32.021 18.51,0 44.654,1.47 56.391,2.642 l 0.884,0 c 3.235,0 5.584,-1.47 5.584,-4.693 l 0,-22.33 c 0,-4.699 -1.177,-6.756 -6.17,-7.928 -18.802,-4.705 -34.658,-7.049 -60.216,-7.049 -35.537,0 -73.723,18.797 -73.723,75.493 l 0,20.56 c 0,47.291 27.609,77.25 74.32,77.25 48.164,0 72.545,-32.894 72.545,-77.25 l 0,-17.039 c 0,-4.406 -2.349,-7.049 -6.164,-7.049"
             style="fill:#c03331;fill-opacity:1;fill-rule:nonzero;stroke:none"
             id="path78" />
        </g>
        <g
           id="g80"
           transform="translate(1375.0264,2018.9258)">
          <path
             inkscape:connector-curvature="0"
             d="m 0,0 -39.949,0 0,-126.598 c 0,-3.234 -2.942,-6.17 -6.17,-6.17 l -35.543,0 c -3.229,0 -6.176,2.936 -6.176,6.17 l 0,173.895 c 0,40.535 27.615,49.641 57.287,49.641 9.99,0 23.795,-1.471 32.016,-2.643 3.24,-0.586 4.406,-1.764 4.406,-3.527 l 0,-24.668 c 0,-3.235 -1.166,-4.705 -4.107,-4.705 l -30.557,0 c -9.105,0 -11.156,-5.584 -11.156,-14.098 l 0,-11.754 39.949,0 c 3.229,0 5.871,-2.643 5.871,-5.871 l 0,-23.795 C 5.871,2.643 3.229,0 0,0"
             style="fill:#c03331;fill-opacity:1;fill-rule:nonzero;stroke:none"
             id="path82" />
        </g>
        <g
           id="g84"
           transform="translate(1501.9229,1986.0313)">
          <path
             inkscape:connector-curvature="0"
             d="M 0,0 C 0,21.732 -9.984,32.607 -26.426,32.607 -42.58,32.607 -53.455,21.445 -53.455,0 l 0,-1.178 L 0,-1.178 0,0 z m 40.248,-30.551 -93.703,0 0,-0.586 c 0,-16.752 7.049,-32.021 30.252,-32.021 18.504,0 44.648,1.47 56.402,2.642 l 0.885,0 c 3.223,0 5.566,-1.47 5.566,-4.693 l 0,-22.33 c 0,-4.699 -1.166,-6.756 -6.164,-7.928 -18.797,-4.705 -34.658,-7.049 -60.211,-7.049 -35.548,0 -73.734,18.797 -73.734,75.493 l 0,20.56 c 0,47.291 27.615,77.25 74.314,77.25 48.176,0 72.563,-32.894 72.563,-77.25 l 0,-17.039 c 0,-4.406 -2.35,-7.049 -6.17,-7.049"
             style="fill:#c03331;fill-opacity:1;fill-rule:nonzero;stroke:none"
             id="path86" />
        </g>
        <g
           id="g88"
           transform="translate(1652.0459,1883.5156)">
          <path
             inkscape:connector-curvature="0"
             d="M 0,0 -4.119,0 C -22.623,0 -74.32,5.578 -74.32,74.607 l 0,90.176 c 0,3.235 2.355,6.17 5.578,6.17 l 36.129,0 c 3.228,0 5.888,-2.935 5.888,-6.17 l 0,-90.176 c 0,-27.908 8.801,-34.365 22.606,-34.365 l 4.119,0 c 13.805,0 22.611,6.457 22.611,34.365 l 0,90.176 c 0,3.235 2.649,6.17 5.883,6.17 l 36.129,0 c 3.223,0 5.572,-2.935 5.572,-6.17 l 0,-90.176 C 70.195,5.578 18.504,0 0,0"
             style="fill:#c03331;fill-opacity:1;fill-rule:nonzero;stroke:none"
             id="path90" />
        </g>
        <g
           id="g92"
           transform="translate(1853.8545,1981.625)">
          <path
             inkscape:connector-curvature="0"
             d="m 0,0 c 0,20.854 -5.285,35.836 -26.145,35.836 -9.691,0 -18.503,-0.586 -24.087,-1.465 l 0,-91.652 c 7.048,-0.879 17.039,-1.764 24.087,-1.764 20.86,0 26.145,15.563 26.145,36.129 L 0,0 z m -26.145,-98.109 c -5.871,0 -15.568,0.884 -24.087,2.056 l 0,-50.818 c 0,-3.234 -2.643,-5.883 -5.872,-5.883 l -35.548,0 c -3.235,0 -6.164,2.649 -6.164,5.883 l 0,205.91 c 0,4.705 1.177,6.756 9.099,8.52 16.752,4.113 39.949,7.634 62.572,7.634 47.59,0 73.729,-27.609 73.729,-75.193 l 0,-22.916 c 0,-46.119 -24.088,-75.193 -73.729,-75.193"
             style="fill:#c03331;fill-opacity:1;fill-rule:nonzero;stroke:none"
             id="path94" />
        </g>
        <g
           id="g96"
           transform="translate(1502.6963,2606.1523)">
          <path
             inkscape:connector-curvature="0"
             d="m 0,0 -94.682,0 c -7.775,0 -12.726,6.357 -12.726,14.127 l 0,315.164 c 0,79.148 -26.145,98.232 -84.088,98.232 -28.975,0 -60.779,-1.418 -82.688,-4.248 l 0,-409.148 C -274.184,6.357 -279.832,0 -287.602,0 l -93.99,0 c -7.769,0 -13.424,6.357 -13.424,14.127 l 0,461.449 c 0,31.797 8.479,39.572 36.036,43.807 37.453,5.654 118.013,12.019 154.06,12.019 137.08,0 218.356,-38.16 218.356,-202.111 l 0,-315.164 C 13.436,6.357 7.775,0 0,0"
             style="fill:#7d221e;fill-opacity:1;fill-rule:nonzero;stroke:none"
             id="path98" />
        </g>
        <g
           id="g100"
           transform="translate(1711.1787,2606.1523)">
          <path
             inkscape:connector-curvature="0"
             d="m 0,0 -86.209,0 c -7.775,0 -14.139,6.357 -14.139,14.127 l 0,376.652 c 0,7.776 6.364,14.127 14.139,14.127 l 86.209,0 c 7.77,0 14.133,-6.351 14.133,-14.127 l 0,-376.652 C 14.133,6.357 7.77,0 0,0 m 2.824,450.838 -91.863,0 c -7.775,0 -14.133,6.357 -14.133,14.133 l 0,65.72 c 0,7.776 6.358,14.133 14.133,14.133 l 91.863,0 c 7.776,0 14.139,-6.357 14.139,-14.133 l 0,-65.72 c 0,-7.776 -6.363,-14.133 -14.139,-14.133"
             style="fill:#7d221e;fill-opacity:1;fill-rule:nonzero;stroke:none"
             id="path102" />
        </g>
        <g
           id="g104"
           transform="translate(1502.6963,2631.7617)">
          <path
             inkscape:connector-curvature="0"
             d="m 0,0 -94.682,0 c -7.775,0 -12.726,6.355 -12.726,14.133 l 0,315.164 c 0,79.14 -26.145,98.226 -84.088,98.226 -28.975,0 -60.779,-1.416 -82.688,-4.24 l 0,-409.15 C -274.184,6.355 -279.832,0 -287.602,0 l -93.99,0 c -7.769,0 -13.424,6.355 -13.424,14.133 l 0,461.445 c 0,31.799 8.479,39.57 36.036,43.809 37.453,5.65 118.013,12.019 154.06,12.019 137.08,0 218.356,-38.164 218.356,-202.109 l 0,-315.164 C 13.436,6.355 7.775,0 0,0"
             style="fill:#ffffff;fill-opacity:1;fill-rule:nonzero;stroke:none"
             id="path106" />
        </g>
        <g
           id="g108"
           transform="translate(1711.1787,2631.7617)">
          <path
             inkscape:connector-curvature="0"
             d="m 0,0 -86.209,0 c -7.775,0 -14.139,6.355 -14.139,14.133 l 0,376.644 c 0,7.778 6.364,14.133 14.139,14.133 l 86.209,0 c 7.77,0 14.133,-6.355 14.133,-14.133 l 0,-376.644 C 14.133,6.355 7.77,0 0,0 m 2.824,450.844 -91.863,0 c -7.775,0 -14.133,6.355 -14.133,14.129 l 0,65.718 c 0,7.776 6.358,14.129 14.133,14.129 l 91.863,0 c 7.776,0 14.139,-6.353 14.139,-14.129 l 0,-65.718 c 0,-7.774 -6.363,-14.129 -14.139,-14.129"
             style="fill:#ffffff;fill-opacity:1;fill-rule:nonzero;stroke:none"
             id="path110" />
        </g>
      </g>
    </g>
  </g>
</svg>
