<?xml version="1.0" standalone="no"?>
<!DOCTYPE svg PUBLIC "-//W3C//DTD SVG 1.1//EN" "http://www.w3.org/Graphics/SVG/1.1/DTD/svg11.dtd" >
<svg xmlns="http://www.w3.org/2000/svg">
<metadata>
This is a custom SVG webfont generated by Font Squirrel.
Designer    : Ramiz Guseynov
Foundry     : Ramiz Guseynov
</metadata>
<defs>
<font id="webfont75boeeA4" horiz-adv-x="494" >
<font-face units-per-em="1000" ascent="750" descent="-250" />
<missing-glyph horiz-adv-x="220" />
<glyph unicode=" "  horiz-adv-x="220" />
<glyph unicode="&#x09;" horiz-adv-x="220" />
<glyph unicode="&#xa0;" horiz-adv-x="220" />
<glyph unicode="!" horiz-adv-x="296" d="M80 0v136h136v-136h-136zM85 204v496h125v-496h-125z" />
<glyph unicode="&#x22;" horiz-adv-x="419" d="M70 474v236h112l-39 -236h-73zM237 474v236h112l-40 -236h-72z" />
<glyph unicode="#" horiz-adv-x="638" d="M544 288v-114h-91l-25 -174h-118l26 174h-77l-25 -174h-116l25 174h-78v114h93l15 98h-79v114h94l31 201h116l-31 -201h77l30 201h117l-31 -201h76v-114h-91l-14 -98h76zM275 288h76l14 98h-77z" />
<glyph unicode="$" horiz-adv-x="512" d="M189 -47v47q-63 17 -102.5 68.5t-39.5 117.5v43h125v-43q0 -30 21 -51.5t51 -21.5h11q30 0 51 19.5t21 46.5q0 38 -28 68.5t-67.5 53t-79.5 48t-68 68t-28 99.5q0 61 37.5 110.5t95.5 70.5v51h121v-50q61 -19 97.5 -73t36.5 -135h-125q0 45 -18.5 70.5t-49.5 25.5 q-30 0 -49.5 -19t-19.5 -46q0 -29 28 -53.5t67.5 -46t79 -49t67.5 -75.5t28 -111q0 -68 -39.5 -119t-102.5 -67v-47h-121z" />
<glyph unicode="%" horiz-adv-x="1007" d="M392 542v-122q0 -68 -47 -114t-113 -46h-7q-66 0 -113 47t-47 113v122q0 66 47 113t113 47h7q65 0 112.5 -47t47.5 -113zM274 409v143q0 18 -14.5 31t-32.5 13t-31.5 -13t-13.5 -31v-142q0 -18 14 -31.5t33 -13.5q17 0 31 13t14 31zM942 272v-121q0 -67 -47.5 -114 t-113.5 -47h-7q-65 0 -112 47.5t-47 113.5v121q0 67 47 113.5t112 46.5h7q67 0 114 -46t47 -114zM824 140v143q0 18 -14.5 31t-33.5 13q-17 0 -30.5 -13t-13.5 -31v-142q0 -19 13.5 -32t32.5 -13q18 0 32 13t14 31zM261 0l364 701h124l-362 -701h-126z" />
<glyph unicode="&#x26;" horiz-adv-x="519" d="M415 700v-100h-220l121 -274l53 -147v146h110v-145q0 -29 -13.5 -62.5t-33.5 -56.5l29 -61h-118l-6 11q-31 -21 -83 -21h-6q-81 0 -138.5 56t-57.5 135v144q0 93 82 143l-53 116v116h334zM252 90q28 0 43 12l-117 265q-16 -23 -16 -43v-144q0 -37 26 -63.5t64 -26.5z" />
<glyph unicode="'" horiz-adv-x="252" d="M70 474v236h112l-39 -236h-73z" />
<glyph unicode="(" horiz-adv-x="358" d="M308 -75v-116q-96 0 -159.5 56.5t-63.5 137.5v515q0 80 63.5 136t159.5 56v-117q-45 0 -73 -21t-28 -52v-522q0 -32 28 -52.5t73 -20.5z" />
<glyph unicode=")" horiz-adv-x="358" d="M85 -190v116q45 0 73 20.5t28 52.5v521q0 31 -28.5 52t-72.5 21v117q95 0 159 -56t64 -136v-514q0 -80 -64 -137t-159 -57z" />
<glyph unicode="*" horiz-adv-x="427" d="M166 700h94v-75l78 24l29 -86l-79 -30l49 -64l-77 -53l-46 61l-40 -61l-79 50l41 65l-76 24l30 90l76 -24v79z" />
<glyph unicode="+" horiz-adv-x="589" d="M232 500h125v-165h167v-120h-167v-168h-125v168h-167v120h167v165z" />
<glyph unicode="," horiz-adv-x="266" d="M65 0v136h136v-108l-46 -148h-81l35 120h-44z" />
<glyph unicode="-" horiz-adv-x="408" d="M343 334v-117h-278v117h278z" />
<glyph unicode="." horiz-adv-x="266" d="M65 0v136h136v-136h-136z" />
<glyph unicode="/" horiz-adv-x="437" d="M20 0l271 700h126l-272 -700h-125z" />
<glyph unicode="0" horiz-adv-x="517" d="M445 508v-324q0 -80 -55.5 -137t-134.5 -57h-8q-80 0 -134.5 57t-54.5 138v323q0 81 54.5 137.5t134.5 56.5h8q79 0 134.5 -57t55.5 -137zM320 179v333q0 32 -20 53.5t-49 21.5t-49 -22t-20 -53v-332q0 -31 20.5 -52.5t49.5 -21.5t48.5 21t19.5 52z" />
<glyph unicode="1" horiz-adv-x="336" d="M7 585v115h211v-700h-125v585h-86z" />
<glyph unicode="2" horiz-adv-x="504" d="M169 491h-123q0 99 58 159t143 60q84 0 141 -55t57 -138q0 -53 -28.5 -102.5t-68.5 -86.5l-82 -71q-41 -34 -70.5 -70.5t-31.5 -71.5h281v-115h-407v91q0 52 21 99.5t52 80.5t68 67l68 60q31 27 52 60.5t21 66.5q0 29 -22 49.5t-52 20.5q-33 0 -55 -29t-22 -75z" />
<glyph unicode="3" horiz-adv-x="476" d="M64 585v115h352v-95l-94 -126q47 -18 78.5 -62t31.5 -99v-133q0 -81 -58 -138t-141 -57h-5q-83 0 -141 57t-58 137v23h125v-24q0 -31 22.5 -52t54.5 -21q31 0 52.5 21t21.5 53v133q0 21 -14 36t-35 15h-94v99l84 118h-182z" />
<glyph unicode="4" horiz-adv-x="528" d="M29 137v124l212 439h136l-213 -447h130v163h125v-163h53v-116h-53v-137h-125v137h-265z" />
<glyph unicode="5" horiz-adv-x="512" d="M48 184v20h125v-25q0 -31 22.5 -52t54.5 -21q31 0 53 21.5t22 52.5v116q0 31 -22 52.5t-53 21.5q-29 0 -47.5 -17.5t-23.5 -38.5l-113 31l31 355h331v-115h-216l-10 -111q23 13 53 13q83 0 139 -55.5t56 -136.5v-110q0 -81 -57.5 -138t-140.5 -57h-6q-82 0 -140 57 t-58 137z" />
<glyph unicode="6" horiz-adv-x="529" d="M183 520v-70q33 26 80 26q82 0 140 -56t58 -135v-102q0 -80 -58 -136.5t-140 -56.5h-7q-83 0 -140.5 56t-57.5 136v335q0 80 56.5 136.5t138.5 56.5h5q84 0 140 -54t56 -141h-125q0 37 -21 58.5t-53 21.5q-30 0 -51 -21.5t-21 -53.5zM260 361q-32 0 -54.5 -21.5 t-22.5 -52.5v-109q0 -30 22.5 -51t54.5 -21q31 0 53 21t22 51v109q0 31 -22 52.5t-53 21.5z" />
<glyph unicode="7" horiz-adv-x="425" d="M235 0h-125q0 100 30 215.5t69.5 222.5t47.5 147h-248v115h375v-90q0 -37 -23.5 -110.5t-51 -147.5t-51 -172.5t-23.5 -179.5z" />
<glyph unicode="8" horiz-adv-x="533" d="M451 529v-40q0 -75 -47 -123q57 -54 57 -135v-49q0 -80 -57.5 -136t-139.5 -56h-8q-83 0 -140.5 56.5t-57.5 136.5v48q0 80 58 135q-48 53 -48 124v39q0 75 54.5 128t132.5 53h9q78 0 132.5 -53t54.5 -128zM335 179v51q0 31 -22 52.5t-53 21.5t-53.5 -21.5t-22.5 -52.5 v-51q0 -31 22.5 -52t55.5 -21q30 0 51.5 21t21.5 52zM327 484v42q0 29 -19.5 49t-48.5 20t-48 -20t-19 -49v-42q0 -27 18.5 -46t46.5 -19h8q26 0 44 18.5t18 46.5z" />
<glyph unicode="9" horiz-adv-x="529" d="M336 180v70q-33 -26 -80 -26q-82 0 -140 56t-58 135v102q0 80 58 136.5t140 56.5h7q83 0 140.5 -56t57.5 -136v-335q0 -80 -56.5 -136.5t-138.5 -56.5h-5q-84 0 -140 54t-56 141h125q0 -37 21 -58.5t53 -21.5q30 0 51 21.5t21 53.5zM259 339q32 0 54.5 21.5t22.5 52.5 v109q0 30 -22.5 51t-54.5 21q-31 0 -53 -21t-22 -51v-109q0 -31 22 -52.5t53 -21.5z" />
<glyph unicode=":" horiz-adv-x="266" d="M65 0v136h136v-136h-136zM65 364v136h136v-136h-136z" />
<glyph unicode=";" horiz-adv-x="266" d="M65 364v136h136v-136h-136zM65 0v136h136v-108l-46 -148h-81l35 120h-44z" />
<glyph unicode="&#x3c;" horiz-adv-x="567" d="M65 239v97l437 190v-129l-265 -110l265 -109v-129z" />
<glyph unicode="=" horiz-adv-x="588" d="M523 235v-117h-458v117h458zM523 435v-118h-458v118h458z" />
<glyph unicode="&#x3e;" horiz-adv-x="567" d="M502 336v-97l-437 -190v130l265 108l-265 109v130z" />
<glyph unicode="?" horiz-adv-x="500" d="M165 497h-125q0 99 57 156t143 57t143 -52.5t57 -138.5q0 -43 -15.5 -73.5t-38 -50t-44.5 -41t-37.5 -59t-15.5 -91.5h-125q0 55 11 97.5t27.5 65.5t35.5 43t35.5 33.5t27.5 34.5t11 47q0 29 -21 49.5t-51 20.5q-33 0 -54 -26.5t-21 -71.5zM157 0v137h141v-137h-141z" />
<glyph unicode="@" horiz-adv-x="730" d="M402 331v-164q0 -25 20 -44t48 -19q29 0 50 19t21 44v164q0 26 -20.5 45t-49.5 19q-28 0 -48.5 -19t-20.5 -45zM465 509q46 0 71 -15q-9 40 -52 69.5t-100 29.5h-36q-62 0 -109.5 -43.5t-47.5 -96.5v-388q0 -52 37.5 -90t90.5 -38h41v-117h-39q-104 0 -177.5 72.5 t-73.5 172.5v388q0 101 83.5 179t194.5 78h36q110 0 193 -71t83 -172v-467h-119v28q-22 -38 -84 -38q-73 0 -124 50t-51 122v173q0 73 52 123.5t131 50.5z" />
<glyph unicode="A" horiz-adv-x="558" d="M179 700h200l109 -394v-306h-124v208h-170v-208h-124v306zM353 325l-63 258h-22l-63 -258h148z" />
<glyph unicode="B" horiz-adv-x="534" d="M280 700q79 0 130.5 -47t51.5 -117v-58q0 -55 -45 -109q52 -54 52 -119v-75q0 -76 -57 -125.5t-135 -49.5h-197v700h200zM281 583h-73v-158h73q23 0 39.5 14.5t16.5 34.5v60q0 20 -16.5 34.5t-39.5 14.5zM208 308v-191h69q27 0 45 17t18 41v74q0 19 -16.5 39t-46.5 20 h-69z" />
<glyph unicode="C" horiz-adv-x="545" d="M485 218v-32q0 -81 -59 -138.5t-145 -57.5h-4q-86 0 -146.5 58t-60.5 139v327q0 81 60.5 138.5t146.5 57.5h4q88 0 146 -58t58 -149h-126q0 40 -23 65t-56 25q-34 0 -57.5 -21t-23.5 -52v-339q0 -31 23.5 -52.5t57.5 -21.5q32 0 55.5 21t23.5 52v38h126z" />
<glyph unicode="D" horiz-adv-x="557" d="M487 505v-310q0 -81 -60 -138t-145 -57h-202v700h202q85 0 145 -57t60 -138zM357 190v319q0 31 -22.5 52.5t-55.5 21.5h-73v-466h73q33 0 55.5 21t22.5 52z" />
<glyph unicode="E" horiz-adv-x="514" d="M80 700h376v-117h-250v-159h228v-117h-228v-190h258v-117h-384v700z" />
<glyph unicode="F" horiz-adv-x="497" d="M80 700h377v-117h-250v-155h226v-121h-226v-307h-127v700z" />
<glyph unicode="G" horiz-adv-x="563" d="M498 378v-192q0 -81 -59.5 -138.5t-145.5 -57.5h-16q-85 0 -146 58t-61 139v327q0 80 61 138t146 58h16q87 0 146 -58t59 -149h-127q0 40 -23.5 64.5t-58.5 24.5h-10q-34 0 -58 -21t-24 -52v-338q0 -31 24 -52.5t58 -21.5h10q34 0 58 21t24 52v82h-87v116h214z" />
<glyph unicode="H" horiz-adv-x="578" d="M372 700h126v-700h-126v307h-167v-307h-125v700h125v-274h167v274z" />
<glyph unicode="I" horiz-adv-x="288" d="M208 700v-700h-128v700h128z" />
<glyph unicode="J" horiz-adv-x="485" d="M283 700h127v-535q0 -73 -52 -124t-129 -51q-76 0 -130 51t-54 124v103h127v-112q0 -21 16.5 -35t38.5 -14q23 0 39.5 14t16.5 35v544z" />
<glyph unicode="K" horiz-adv-x="587" d="M556 700l-205 -334l216 -366h-148l-216 370l206 330h147zM207 700v-700h-127v700h127z" />
<glyph unicode="L" horiz-adv-x="446" d="M80 700h127v-583h219v-117h-346v700z" />
<glyph unicode="M" horiz-adv-x="666" d="M445 700h141v-700h-124v416l7 90h-4l-82 -197h-100l-82 197h-4l7 -90v-416h-124v700h141l110 -258h4z" />
<glyph unicode="N" horiz-adv-x="578" d="M374 700h124v-700h-131l-130 335l-36 112h-4l7 -116v-331h-124v700h131l129 -331l37 -116h4l-7 117v330z" />
<glyph unicode="O" horiz-adv-x="567" d="M497 514v-328q0 -81 -60 -138.5t-145 -57.5h-16q-85 0 -145.5 58t-60.5 139v327q0 81 60.5 138.5t145.5 57.5h16q85 0 145 -57.5t60 -138.5zM371 180v340q0 31 -24 52t-57 21h-11q-33 0 -57.5 -21.5t-24.5 -51.5v-339q0 -31 24.5 -52.5t57.5 -21.5h10q33 0 57.5 21.5 t24.5 51.5z" />
<glyph unicode="P" horiz-adv-x="515" d="M80 0v700h207q74 0 126 -49.5t52 -119.5v-134q0 -72 -51.5 -121t-126.5 -49h-79v-227h-128zM335 389v147q0 20 -15 33.5t-37 13.5h-75v-240h75q22 0 37 13.5t15 32.5z" />
<glyph unicode="Q" horiz-adv-x="576" d="M496 514v-328q0 -46 -21 -86l47 -47l-78 -75l-42 44q-45 -32 -112 -32h-15q-86 0 -146 58t-60 139v327q0 81 60 138.5t146 57.5h15q86 0 146 -57.5t60 -138.5zM277 244q48 0 93 -42v314q0 32 -24.5 54.5t-58.5 22.5h-10q-34 0 -57.5 -22.5t-23.5 -54.5v-296q41 24 81 24z M277 106q29 0 44 7q-13 15 -33.5 27t-37.5 12q-24 0 -40 -12q10 -15 30 -24.5t37 -9.5z" />
<glyph unicode="R" horiz-adv-x="548" d="M360 0l-102 238h-52v-238h-126v700h207q74 0 126 -49.5t52 -119.5v-125q0 -43 -22.5 -81.5t-59.5 -61.5l115 -263h-138zM336 402v134q0 19 -15 33t-36 14h-79v-228h79q21 0 36 14t15 33z" />
<glyph unicode="S" horiz-adv-x="539" d="M475 503h-126q0 38 -22.5 64t-55.5 26q-32 0 -55 -20t-23 -49q0 -31 30 -56.5t72.5 -47t85.5 -48.5t73 -74.5t30 -111.5q0 -81 -60 -138.5t-146 -57.5h-16q-86 0 -146.5 57.5t-60.5 138.5v32h127v-32q0 -32 24 -55.5t58 -23.5h11q33 0 57 22t24 50q0 39 -30 68t-72.5 50 t-85 45.5t-72.5 68t-30 104.5q0 83 59.5 139t145.5 56q87 0 145.5 -57.5t58.5 -149.5z" />
<glyph unicode="T" horiz-adv-x="463" d="M25 583v117h413v-117h-143v-583h-128v583h-142z" />
<glyph unicode="U" horiz-adv-x="580" d="M377 700h128v-514q0 -81 -60.5 -138.5t-146.5 -57.5h-16q-86 0 -146.5 58t-60.5 139v513h127v-516q0 -32 24.5 -54.5t58.5 -22.5h10q34 0 58 22.5t24 53.5v517z" />
<glyph unicode="V" horiz-adv-x="558" d="M196 700v-290l76 -295h14l76 295v290h126v-306l-117 -394h-184l-117 394v306h126z" />
<glyph unicode="W" horiz-adv-x="729" d="M528 407v293h126v-304l-55 -396h-176l-53 283h-11l-53 -283h-176l-55 396v304h126v-293l23 -265h12l58 278h141l58 -278h12z" />
<glyph unicode="X" horiz-adv-x="565" d="M190 700l93 -206l93 206h140l-163 -335l177 -365h-141l-106 231l-107 -231h-141l177 365l-162 335h140z" />
<glyph unicode="Y" horiz-adv-x="548" d="M164 700l110 -228l109 228h140l-185 -372v-328h-129v328l-184 372h139z" />
<glyph unicode="Z" horiz-adv-x="528" d="M471 585l-266 -468h268v-117h-418v116l268 467h-253v117h401v-115z" />
<glyph unicode="[" horiz-adv-x="353" d="M308 -65v-115h-223v881h223v-115h-101v-651h101z" />
<glyph unicode="\" horiz-adv-x="432" d="M146 700l266 -700h-125l-267 700h126z" />
<glyph unicode="]" horiz-adv-x="353" d="M45 -180v115h101v650h-101v115h223v-880h-223z" />
<glyph unicode="^" horiz-adv-x="514" d="M205 700h95l151 -375h-120l-79 212h-4l-75 -212h-120z" />
<glyph unicode="_" horiz-adv-x="491" d="M0 -53h491v-97h-491v97z" />
<glyph unicode="`" horiz-adv-x="272" d="M272 555h-115l-158 155h154z" />
<glyph unicode="a" d="M324 0v38q-44 -46 -127 -46q-59 0 -105.5 45t-46.5 111t50.5 109t121.5 49l97 7v31q0 25 -20 44t-47 19q-24 0 -41.5 -15.5t-20.5 -40.5h-118q9 71 57.5 115t122.5 44q85 0 133.5 -48.5t48.5 -122.5v-339h-105zM222 89q33 0 62.5 21t29.5 42v64l-92 -6q-26 -2 -43 -18.5 t-17 -41.5q0 -23 17.5 -42t42.5 -19z" />
<glyph unicode="b" horiz-adv-x="508" d="M70 0v700h117v-219q37 29 90 29q69 0 120 -51t51 -121v-176q0 -72 -48.5 -121t-120.5 -49q-64 0 -104 42v-34h-105zM331 160v180q0 26 -21 45.5t-51 19.5q-29 0 -50.5 -19.5t-21.5 -45.5v-180q0 -26 22 -45.5t51 -19.5t50 19.5t21 45.5z" />
<glyph unicode="c" horiz-adv-x="490" d="M177 341v-182q0 -26 20.5 -45.5t48.5 -19.5q31 0 51 23.5t20 63.5h118q0 -89 -52 -140t-137 -51q-82 0 -134 49t-52 122v178q0 73 51.5 122t133.5 49q84 0 135 -51t51 -137h-115q0 38 -20 61t-51 23q-28 0 -48 -19.5t-20 -45.5z" />
<glyph unicode="d" horiz-adv-x="508" d="M438 700v-700h-105v34q-40 -42 -104 -42q-72 0 -120.5 49t-48.5 121v176q0 70 51 121t120 51q53 0 90 -29v219h117zM177 340v-180q0 -26 21 -45.5t50 -19.5t51 19.5t22 45.5v180q0 26 -21.5 45.5t-50.5 19.5q-30 0 -51 -19.5t-21 -45.5z" />
<glyph unicode="e" d="M316 147h118q-8 -71 -61 -114t-127 -43q-82 0 -134 49t-52 122v178q0 72 52.5 121.5t134.5 49.5t134 -47.5t52 -119.5v-133h-256v-51q0 -26 20.5 -45.5t48.5 -19.5q51 0 68 47zM177 343v-33h141v33q0 26 -20.5 45.5t-50.5 19.5q-28 0 -49 -19.5t-21 -45.5z" />
<glyph unicode="f" horiz-adv-x="363" d="M30 395v105h64v62q0 62 43.5 105t106.5 43q56 0 114 -39l-67 -88q-32 22 -47 22t-24 -9.5t-9 -24.5v-71h114v-105h-114v-395h-117v395h-64z" />
<glyph unicode="g" horiz-adv-x="466" d="M210 28q-45 29 -45 78v35q-50 17 -82.5 58t-32.5 88v60q0 66 51.5 114.5t120.5 48.5q29 0 64 -14q24 35 50 50t79 15v-105q-32 0 -50 -24q26 -32 26 -85v-60q0 -50 -32.5 -91t-83.5 -57q-1 -5 -1 -10q0 -16 14 -25l81 -50q67 -41 67 -106q0 -47 -33.5 -79.5t-78 -45.5 t-94.5 -13q-83 0 -141.5 34.5t-58.5 104.5v15h116v-15q0 -15 25.5 -25.5t58.5 -10.5q37 0 63 10.5t26 25.5q0 12 -12 19zM275 283v71q0 21 -16 36t-37 15q-23 0 -39 -14.5t-16 -36.5v-71q0 -22 16 -36.5t39 -14.5q21 0 37 15t16 36z" />
<glyph unicode="h" horiz-adv-x="513" d="M331 0v338q0 26 -20.5 46.5t-48.5 20.5q-32 0 -53.5 -20.5t-21.5 -45.5v-339h-117v700h117v-229q41 39 95 39q71 0 118.5 -50.5t47.5 -121.5v-338h-117z" />
<glyph unicode="i" horiz-adv-x="267" d="M70 572v128h127v-128h-127zM74 0v500h118v-500h-118z" />
<glyph unicode="j" horiz-adv-x="263" d="M70 572v128h128v-128h-128zM193 500v-543q0 -62 -43 -104.5t-105 -42.5q-50 0 -115 46l68 92q32 -26 47 -26q13 0 22 9.5t9 23.5v545h117z" />
<glyph unicode="k" horiz-adv-x="507" d="M70 0v700h117v-700h-117zM348 0l-161 262l148 238h143l-155 -240l169 -260h-144z" />
<glyph unicode="l" horiz-adv-x="258" d="M70 0v700h118v-700h-118z" />
<glyph unicode="m" horiz-adv-x="734" d="M551 0v348q0 24 -17 40.5t-39 16.5q-24 0 -46 -20t-22 -42v-343h-117v348q0 24 -17 40.5t-38 16.5q-27 0 -47.5 -19.5t-20.5 -42.5v-343h-117v500h111v-34q17 19 45 30.5t54 11.5q58 0 101 -41q51 41 124 41q67 0 115.5 -46.5t48.5 -115.5v-346h-118z" />
<glyph unicode="n" horiz-adv-x="513" d="M331 0v338q0 26 -20.5 46.5t-48.5 20.5q-32 0 -53.5 -20t-21.5 -46v-339h-117v500h111v-35q38 43 102 43q70 0 117.5 -49.5t47.5 -121.5v-337h-117z" />
<glyph unicode="o" d="M434 339v-178q0 -73 -51.5 -122t-134.5 -49q-84 0 -136 49t-52 122v178q0 73 52 122t136 49q83 0 134.5 -49t51.5 -122zM316 160v180q0 26 -19.5 45.5t-49.5 19.5q-28 0 -49 -19.5t-21 -45.5v-180q0 -26 21 -45.5t50 -19.5t48.5 19.5t19.5 45.5z" />
<glyph unicode="p" horiz-adv-x="513" d="M70 -180v680h105v-34q40 42 104 42q72 0 120.5 -49t48.5 -121v-176q0 -70 -51 -121t-120 -51q-53 0 -90 29v-199h-117zM331 160v180q0 26 -21 45.5t-50 19.5t-51 -19.5t-22 -45.5v-180q0 -26 21.5 -45.5t50.5 -19.5q30 0 51 19.5t21 45.5z" />
<glyph unicode="q" horiz-adv-x="513" d="M443 500v-680h-117v199q-37 -29 -90 -29q-69 0 -120 51t-51 121v176q0 72 48.5 121t120.5 49q64 0 104 -42v34h105zM182 340v-180q0 -26 21 -45.5t51 -19.5q29 0 50.5 19.5t21.5 45.5v180q0 26 -22 45.5t-51 19.5t-50 -19.5t-21 -45.5z" />
<glyph unicode="r" horiz-adv-x="349" d="M344 496l-25 -102q-15 11 -53 11q-30 0 -54.5 -22.5t-24.5 -50.5v-332h-117v500h112v-35q14 18 40.5 30.5t48.5 12.5q21 0 39 -3t26 -6z" />
<glyph unicode="s" horiz-adv-x="448" d="M400 342h-116q0 28 -16.5 46t-40.5 18q-21 0 -36.5 -13.5t-15.5 -31.5t23.5 -31.5t57 -25t67 -28t57 -50t23.5 -81.5q0 -63 -52.5 -109t-121.5 -46h-8q-76 0 -126 50t-50 116v11h117v-8q0 -25 17 -44.5t45 -19.5h5q29 0 42 13.5t13 32.5q0 22 -23 38t-56.5 29t-66.5 29 t-56 47.5t-23 75.5q0 66 50 108t120 42q81 0 126 -51.5t45 -116.5z" />
<glyph unicode="t" horiz-adv-x="430" d="M30 395v105h66v130h117v-130h156v-105h-156v-268q0 -13 11 -22.5t26 -9.5q13 0 23.5 8t10.5 19v31h116v-22q0 -56 -45 -98.5t-105 -42.5q-64 0 -109 43t-45 105v257h-66z" />
<glyph unicode="u" horiz-adv-x="513" d="M182 500v-338q0 -26 20.5 -46.5t48.5 -20.5q32 0 53.5 20t21.5 46v339h117v-500h-105v34q-42 -42 -105 -42q-72 0 -120 49.5t-48 121.5v337h117z" />
<glyph unicode="v" horiz-adv-x="473" d="M167 500v-192l64 -207h10l65 207v192h117v-196l-102 -304h-169l-102 304v196h117z" />
<glyph unicode="w" horiz-adv-x="668" d="M487 312v188h116v-204l-53 -296h-163l-48 219h-10l-52 -219h-159l-53 296v204h116v-188l22 -202h11l57 225h126l56 -225h11z" />
<glyph unicode="x" horiz-adv-x="467" d="M163 500l71 -133l70 133h134l-137 -244l141 -256h-131l-77 143l-77 -143h-132l141 256l-136 244h133z" />
<glyph unicode="y" horiz-adv-x="503" d="M145 500l106 -316l107 316h125l-248 -679h-119l76 208l-172 471h125z" />
<glyph unicode="z" horiz-adv-x="448" d="M394 399l-204 -294h208v-105h-348v99l204 296h-192v105h332v-101z" />
<glyph unicode="{" horiz-adv-x="362" d="M312 -74v-116q-93 0 -158 56t-65 136v163q0 17 -14 28t-35 11v113q21 0 35 11.5t14 27.5v163q0 79 65 134.5t158 55.5v-117q-43 0 -72.5 -22t-29.5 -52v-175q0 -48 -37 -83q37 -35 37 -83v-176q0 -32 29.5 -53.5t72.5 -21.5z" />
<glyph unicode="|" horiz-adv-x="283" d="M80 -180v880h123v-880h-123z" />
<glyph unicode="}" horiz-adv-x="362" d="M50 -190v116q44 0 73 21.5t29 53.5v176q0 48 37 83q-37 39 -37 83v175q0 30 -29 52t-73 22v117q93 0 158 -55.5t65 -134.5v-163q0 -16 14 -27.5t35 -11.5v-113q-21 0 -35 -11t-14 -28v-163q0 -80 -65 -136t-158 -56z" />
<glyph unicode="~" horiz-adv-x="611" d="M175 200h-110q2 61 45 110t104 49q37 0 102.5 -25.5t80.5 -25.5q29 0 38 43h111q-2 -60 -45 -109t-104 -49q-38 0 -104 25.5t-79 25.5q-15 0 -25.5 -13.5t-13.5 -30.5z" />
<glyph unicode="&#xa1;" horiz-adv-x="296" d="M80 363v136h136v-136h-136zM85 -201v496h125v-496h-125z" />
<glyph unicode="&#xa2;" horiz-adv-x="496" d="M191 -47v44q-59 15 -95 60.5t-36 104.5v178q0 58 36 102.5t95 60.5v44h120v-46q56 -20 88.5 -67t32.5 -112h-116q0 36 -20 59.5t-48 23.5q-29 0 -50 -19.5t-21 -45.5v-182q0 -26 21 -45t50 -19t49.5 25t20.5 62h118q0 -69 -34 -117.5t-91 -65.5v-45h-120z" />
<glyph unicode="&#xa3;" horiz-adv-x="528" d="M468 115v-115h-388v115h32v146h-62v115h62v162q0 72 51.5 122t125.5 50t125 -50t51 -122v-28h-124v36q0 20 -15 34.5t-36 14.5q-22 0 -37.5 -14.5t-15.5 -34.5v-170h117v-115h-117v-146h231z" />
<glyph unicode="&#xa4;" horiz-adv-x="628" d="M481 26l-63 60q-49 -29 -102 -29q-56 0 -107 28l-60 -60l-84 83l61 60q-26 46 -26 99q0 65 26 110l-61 62l85 84l60 -61q50 26 100 26q56 0 108 -25l62 58l83 -82l-59 -62q26 -49 26 -104q0 -50 -26 -104l59 -61zM217 273q0 -39 29 -68t70 -29q39 0 67 28.5t28 68.5 q0 39 -27.5 68t-65.5 29q-42 0 -71.5 -28t-29.5 -69z" />
<glyph unicode="&#xa5;" horiz-adv-x="569" d="M494 271v-112h-147v-159h-126v159h-145v112h145v48h-145v113h99l-125 268h138l97 -233l99 233h135l-123 -268h98v-113h-147v-48h147z" />
<glyph unicode="&#xa6;" horiz-adv-x="283" d="M80 328v372h123v-372h-123zM80 -180v369h123v-369h-123z" />
<glyph unicode="&#xa7;" horiz-adv-x="535" d="M86 165h121q0 -21 14.5 -40t41.5 -19q55 0 55 35q0 17 -26.5 33.5t-64.5 34t-76 39.5t-64.5 59t-26.5 83q0 58 45 107q-14 23 -14 68q0 63 46 104t134 41q93 0 136 -47t43 -129h-122q0 22 -15 41.5t-41 19.5q-29 0 -42 -11t-13 -25q0 -17 26.5 -34t64.5 -34t76 -39 t64.5 -58.5t26.5 -82.5q0 -59 -46 -109q16 -29 16 -66q0 -62 -46.5 -104t-133.5 -42q-92 0 -135.5 48.5t-43.5 126.5zM354 301q0 24 -24.5 42t-71 40t-71.5 39q-7 -9 -7 -24q0 -21 24 -39.5t71.5 -42t69.5 -37.5q9 7 9 22z" />
<glyph unicode="&#xa8;" horiz-adv-x="352" d="M0 572v128h126v-128h-126zM225 572v128h127v-128h-127z" />
<glyph unicode="&#xa9;" horiz-adv-x="738" d="M327 420v-134q0 -16 11.5 -28t32.5 -12q20 0 31.5 16t11.5 45h90q0 -70 -36 -112t-95 -42q-61 0 -99 37t-38 92v142q0 54 38 91.5t99 37.5q57 0 92.5 -43t35.5 -111h-91q0 60 -39 60q-21 0 -32.5 -11.5t-11.5 -27.5zM369 79q80 0 139 60.5t59 134.5v154q0 74 -58.5 133.5 t-139.5 59.5q-80 0 -140 -59.5t-60 -133.5v-154q0 -74 60 -134.5t140 -60.5zM361 710h16q118 0 204.5 -81t86.5 -195v-168q0 -115 -86 -195.5t-205 -80.5h-16q-118 0 -204.5 81t-86.5 195v168q0 114 86.5 195t204.5 81z" />
<glyph unicode="&#xaa;" horiz-adv-x="360" d="M230 390v13q-26 -19 -64 -19q-46 1 -81 30.5t-35 72.5q0 41 33.5 71t80.5 33l66 4v7q0 19 -14 34.5t-36 15.5q-40 0 -47 -38h-68q14 96 115 96q53 0 84 -29.5t31 -75.5v-215h-65zM168 443q24 0 43 13.5t19 28.5v51l-63 -4q-21 -2 -37 -14.5t-16 -29.5t17 -31t37 -14z M295 340v-58h-237v58h237z" />
<glyph unicode="&#xab;" horiz-adv-x="646" d="M333 120h-144l-129 167l129 168h142l-128 -168zM586 120h-145l-129 167l129 168h142l-129 -168z" />
<glyph unicode="&#xac;" horiz-adv-x="604" d="M524 435v-301h-118v182h-341v119h459z" />
<glyph unicode="&#xad;" horiz-adv-x="833" />
<glyph unicode="&#xae;" horiz-adv-x="738" d="M415 176l-42 98h-30v-98h-98v359h144q45 0 75.5 -29t30.5 -71v-61q0 -47 -36 -74l60 -124h-104zM399 380v41q0 7 -5 11.5t-11 4.5h-42v-73h42q16 0 16 16zM369 79q80 0 139 60.5t59 134.5v154q0 74 -58.5 133.5t-139.5 59.5q-80 0 -140 -59.5t-60 -133.5v-154 q0 -74 60 -134.5t140 -60.5zM361 710h16q118 0 204.5 -81t86.5 -195v-168q0 -115 -86 -195.5t-205 -80.5h-16q-118 0 -204.5 81t-86.5 195v168q0 114 86.5 195t204.5 81z" />
<glyph unicode="&#xaf;" horiz-adv-x="321" d="M0 562v113h321v-113h-321z" />
<glyph unicode="&#xb0;" horiz-adv-x="432" d="M50 547q0 68 49 117t117 49t117 -49t49 -117t-49 -117t-117 -49t-117 49t-49 117zM153 547q0 -26 18.5 -44.5t43.5 -18.5q26 0 45 18.5t19 44.5t-19 44.5t-45 18.5q-25 0 -43.5 -18.5t-18.5 -44.5z" />
<glyph unicode="&#xb1;" horiz-adv-x="591" d="M235 523h121v-115h169v-118h-169v-116h-121v116h-170v118h170v115zM526 118v-118h-461v118h461z" />
<glyph unicode="&#xb2;" horiz-adv-x="395" d="M162 570h-107q0 69 40 104.5t101 35.5q57 0 96 -35.5t39 -91.5q0 -33 -21.5 -66.5t-47.5 -54.5l-53 -46q-27 -24 -35 -38h161v-101h-285v69q0 30 17.5 60t42.5 54l50 45q26 22 43.5 42.5t17.5 36.5q0 11 -8 18t-19 7q-13 0 -22.5 -11.5t-9.5 -27.5z" />
<glyph unicode="&#xb3;" horiz-adv-x="399" d="M72 609v91h253v-80l-52 -63q31 -12 48.5 -40t17.5 -58v-57q0 -53 -42 -92.5t-97 -39.5h-11q-58 0 -98.5 41t-40.5 101h111v-16q0 -11 10.5 -18.5t21.5 -7.5q13 0 23 7.5t10 18.5v56q0 10 -7 17.5t-18 7.5h-61v68l54 58v6h-122z" />
<glyph unicode="&#xb4;" horiz-adv-x="273" d="M114 555h-115l119 155h154z" />
<glyph unicode="&#xb5;" horiz-adv-x="519" d="M65 -180v680h117v-338q0 -26 20.5 -46.5t48.5 -20.5q29 0 52 19.5t23 43.5v342h117v-374q0 -9 7 -17.5t16 -8.5h13v-105h-29q-55 0 -92 44q-55 -49 -115 -49q-35 0 -61 16v-186h-117z" />
<glyph unicode="&#xb6;" horiz-adv-x="556" d="M208 -180v488q-70 13 -119 67t-49 125q0 84 60 142t144 58h232v-880h-94v767h-50v-767h-124z" />
<glyph unicode="&#xb7;" horiz-adv-x="266" d="M65 219v136h136v-136h-136z" />
<glyph unicode="&#xb8;" horiz-adv-x="228" d="M35 -190v63h62q8 0 14 5.5t6 14.5q0 8 -6 13.5t-14 5.5h-52v88h85v-25q32 -3 54.5 -26.5t22.5 -55.5q0 -35 -25.5 -59t-59.5 -24h-87z" />
<glyph unicode="&#xb9;" horiz-adv-x="283" d="M45 599v101h178v-423h-117v322h-61z" />
<glyph unicode="&#xba;" horiz-adv-x="360" d="M295 605v-116q0 -45 -34 -75t-87 -30q-54 0 -89 30t-35 75v116q0 45 35 75t89 30q53 0 87 -30t34 -75zM230 489v116q0 18 -17 32t-40 14q-22 0 -38.5 -14t-16.5 -32v-116q0 -18 16.5 -33t39.5 -15q22 0 39 15t17 33zM295 340v-58h-237v58h237z" />
<glyph unicode="&#xbb;" horiz-adv-x="646" d="M457 120h-144l130 167l-128 168h142l129 -168zM205 120h-145l132 167l-129 168h142l129 -168z" />
<glyph unicode="&#xbc;" horiz-adv-x="904" d="M690 271h113v-94h36v-101h-36v-76h-113v76h-216v82l124 264h123l-109 -245h78v94zM162 0l364 701h124l-362 -701h-126zM65 599v101h178v-423h-117v322h-61z" />
<glyph unicode="&#xbd;" horiz-adv-x="898" d="M162 0l364 701h124l-362 -701h-126zM65 599v101h178v-423h-117v322h-61zM660 293h-107q0 69 40 104.5t101 35.5q57 0 96 -35.5t39 -91.5q0 -33 -21.5 -66.5t-47.5 -55.5l-53 -45q-27 -24 -35 -38h161v-101h-285v69q0 30 17.5 60t42.5 53l51 46q25 22 42.5 42.5t17.5 36.5 q0 11 -8 18t-19 7q-13 0 -22.5 -11.5t-9.5 -27.5z" />
<glyph unicode="&#xbe;" horiz-adv-x="974" d="M760 271h113v-94h36v-101h-36v-76h-113v76h-216v82l124 264h123l-109 -245h78v94zM232 0l364 701h124l-362 -701h-126zM87 609v91h253v-80l-52 -63q31 -12 48.5 -40t17.5 -58v-57q0 -53 -42 -92.5t-97 -39.5h-11q-58 0 -98.5 41t-40.5 101h111v-16q0 -11 10.5 -18.5 t21.5 -7.5q13 0 23 7.5t10 18.5v56q0 10 -7.5 17.5t-17.5 7.5h-61v68l54 58v6h-122z" />
<glyph unicode="&#xbf;" horiz-adv-x="515" d="M335 2h125q0 -99 -57 -156t-143 -57t-143 52.5t-57 138.5q0 43 15.5 73.5t38 50t44.5 41t37.5 59t15.5 91.5h125q0 -55 -11 -97.5t-27.5 -65.5t-35.5 -43t-35.5 -33.5t-27.5 -34.5t-11 -47q0 -29 21 -49.5t51 -20.5q33 0 54 26.5t21 71.5zM343 499v-137h-141v137h141z " />
<glyph unicode="&#xc0;" horiz-adv-x="568" d="M184 700h200l109 -394v-306h-124v208h-170v-208h-124v306zM358 325l-63 258h-22l-63 -258h148zM376 755h-115l-158 155h154z" />
<glyph unicode="&#xc1;" horiz-adv-x="568" d="M184 700h200l109 -394v-306h-124v208h-170v-208h-124v306zM358 325l-63 258h-22l-63 -258h148zM310 755h-115l119 155h154z" />
<glyph unicode="&#xc2;" horiz-adv-x="568" d="M184 700h200l109 -394v-306h-124v208h-170v-208h-124v306zM358 325l-63 258h-22l-63 -258h148zM226 755h-127l132 155h107l130 -155h-125l-59 65z" />
<glyph unicode="&#xc3;" horiz-adv-x="568" d="M184 700h200l109 -394v-306h-124v208h-170v-208h-124v306zM358 325l-63 258h-22l-63 -258h148zM212 754h-107q0 56 30 95.5t76 39.5q26 0 63.5 -18.5t50.5 -18.5t21.5 10t8.5 21h107q0 -56 -30.5 -95.5t-75.5 -39.5q-26 0 -63.5 18.5t-50.5 18.5t-21 -9.5t-9 -21.5z" />
<glyph unicode="&#xc4;" horiz-adv-x="568" d="M184 700h200l109 -394v-306h-124v208h-170v-208h-124v306zM358 325l-63 258h-22l-63 -258h148zM108 772v128h126v-128h-126zM333 772v128h127v-128h-127z" />
<glyph unicode="&#xc5;" horiz-adv-x="568" d="M184 700h200l109 -394v-306h-124v208h-170v-208h-124v306zM358 325l-63 258h-22l-63 -258h148zM181 838q0 44 29 73.5t72 29.5q42 0 73 -30t31 -73q0 -42 -31 -72.5t-73 -30.5q-43 0 -72 30t-29 73zM248 839q0 -14 10 -24.5t24 -10.5q15 0 25 10.5t10 24.5t-10 24.5 t-25 10.5q-14 0 -24 -10.5t-10 -24.5z" />
<glyph unicode="&#xc6;" horiz-adv-x="707" d="M185 700h465v-117h-202v-159h180v-117h-180v-190h209v-117h-336v208h-121v-208h-125v306zM273 583l-64 -258h112v258h-48z" />
<glyph unicode="&#xc7;" horiz-adv-x="545" d="M215 -190v63h62q8 0 14 5.5t6 14.5q0 8 -6 13.5t-14 5.5h-52v85q-68 16 -111.5 69t-43.5 121v327q0 81 60.5 138.5t146.5 57.5h4q88 0 146 -58t58 -149h-126q0 40 -23 65t-56 25q-34 0 -57.5 -21t-23.5 -52v-339q0 -31 23.5 -52.5t57.5 -21.5q32 0 55.5 21t23.5 52v38 h126v-32q0 -74 -49.5 -129t-125.5 -65v-17q32 -3 54.5 -26.5t22.5 -55.5q0 -35 -25.5 -59t-59.5 -24h-87z" />
<glyph unicode="&#xc8;" horiz-adv-x="514" d="M80 700h376v-117h-250v-159h228v-117h-228v-190h258v-117h-384v700zM376 755h-115l-158 155h154z" />
<glyph unicode="&#xc9;" horiz-adv-x="514" d="M80 700h376v-117h-250v-159h228v-117h-228v-190h258v-117h-384v700zM311 755h-115l119 155h154z" />
<glyph unicode="&#xca;" horiz-adv-x="514" d="M80 700h376v-117h-250v-159h228v-117h-228v-190h258v-117h-384v700zM212 755h-127l132 155h107l130 -155h-125l-59 65z" />
<glyph unicode="&#xcb;" horiz-adv-x="514" d="M80 700h376v-117h-250v-159h228v-117h-228v-190h258v-117h-384v700zM81 772v128h126v-128h-126zM306 772v128h127v-128h-127z" />
<glyph unicode="&#xcc;" horiz-adv-x="288" d="M208 700v-700h-128v700h128zM226 755h-115l-158 155h154z" />
<glyph unicode="&#xcd;" horiz-adv-x="288" d="M208 700v-700h-128v700h128zM174 755h-115l119 155h154z" />
<glyph unicode="&#xce;" horiz-adv-x="288" d="M208 700v-700h-128v700h128zM86 755h-127l132 155h107l130 -155h-125l-59 65z" />
<glyph unicode="&#xcf;" horiz-adv-x="288" d="M208 700v-700h-128v700h128zM-32 772v128h126v-128h-126zM193 772v128h127v-128h-127z" />
<glyph unicode="&#xd0;" horiz-adv-x="574" d="M504 505v-310q0 -81 -59.5 -138t-141.5 -57h-206v307h-57v117h57v276h206q82 0 141.5 -57t59.5 -138zM320 424v-117h-97v-190h77q32 0 53.5 21t21.5 52v318q0 32 -21.5 53.5t-53.5 21.5h-77v-159h97z" />
<glyph unicode="&#xd1;" horiz-adv-x="578" d="M374 700h124v-700h-131l-130 335l-36 112h-4l7 -116v-331h-124v700h131l129 -331l37 -116h4l-7 117v330zM217 754h-107q0 56 30 95.5t76 39.5q26 0 63.5 -18.5t50.5 -18.5t21.5 10t8.5 21h107q0 -56 -30.5 -95.5t-75.5 -39.5q-26 0 -63.5 18.5t-50.5 18.5t-21 -9.5 t-9 -21.5z" />
<glyph unicode="&#xd2;" horiz-adv-x="567" d="M497 514v-328q0 -81 -60 -138.5t-145 -57.5h-16q-85 0 -145.5 58t-60.5 139v327q0 81 60.5 138.5t145.5 57.5h16q85 0 145 -57.5t60 -138.5zM371 180v340q0 31 -24 52t-57 21h-11q-33 0 -57.5 -21.5t-24.5 -51.5v-339q0 -31 24.5 -52.5t57.5 -21.5h10q33 0 57.5 21.5 t24.5 51.5zM360 755h-115l-158 155h154z" />
<glyph unicode="&#xd3;" horiz-adv-x="567" d="M497 514v-328q0 -81 -60 -138.5t-145 -57.5h-16q-85 0 -145.5 58t-60.5 139v327q0 81 60.5 138.5t145.5 57.5h16q85 0 145 -57.5t60 -138.5zM371 180v340q0 31 -24 52t-57 21h-11q-33 0 -57.5 -21.5t-24.5 -51.5v-339q0 -31 24.5 -52.5t57.5 -21.5h10q33 0 57.5 21.5 t24.5 51.5zM332 755h-115l119 155h154z" />
<glyph unicode="&#xd4;" horiz-adv-x="567" d="M497 514v-328q0 -81 -60 -138.5t-145 -57.5h-16q-85 0 -145.5 58t-60.5 139v327q0 81 60.5 138.5t145.5 57.5h16q85 0 145 -57.5t60 -138.5zM371 180v340q0 31 -24 52t-57 21h-11q-33 0 -57.5 -21.5t-24.5 -51.5v-339q0 -31 24.5 -52.5t57.5 -21.5h10q33 0 57.5 21.5 t24.5 51.5zM225 755h-127l132 155h107l130 -155h-125l-59 65z" />
<glyph unicode="&#xd5;" horiz-adv-x="567" d="M497 514v-328q0 -81 -60 -138.5t-145 -57.5h-16q-85 0 -145.5 58t-60.5 139v327q0 81 60.5 138.5t145.5 57.5h16q85 0 145 -57.5t60 -138.5zM371 180v340q0 31 -24 52t-57 21h-11q-33 0 -57.5 -21.5t-24.5 -51.5v-339q0 -31 24.5 -52.5t57.5 -21.5h10q33 0 57.5 21.5 t24.5 51.5zM212 754h-107q0 56 30 95.5t76 39.5q26 0 63.5 -18.5t50.5 -18.5t21.5 10t8.5 21h107q0 -56 -30.5 -95.5t-75.5 -39.5q-26 0 -63.5 18.5t-50.5 18.5t-21 -9.5t-9 -21.5z" />
<glyph unicode="&#xd6;" horiz-adv-x="567" d="M497 514v-328q0 -81 -60 -138.5t-145 -57.5h-16q-85 0 -145.5 58t-60.5 139v327q0 81 60.5 138.5t145.5 57.5h16q85 0 145 -57.5t60 -138.5zM371 180v340q0 31 -24 52t-57 21h-11q-33 0 -57.5 -21.5t-24.5 -51.5v-339q0 -31 24.5 -52.5t57.5 -21.5h10q33 0 57.5 21.5 t24.5 51.5zM107 772v128h126v-128h-126zM332 772v128h127v-128h-127z" />
<glyph unicode="&#xd7;" horiz-adv-x="548" d="M65 414l83 83l126 -125l125 125l84 -84l-125 -126l124 -125l-83 -84l-125 126l-125 -124l-84 82l125 126z" />
<glyph unicode="&#xd8;" horiz-adv-x="587" d="M60 0l44 91q-25 45 -25 96v327q0 81 60.5 138.5t145.5 57.5h16q51 0 93 -21l5 11h128l-45 -93q24 -43 24 -93v-328q0 -81 -60 -138.5t-145 -57.5h-16q-51 0 -93 21l-5 -11h-127zM206 520v-229l13 38l123 253q-20 11 -43 11h-11q-33 0 -57.5 -21.5t-24.5 -51.5zM380 180 v229l-13 -38l-122 -252q19 -12 43 -12h10q33 0 57.5 21.5t24.5 51.5z" />
<glyph unicode="&#xd9;" horiz-adv-x="580" d="M377 700h128v-514q0 -81 -60.5 -138.5t-146.5 -57.5h-16q-86 0 -146.5 58t-60.5 139v513h127v-516q0 -32 24.5 -54.5t58.5 -22.5h10q34 0 58 22.5t24 53.5v517zM374 755h-115l-158 155h154z" />
<glyph unicode="&#xda;" horiz-adv-x="580" d="M377 700h128v-514q0 -81 -60.5 -138.5t-146.5 -57.5h-16q-86 0 -146.5 58t-60.5 139v513h127v-516q0 -32 24.5 -54.5t58.5 -22.5h10q34 0 58 22.5t24 53.5v517zM314 755h-115l119 155h154z" />
<glyph unicode="&#xdb;" horiz-adv-x="580" d="M377 700h128v-514q0 -81 -60.5 -138.5t-146.5 -57.5h-16q-86 0 -146.5 58t-60.5 139v513h127v-516q0 -32 24.5 -54.5t58.5 -22.5h10q34 0 58 22.5t24 53.5v517zM232 755h-127l132 155h107l130 -155h-125l-59 65z" />
<glyph unicode="&#xdc;" horiz-adv-x="580" d="M377 700h128v-514q0 -81 -60.5 -138.5t-146.5 -57.5h-16q-86 0 -146.5 58t-60.5 139v513h127v-516q0 -32 24.5 -54.5t58.5 -22.5h10q34 0 58 22.5t24 53.5v517zM114 772v128h126v-128h-126zM339 772v128h127v-128h-127z" />
<glyph unicode="&#xdd;" horiz-adv-x="548" d="M164 700l110 -228l109 228h140l-185 -372v-328h-129v328l-184 372h139zM313 755h-115l119 155h154z" />
<glyph unicode="&#xde;" horiz-adv-x="515" d="M80 0v700h128v-94h84q72 0 122.5 -49.5t50.5 -119.5v-136q0 -70 -50.5 -119.5t-122.5 -49.5h-84v-132h-128zM335 295v145q0 20 -14 34t-34 14h-79v-239h79q20 0 34 13.5t14 32.5z" />
<glyph unicode="&#xdf;" horiz-adv-x="597" d="M188 506v-505h-118v506q0 83 59.5 143t142.5 60h31q82 0 142 -55.5t60 -127.5v-72q-42 -2 -72 -21.5t-30 -46.5q0 -20 24 -44.5t53 -46.5t53 -61.5t24 -85.5q0 -66 -47.5 -112t-116.5 -46q-67 0 -112.5 46t-45.5 112v17h117v-22q0 -17 14 -29.5t32 -12.5q17 0 30 12.5 t13 29.5q0 20 -16 39.5t-38.5 37.5t-45 39t-38.5 53t-16 71q0 48 27 86t70 52q-5 34 -30 55t-67 21q-39 0 -69 -27t-30 -65z" />
<glyph unicode="&#xe0;" d="M318 555h-115l-158 155h154zM324 0v38q-44 -46 -127 -46q-59 0 -105.5 45t-46.5 111t50.5 109t121.5 49l97 7v31q0 25 -20 44t-47 19q-24 0 -41.5 -15.5t-20.5 -40.5h-118q9 71 57.5 115t122.5 44q85 0 133.5 -48.5t48.5 -122.5v-339h-105zM222 89q33 0 62.5 21t29.5 42 v64l-92 -6q-26 -2 -43 -18.5t-17 -41.5q0 -23 17.5 -42t42.5 -19z" />
<glyph unicode="&#xe1;" d="M287 555h-115l119 155h154zM324 0v38q-44 -46 -127 -46q-59 0 -105.5 45t-46.5 111t50.5 109t121.5 49l97 7v31q0 25 -20 44t-47 19q-24 0 -41.5 -15.5t-20.5 -40.5h-118q9 71 57.5 115t122.5 44q85 0 133.5 -48.5t48.5 -122.5v-339h-105zM222 89q33 0 62.5 21t29.5 42 v64l-92 -6q-26 -2 -43 -18.5t-17 -41.5q0 -23 17.5 -42t42.5 -19z" />
<glyph unicode="&#xe2;" d="M189 555h-127l132 155h107l130 -155h-125l-59 65zM324 0v38q-44 -46 -127 -46q-59 0 -105.5 45t-46.5 111t50.5 109t121.5 49l97 7v31q0 25 -20 44t-47 19q-24 0 -41.5 -15.5t-20.5 -40.5h-118q9 71 57.5 115t122.5 44q85 0 133.5 -48.5t48.5 -122.5v-339h-105zM222 89 q33 0 62.5 21t29.5 42v64l-92 -6q-26 -2 -43 -18.5t-17 -41.5q0 -23 17.5 -42t42.5 -19z" />
<glyph unicode="&#xe3;" d="M175 554h-107q0 56 30 95.5t76 39.5q26 0 63.5 -18.5t50.5 -18.5t21.5 10t8.5 21h107q0 -56 -30.5 -95.5t-75.5 -39.5q-26 0 -63.5 18.5t-50.5 18.5t-21 -9.5t-9 -21.5zM324 0v38q-44 -46 -127 -46q-59 0 -105.5 45t-46.5 111t50.5 109t121.5 49l97 7v31q0 25 -20 44 t-47 19q-24 0 -41.5 -15.5t-20.5 -40.5h-118q9 71 57.5 115t122.5 44q85 0 133.5 -48.5t48.5 -122.5v-339h-105zM222 89q33 0 62.5 21t29.5 42v64l-92 -6q-26 -2 -43 -18.5t-17 -41.5q0 -23 17.5 -42t42.5 -19z" />
<glyph unicode="&#xe4;" d="M71 572v128h126v-128h-126zM296 572v128h127v-128h-127zM324 0v38q-44 -46 -127 -46q-59 0 -105.5 45t-46.5 111t50.5 109t121.5 49l97 7v31q0 25 -20 44t-47 19q-24 0 -41.5 -15.5t-20.5 -40.5h-118q9 71 57.5 115t122.5 44q85 0 133.5 -48.5t48.5 -122.5v-339h-105z M222 89q33 0 62.5 21t29.5 42v64l-92 -6q-26 -2 -43 -18.5t-17 -41.5q0 -23 17.5 -42t42.5 -19z" />
<glyph unicode="&#xe5;" d="M144 638q0 44 29 73.5t72 29.5q42 0 73 -30t31 -73q0 -42 -31 -72.5t-73 -30.5q-43 0 -72 30t-29 73zM211 639q0 -14 10 -24.5t24 -10.5q15 0 25 10.5t10 24.5t-10 24.5t-25 10.5q-14 0 -24 -10.5t-10 -24.5zM324 0v38q-44 -46 -127 -46q-59 0 -105.5 45t-46.5 111 t50.5 109t121.5 49l97 7v31q0 25 -20 44t-47 19q-24 0 -41.5 -15.5t-20.5 -40.5h-118q9 71 57.5 115t122.5 44q85 0 133.5 -48.5t48.5 -122.5v-339h-105zM222 89q33 0 62.5 21t29.5 42v64l-92 -6q-26 -2 -43 -18.5t-17 -41.5q0 -23 17.5 -42t42.5 -19z" />
<glyph unicode="&#xe6;" horiz-adv-x="708" d="M533 147h115q-3 -56 -53 -106.5t-121 -50.5q-75 0 -118 40h-4q-59 -40 -141 -40q-71 0 -118.5 47.5t-47.5 118.5q0 68 53.5 113t124.5 45h71v27q0 25 -16 44.5t-38 19.5q-21 0 -36.5 -13.5t-19.5 -32.5h-115q7 72 54 111t117 39t117 -39q51 39 117 39q75 0 124 -49.5 t49 -121.5v-129h-236v-49q0 -25 19 -45.5t43 -20.5q26 0 43 15.5t17 37.5zM215 93q31 0 55 19t24 40v57h-67q-26 0 -46 -17t-20 -43q0 -21 16 -38.5t38 -17.5zM473 406q-24 0 -43 -18t-19 -42v-32h120v28q0 25 -17.5 44.5t-40.5 19.5z" />
<glyph unicode="&#xe7;" horiz-adv-x="495" d="M184 -190v63h62q8 0 14 5.5t6 14.5q0 8 -6 13.5t-14 5.5h-52v84q-61 14 -97.5 59.5t-36.5 105.5v178q0 73 51.5 122t133.5 49q84 0 135 -51t51 -137h-115q0 38 -20 61t-51 23q-28 0 -48 -19.5t-20 -45.5v-182q0 -26 20.5 -45.5t48.5 -19.5q31 0 51 23.5t20 63.5h118 q0 -80 -42.5 -129.5t-113.5 -59.5v-17q32 -3 54.5 -26.5t22.5 -55.5q0 -35 -25.5 -59t-59.5 -24h-87z" />
<glyph unicode="&#xe8;" d="M324 555h-115l-158 155h154zM316 147h118q-8 -71 -61 -114t-127 -43q-82 0 -134 49t-52 122v178q0 72 52.5 121.5t134.5 49.5t134 -47.5t52 -119.5v-133h-256v-51q0 -26 20.5 -45.5t48.5 -19.5q51 0 68 47zM177 343v-33h141v33q0 26 -20.5 45.5t-50.5 19.5 q-28 0 -49 -19.5t-21 -45.5z" />
<glyph unicode="&#xe9;" d="M283 555h-115l119 155h154zM316 147h118q-8 -71 -61 -114t-127 -43q-82 0 -134 49t-52 122v178q0 72 52.5 121.5t134.5 49.5t134 -47.5t52 -119.5v-133h-256v-51q0 -26 20.5 -45.5t48.5 -19.5q51 0 68 47zM177 343v-33h141v33q0 26 -20.5 45.5t-50.5 19.5 q-28 0 -49 -19.5t-21 -45.5z" />
<glyph unicode="&#xea;" d="M189 555h-127l132 155h107l130 -155h-125l-59 65zM316 147h118q-8 -71 -61 -114t-127 -43q-82 0 -134 49t-52 122v178q0 72 52.5 121.5t134.5 49.5t134 -47.5t52 -119.5v-133h-256v-51q0 -26 20.5 -45.5t48.5 -19.5q51 0 68 47zM177 343v-33h141v33q0 26 -20.5 45.5 t-50.5 19.5q-28 0 -49 -19.5t-21 -45.5z" />
<glyph unicode="&#xeb;" d="M71 572v128h126v-128h-126zM296 572v128h127v-128h-127zM316 147h118q-8 -71 -61 -114t-127 -43q-82 0 -134 49t-52 122v178q0 72 52.5 121.5t134.5 49.5t134 -47.5t52 -119.5v-133h-256v-51q0 -26 20.5 -45.5t48.5 -19.5q51 0 68 47zM177 343v-33h141v33 q0 26 -20.5 45.5t-50.5 19.5q-28 0 -49 -19.5t-21 -45.5z" />
<glyph unicode="&#xec;" horiz-adv-x="267" d="M74 0v500h118v-500h-118zM211 555h-115l-158 155h154z" />
<glyph unicode="&#xed;" horiz-adv-x="267" d="M74 0v500h118v-500h-118zM170 555h-115l119 155h154z" />
<glyph unicode="&#xee;" horiz-adv-x="267" d="M74 0v500h118v-500h-118zM90 555h-141l132 155h107l131 -155h-140l-45 65z" />
<glyph unicode="&#xef;" horiz-adv-x="267" d="M74 0v500h118v-500h-118zM-42 572v128h126v-128h-126zM183 572v128h127v-128h-127z" />
<glyph unicode="&#xf0;" horiz-adv-x="517" d="M437 161q0 -73 -52.5 -122t-134.5 -49q-83 0 -136.5 49t-53.5 122v144q0 70 51.5 119t127.5 49q21 0 45.5 -8t35.5 -18v70l-69 -24v92l34 12q-13 8 -31 8h-74v105h74q93 0 153 -72l84 28v-92l-55 -19q1 -10 1 -35v-359zM320 158v150q0 25 -21.5 43.5t-49.5 18.5 t-49.5 -18.5t-21.5 -43.5v-150q0 -25 21.5 -44t50.5 -19q28 0 49 19t21 44z" />
<glyph unicode="&#xf1;" horiz-adv-x="513" d="M331 0v338q0 26 -20.5 46.5t-48.5 20.5q-32 0 -53.5 -20t-21.5 -46v-339h-117v500h111v-26q36 36 89 36q79 0 128.5 -50t49.5 -123v-337h-117zM185 554h-107q0 56 30 95.5t76 39.5q26 0 63.5 -18.5t50.5 -18.5t21.5 10t8.5 21h107q0 -56 -30.5 -95.5t-75.5 -39.5 q-26 0 -63.5 18.5t-50.5 18.5t-21 -9.5t-9 -21.5z" />
<glyph unicode="&#xf2;" d="M434 161v178q0 73 -51.5 122t-134.5 49q-84 0 -136 -49t-52 -122v-178q0 -73 52 -122t136 -49q83 0 134.5 49t51.5 122zM316 340v-180q0 -26 -19.5 -45.5t-48.5 -19.5t-50 19.5t-21 45.5v180q0 26 21 45.5t49 19.5q30 0 49.5 -19.5t19.5 -45.5zM321 555h-115l-158 155 h154z" />
<glyph unicode="&#xf3;" d="M434 161v178q0 73 -51.5 122t-134.5 49q-84 0 -136 -49t-52 -122v-178q0 -73 52 -122t136 -49q83 0 134.5 49t51.5 122zM316 340v-180q0 -26 -19.5 -45.5t-48.5 -19.5t-50 19.5t-21 45.5v180q0 26 21 45.5t49 19.5q30 0 49.5 -19.5t19.5 -45.5zM286 555h-115l119 155h154 z" />
<glyph unicode="&#xf4;" d="M434 161v178q0 73 -51.5 122t-134.5 49q-84 0 -136 -49t-52 -122v-178q0 -73 52 -122t136 -49q83 0 134.5 49t51.5 122zM316 340v-180q0 -26 -19.5 -45.5t-48.5 -19.5t-50 19.5t-21 45.5v180q0 26 21 45.5t49 19.5q30 0 49.5 -19.5t19.5 -45.5zM189 555h-127l132 155h107 l130 -155h-125l-59 65z" />
<glyph unicode="&#xf5;" d="M434 161v178q0 73 -51.5 122t-134.5 49q-84 0 -136 -49t-52 -122v-178q0 -73 52 -122t136 -49q83 0 134.5 49t51.5 122zM316 340v-180q0 -26 -19.5 -45.5t-48.5 -19.5t-50 19.5t-21 45.5v180q0 26 21 45.5t49 19.5q30 0 49.5 -19.5t19.5 -45.5zM175 554h-107 q0 56 30 95.5t76 39.5q26 0 63.5 -18.5t50.5 -18.5t21.5 10t8.5 21h107q0 -56 -30.5 -95.5t-75.5 -39.5q-26 0 -63.5 18.5t-50.5 18.5t-21 -9.5t-9 -21.5z" />
<glyph unicode="&#xf6;" d="M434 161v178q0 73 -51.5 122t-134.5 49q-84 0 -136 -49t-52 -122v-178q0 -73 52 -122t136 -49q83 0 134.5 49t51.5 122zM316 340v-180q0 -26 -19.5 -45.5t-48.5 -19.5t-50 19.5t-21 45.5v180q0 26 21 45.5t49 19.5q30 0 49.5 -19.5t19.5 -45.5zM71 572v128h126v-128h-126 zM296 572v128h127v-128h-127z" />
<glyph unicode="&#xf7;" horiz-adv-x="588" d="M65 335h458v-120h-458v120zM224 39v136h139v-136h-139zM224 373v137h139v-137h-139z" />
<glyph unicode="&#xf8;" horiz-adv-x="516" d="M60 0l40 67q-28 40 -28 94v178q0 73 52 122t136 49q50 0 88 -18l4 8h104l-39 -67q29 -45 29 -94v-178q0 -73 -51.5 -122t-134.5 -49q-50 0 -90 19l-5 -9h-105zM328 160v130l-12 -30l-91 -156q15 -9 35 -9q29 0 48.5 19.5t19.5 45.5zM189 340v-130l11 30l92 158 q-16 7 -33 7q-28 0 -49 -19.5t-21 -45.5z" />
<glyph unicode="&#xf9;" horiz-adv-x="513" d="M182 500v-338q0 -26 20.5 -46.5t48.5 -20.5q32 0 53.5 20t21.5 46v339h117v-500h-111v26q-36 -36 -89 -36q-79 0 -128.5 50t-49.5 123v337h117zM332 555h-115l-158 155h154z" />
<glyph unicode="&#xfa;" horiz-adv-x="513" d="M182 500v-338q0 -26 20.5 -46.5t48.5 -20.5q32 0 53.5 20t21.5 46v339h117v-500h-111v26q-36 -36 -89 -36q-79 0 -128.5 50t-49.5 123v337h117zM287 555h-115l119 155h154z" />
<glyph unicode="&#xfb;" horiz-adv-x="513" d="M182 500v-338q0 -26 20.5 -46.5t48.5 -20.5q32 0 53.5 20t21.5 46v339h117v-500h-111v26q-36 -36 -89 -36q-79 0 -128.5 50t-49.5 123v337h117zM198 555h-127l132 155h107l130 -155h-125l-59 65z" />
<glyph unicode="&#xfc;" horiz-adv-x="513" d="M182 500v-338q0 -26 20.5 -46.5t48.5 -20.5q32 0 53.5 20t21.5 46v339h117v-500h-111v26q-36 -36 -89 -36q-79 0 -128.5 50t-49.5 123v337h117zM80 572v128h126v-128h-126zM305 572v128h127v-128h-127z" />
<glyph unicode="&#xfd;" horiz-adv-x="503" d="M145 500l106 -316l107 316h125l-248 -679h-119l76 208l-172 471h125zM295 555h-115l119 155h154z" />
<glyph unicode="&#xfe;" horiz-adv-x="508" d="M70 -180v880h115v-220q35 28 84 28q81 0 130 -48.5t49 -122.5v-176q0 -72 -51 -121.5t-134 -49.5q-42 0 -76 25v-195h-117zM330 159v181q0 26 -20.5 45.5t-49.5 19.5t-51 -19.5t-22 -45.5v-181q0 -26 21.5 -45.5t50.5 -19.5q30 0 50.5 19.5t20.5 45.5z" />
<glyph unicode="&#xff;" horiz-adv-x="503" d="M145 500l106 -316l107 316h125l-248 -679h-119l76 208l-172 471h125zM75 572v128h126v-128h-126zM300 572v128h127v-128h-127z" />
<glyph unicode="&#x141;" horiz-adv-x="452" d="M353 510v-140l-139 -77v-176h218v-117h-346v224l-56 -32v140l56 31v337h128v-267z" />
<glyph unicode="&#x142;" horiz-adv-x="286" d="M261 498v-125l-65 -37v-336h-117v270l-54 -28v125l54 30v303h117v-237z" />
<glyph unicode="&#x152;" horiz-adv-x="721" d="M277 700h386v-117h-199v-156h176v-117h-176v-193h207v-117h-394q-86 0 -146.5 58t-60.5 140v305q0 82 60.5 139.5t146.5 57.5zM197 192q0 -31 23 -53t56 -22h61v464h-61q-33 0 -56 -21.5t-23 -52.5v-315z" />
<glyph unicode="&#x153;" horiz-adv-x="708" d="M532 147h115q0 -52 -44.5 -104.5t-127.5 -52.5q-74 0 -121 41q-44 -41 -118 -41q-78 0 -127 49t-49 122v177q0 73 49 122.5t127 49.5q64 0 117 -44q51 44 122 44q76 0 124 -49.5t48 -122.5v-128h-236v-49q0 -25 19 -46t44 -21q24 0 41 15t17 38zM294 157v191 q0 24 -17 41.5t-42 17.5q-24 0 -41.5 -19t-17.5 -44v-187q0 -25 18 -44t42 -19t41 19t17 44zM411 348v-38h121v34q0 25 -17 44t-41 19q-26 0 -44.5 -17.5t-18.5 -41.5z" />
<glyph unicode="&#x160;" horiz-adv-x="539" d="M349 503h126q0 92 -58.5 149.5t-145.5 57.5q-86 0 -145.5 -56t-59.5 -139q0 -61 30 -104.5t72.5 -68t85 -45.5t72.5 -50t30 -68q0 -28 -24 -50t-57 -22h-11q-34 0 -58 23.5t-24 55.5v32h-127v-32q0 -81 60.5 -138.5t146.5 -57.5h16q86 0 146 57.5t60 138.5 q0 64 -30 111.5t-73 74.5t-85.5 48.5t-72.5 47t-30 56.5q0 29 23 49t55 20q33 0 55.5 -26t22.5 -64zM85 910h127l58 -65l59 65h125l-130 -155h-107z" />
<glyph unicode="&#x161;" horiz-adv-x="448" d="M400 342h-116q0 28 -16.5 46t-40.5 18q-21 0 -36.5 -13.5t-15.5 -31.5t23.5 -31.5t57 -25t67 -28t57 -50t23.5 -81.5q0 -63 -52.5 -109t-121.5 -46h-8q-76 0 -126 50t-50 116v11h117v-8q0 -25 17 -44.5t45 -19.5h5q29 0 42 13.5t13 32.5q0 22 -23 38t-56.5 29t-66.5 29 t-56 47.5t-23 75.5q0 66 50 108t120 42q81 0 126 -51.5t45 -116.5zM40 710h127l58 -65l59 65h125l-130 -155h-107z" />
<glyph unicode="&#x178;" horiz-adv-x="548" d="M164 700l110 -228l109 228h140l-185 -372v-328h-129v328l-184 372h139zM98 772v128h126v-128h-126zM323 772v128h127v-128h-127z" />
<glyph unicode="&#x17d;" horiz-adv-x="528" d="M471 585l-266 -468h268v-117h-418v116l268 467h-253v117h401v-115zM80 910h127l58 -65l59 65h125l-130 -155h-107z" />
<glyph unicode="&#x17e;" horiz-adv-x="448" d="M394 399l-204 -294h208v-105h-348v99l204 296h-192v105h332v-101zM40 710h127l58 -65l59 65h125l-130 -155h-107z" />
<glyph unicode="&#x192;" horiz-adv-x="449" d="M50 395v105h102v62q0 62 44 105t106 43q55 0 114 -39l-67 -88q-30 22 -46 22q-15 0 -24.5 -10t-9.5 -24v-71h115v-105h-115v-437q0 -62 -43.5 -105t-106.5 -43q-56 0 -114 39l68 89q27 -23 46 -23q14 0 23.5 9.5t9.5 23.5v447h-102z" />
<glyph unicode="&#x2c6;" horiz-adv-x="369" d="M127 555h-127l132 155h107l130 -155h-125l-59 65z" />
<glyph unicode="&#x2c7;" horiz-adv-x="369" d="M0 710h127l58 -65l59 65h125l-130 -155h-107z" />
<glyph unicode="&#x2d8;" horiz-adv-x="304" d="M0 710h98q0 -23 11.5 -40.5t25.5 -17.5h36q14 0 24.5 17.5t10.5 40.5h98q0 -64 -40 -109.5t-94 -45.5h-35q-55 0 -95 45.5t-40 109.5z" />
<glyph unicode="&#x2d9;" horiz-adv-x="125" d="M0 572v128h126v-128h-126z" />
<glyph unicode="&#x2da;" horiz-adv-x="205" d="M1 638q0 44 29 73.5t72 29.5q42 0 73 -30t31 -73q0 -42 -31 -72.5t-73 -30.5q-43 0 -72 30t-29 73zM68 639q0 -14 10 -24.5t24 -10.5q15 0 25 10.5t10 24.5t-10 24.5t-25 10.5q-14 0 -24 -10.5t-10 -24.5z" />
<glyph unicode="&#x2db;" horiz-adv-x="232" d="M204 -92v-98h-78q-45 0 -72.5 28t-27.5 71q0 49 52 92l2 2h120q-63 -51 -63 -79q0 -16 14 -16h53z" />
<glyph unicode="&#x2dc;" horiz-adv-x="357" d="M107 554h-107q0 56 30 95.5t76 39.5q26 0 63.5 -18.5t50.5 -18.5t21.5 10t8.5 21h107q0 -56 -30.5 -95.5t-75.5 -39.5q-26 0 -63.5 18.5t-50.5 18.5t-21 -9.5t-9 -21.5z" />
<glyph unicode="&#x2dd;" horiz-adv-x="504" d="M114 555h-115l119 155h154zM343 555h-115l119 155h154z" />
<glyph unicode="&#x2000;" horiz-adv-x="470" />
<glyph unicode="&#x2001;" horiz-adv-x="941" />
<glyph unicode="&#x2002;" horiz-adv-x="470" />
<glyph unicode="&#x2003;" horiz-adv-x="941" />
<glyph unicode="&#x2004;" horiz-adv-x="313" />
<glyph unicode="&#x2005;" horiz-adv-x="235" />
<glyph unicode="&#x2006;" horiz-adv-x="156" />
<glyph unicode="&#x2007;" horiz-adv-x="156" />
<glyph unicode="&#x2008;" horiz-adv-x="117" />
<glyph unicode="&#x2009;" horiz-adv-x="188" />
<glyph unicode="&#x200a;" horiz-adv-x="52" />
<glyph unicode="&#x2010;" horiz-adv-x="408" d="M343 334v-117h-278v117h278z" />
<glyph unicode="&#x2011;" horiz-adv-x="408" d="M343 334v-117h-278v117h278z" />
<glyph unicode="&#x2013;" horiz-adv-x="404" d="M404 333v-115h-404v115h404z" />
<glyph unicode="&#x2014;" horiz-adv-x="712" d="M712 333v-115h-712v115h712z" />
<glyph unicode="&#x2018;" horiz-adv-x="304" d="M214 701l-37 -226h-117l75 226h79z" />
<glyph unicode="&#x2019;" horiz-adv-x="304" d="M90 475l37 226h117l-75 -226h-79z" />
<glyph unicode="&#x201a;" horiz-adv-x="304" d="M90 -113l37 226h117l-75 -226h-79z" />
<glyph unicode="&#x201c;" horiz-adv-x="502" d="M412 701l-37 -226h-117l75 226h79zM214 701l-37 -226h-117l75 226h79z" />
<glyph unicode="&#x201d;" horiz-adv-x="502" d="M90 475l37 226h117l-75 -226h-79zM288 475l37 226h117l-75 -226h-79z" />
<glyph unicode="&#x201e;" horiz-adv-x="502" d="M90 -113l37 226h117l-75 -226h-79zM288 -113l37 226h117l-75 -226h-79z" />
<glyph unicode="&#x2020;" horiz-adv-x="463" d="M398 500v-115h-106v-565h-123v565h-104v115h104v200h123v-200h106z" />
<glyph unicode="&#x2021;" horiz-adv-x="463" d="M398 115v-115h-106v-180h-123v180h-104v115h104v270h-104v115h104v200h123v-200h106v-115h-106v-270h106z" />
<glyph unicode="&#x2022;" horiz-adv-x="460" d="M70 349q0 66 47 113t114 47q65 0 112 -47t47 -113t-47 -113.5t-112 -47.5q-67 0 -114 47t-47 114z" />
<glyph unicode="&#x2026;" horiz-adv-x="787" d="M65 0v136h136v-136h-136zM331 0v136h136v-136h-136zM587 0v136h135v-136h-135z" />
<glyph unicode="&#x202f;" horiz-adv-x="188" />
<glyph unicode="&#x2030;" horiz-adv-x="1412" d="M392 542v-122q0 -68 -47 -114t-113 -46h-7q-66 0 -113 47t-47 113v122q0 66 47 113t113 47h7q65 0 112.5 -47t47.5 -113zM274 409v143q0 18 -14.5 31t-32.5 13t-31.5 -13t-13.5 -31v-142q0 -18 14 -31.5t33 -13.5q17 0 31 13t14 31zM942 272v-121q0 -67 -47.5 -114 t-113.5 -47h-7q-65 0 -112 47.5t-47 113.5v121q0 67 47 113.5t112 46.5h7q67 0 114 -46t47 -114zM824 140v143q0 18 -14.5 31t-33.5 13q-17 0 -30.5 -13t-13.5 -31v-142q0 -19 13.5 -32t32.5 -13q18 0 32 13t14 31zM261 0l364 701h124l-362 -701h-126zM1347 272v-121 q0 -67 -47.5 -114t-113.5 -47h-7q-65 0 -112 47.5t-47 113.5v121q0 67 47 113.5t112 46.5h7q67 0 114 -46t47 -114zM1229 140v143q0 18 -14.5 31t-33.5 13q-17 0 -30.5 -13t-13.5 -31v-142q0 -19 13.5 -32t32.5 -13q18 0 32 13t14 31z" />
<glyph unicode="&#x2039;" horiz-adv-x="393" d="M333 120h-143l-130 167l130 168h142l-129 -168z" />
<glyph unicode="&#x203a;" horiz-adv-x="393" d="M203 120h-142l129 167l-130 168h143l130 -168z" />
<glyph unicode="&#x2044;" horiz-adv-x="249" d="M-119 0l364 701h124l-362 -701h-126z" />
<glyph unicode="&#x205f;" horiz-adv-x="235" />
<glyph unicode="&#x20ac;" horiz-adv-x="566" d="M428 463v-91h-210v-43h181v-92h-181v-57q0 -31 22.5 -52.5t53.5 -21.5q32 0 54.5 21t22.5 52v8h125v-7q0 -79 -58 -134.5t-141 -55.5h-5q-83 0 -141 56.5t-58 136.5v54h-43v92h43v43h-43v91h43v54q0 80 58.5 136t140.5 56h5q84 0 141 -54.5t57 -141.5h-125q0 37 -22 59 t-54 22q-31 0 -53.5 -21.5t-22.5 -52.5v-57h210z" />
<glyph unicode="&#x2122;" horiz-adv-x="788" d="M60 597v103h263v-103h-80v-309h-108v309h-75zM619 700h109v-412h-108v230l-39 -69h-69l-39 70v-231h-106v412h108l71 -137z" />
<glyph unicode="&#x2212;" horiz-adv-x="588" d="M523 335v-119h-458v119h458z" />
<glyph unicode="&#xfb01;" horiz-adv-x="630" d="M437 0v395h-226v-395h-117v395h-64v105h64v62q0 62 43.5 105t106.5 43q56 0 114 -39l-67 -88q-32 22 -47 22t-24 -9.5t-9 -24.5v-71h344v-500h-118zM433 572v128h127v-128h-127z" />
<glyph unicode="&#xfb02;" horiz-adv-x="621" d="M433 0v595h-189q-15 0 -24 -9.5t-9 -24.5v-61h114v-105h-114v-395h-117v395h-64v105h64v52q0 62 43.5 105t106.5 43h307v-700h-118z" />
</font>
</defs>
</svg>
