<?xml version="1.0" encoding="utf-8"?>
<!-- Generator: Adobe Illustrator 16.0.0, SVG Export Plug-In . SVG Version: 6.00 Build 0)  -->
<!DOCTYPE svg PUBLIC "-//W3C//DTD SVG 1.1//EN" "http://www.w3.org/Graphics/SVG/1.1/DTD/svg11.dtd">
<svg version="1.1" id="Layer_1" xmlns="http://www.w3.org/2000/svg" xmlns:xlink="http://www.w3.org/1999/xlink" x="0px" y="0px"
	 width="94px" height="94px" viewBox="0 0 94 94" enable-background="new 0 0 94 94" xml:space="preserve">
<g>
	<g>
		<path fill="#98694C" d="M24.062,68.203l-9.546-4.616l-0.011-0.008l1.868-10.445c0.562,2.815,1.501,5.524,2.8,8.071
			C20.477,63.754,22.116,66.1,24.062,68.203"/>
		<polygon fill="#98694C" points="24.899,69.44 26.187,86.322 19.62,74.717 		"/>
		<path fill="#98694C" d="M30.456,79.496l-4.636-9.542c2.103,1.938,4.46,3.575,7.015,4.878c2.558,1.302,5.267,2.243,8.066,2.796
			L30.46,79.496H30.456z"/>
		<polygon fill="#98694C" points="25.392,70.078 30.085,79.738 26.646,86.501 		"/>
		<polygon fill="#98694C" points="41.056,78.05 27.039,86.703 30.478,79.939 		"/>
		<polygon fill="#98694C" points="41.864,78.068 40.708,85.39 40.7,85.441 27.446,86.972 		"/>
		<path fill="#98694C" d="M53.322,91.545c-2.118,0.3-4.265,0.455-6.39,0.455c-6.779,0-13.566-1.575-19.682-4.562l13.607-1.572
			L53.322,91.545z"/>
		<polygon fill="#98694C" points="42.3,78.137 53.282,91.038 41.137,85.51 		"/>
		<polygon fill="#98694C" points="53.748,90.91 43.074,78.365 52.555,83.411 		"/>
		<path fill="#98694C" d="M51.891,77.833c2.837-0.451,5.583-1.285,8.174-2.48l-7.351,7.644l-9.363-4.983
			C46.184,78.347,49.064,78.285,51.891,77.833"/>
		<polygon fill="#98694C" points="60.436,75.606 54.185,90.84 52.993,83.342 		"/>
		<polygon fill="#98694C" points="64.495,81.79 64.495,81.792 54.673,90.818 54.669,90.818 61.101,75.143 		"/>
		<path fill="#98694C" d="M54.786,91.31l10.083-9.267h0.004l13.423-2.73C71.81,85.606,63.71,89.743,54.786,91.31"/>
		<polygon fill="#98694C" points="77.962,78.923 64.892,81.591 61.497,74.945 		"/>
		<polygon fill="#98694C" points="78.271,78.545 62.26,74.673 72.896,73.183 		"/>
		<path fill="#98694C" d="M74.222,62.246l-1.442,10.508l-10.498,1.472c2.485-1.402,4.769-3.135,6.791-5.164
			C71.099,67.032,72.826,64.745,74.222,62.246"/>
		<polygon fill="#98694C" points="74.669,62.231 78.578,78.233 73.209,72.871 		"/>
		<polygon fill="#98694C" points="81.595,64.849 78.96,77.929 74.938,61.468 		"/>
		<polygon fill="#98694C" points="90.823,54.616 81.797,64.452 75.14,61.075 		"/>
		<path fill="#98694C" d="M82.05,64.827l9.266-10.09c-1.535,8.776-5.76,17.074-11.971,23.518L82.05,64.827z"/>
		<polygon fill="#98694C" points="90.845,54.132 75.599,60.411 83.343,52.954 		"/>
		<path fill="#98694C" d="M77.98,43.323l5.017,9.351l-0.007,0.007l-7.638,7.352c1.195-2.603,2.025-5.344,2.47-8.17
			C78.267,49.041,78.317,46.175,77.98,43.323"/>
		<polygon fill="#98694C" points="90.911,53.695 83.416,52.517 83.412,52.517 78.332,43.048 		"/>
		<polygon fill="#98694C" points="91.04,53.225 78.102,42.273 85.472,41.095 		"/>
		<path fill="#98694C" d="M91.546,53.266l-5.715-12.449l1.562-13.612c1.965,4.008,3.314,8.283,4.02,12.724
			C92.122,44.365,92.167,48.847,91.546,53.266"/>
		<polygon fill="#98694C" points="78.031,41.836 78.12,41.697 81.624,36.005 86.929,27.402 85.401,40.659 78.138,41.822 		"/>
		<polygon fill="#98694C" points="86.665,26.991 86.558,27.167 78.013,41.026 79.899,30.441 		"/>
		<path fill="#98694C" d="M69.894,25.806l9.562,4.617l-1.864,10.459c-0.562-2.815-1.502-5.523-2.805-8.07
			C73.487,30.257,71.843,27.909,69.894,25.806"/>
		<polygon fill="#98694C" points="86.462,26.598 79.697,30.052 70.026,25.38 		"/>
		<polygon fill="#98694C" points="86.29,26.144 69.376,24.889 74.651,19.596 		"/>
		<path fill="#98694C" d="M68.033,7.239c7.906,4.198,14.494,10.772,18.683,18.637l-11.94-6.716L68.033,7.239z"/>
		<polygon fill="#98694C" points="74.339,19.288 69.064,24.577 67.769,7.668 74.339,19.284 		"/>
		<polygon fill="#98694C" points="68.573,23.934 63.874,14.263 67.31,7.503 		"/>
		<path fill="#98694C" d="M68.144,24.062c-2.104-1.938-4.46-3.578-7.014-4.877c-2.562-1.307-5.271-2.246-8.071-2.8l10.445-1.876
			L68.144,24.062z"/>
		<polygon fill="#98694C" points="66.921,7.301 63.482,14.062 52.911,15.962 		"/>
		<polygon fill="#98694C" points="66.514,7.033 52.096,15.944 53.26,8.564 		"/>
		<path fill="#98694C" d="M40.634,2.457c8.971-1.277,17.955,0.136,26.074,4.107l-13.605,1.57L40.634,2.457z"/>
		<polygon fill="#98694C" points="52.823,8.494 51.66,15.875 40.679,2.963 		"/>
		<polygon fill="#98694C" points="50.89,15.647 41.405,10.59 40.212,3.095 		"/>
		<path fill="#98694C" d="M41.247,11.004L50.614,16c-2.834-0.327-5.719-0.268-8.541,0.183c-2.842,0.452-5.583,1.285-8.178,2.481
			L41.247,11.004z"/>
		<polygon fill="#98694C" points="40.968,10.66 33.532,18.407 39.698,3.349 39.774,3.165 		"/>
		<polygon fill="#98694C" points="29.462,12.212 39.29,3.183 32.864,18.869 32.86,18.869 29.462,12.215 		"/>
		<path fill="#98694C" d="M39.173,2.691l-10.082,9.267h-0.004l-13.419,2.731C22.15,8.395,30.25,4.258,39.173,2.691"/>
		<polygon fill="#98694C" points="32.467,19.071 15.994,15.075 29.069,12.414 		"/>
		<polygon fill="#98694C" points="31.7,19.343 21.063,20.818 15.697,15.456 		"/>
		<path fill="#98694C" d="M31.689,19.787c-2.492,1.398-4.772,3.134-6.802,5.167c-2.022,2.029-3.75,4.319-5.148,6.819l1.441-10.526
			L31.689,19.787z"/>
		<polygon fill="#98694C" points="20.751,21.13 19.291,31.781 15.382,15.769 		"/>
		<polygon fill="#98694C" points="15,16.069 19.026,32.548 12.364,29.153 		"/>
		<path fill="#98694C" d="M14.614,15.746l-2.705,13.429L2.646,39.264C4.183,30.489,8.404,22.19,14.614,15.746"/>
		<polygon fill="#98694C" points="12.163,29.546 18.824,32.941 3.134,39.385 		"/>
		<polygon fill="#98694C" points="18.362,33.608 10.617,41.051 3.115,39.869 		"/>
		<path fill="#98694C" d="M18.615,33.975c-1.196,2.606-2.03,5.344-2.478,8.177c-0.444,2.83-0.496,5.704-0.154,8.537l-5.021-9.363
			L18.615,33.975z"/>
		<polygon fill="#98694C" points="10.548,41.484 15.632,50.964 3.046,40.303 		"/>
		<polygon fill="#98694C" points="15.862,51.738 8.492,52.913 2.917,40.776 		"/>
		<path fill="#98694C" d="M2.414,40.736l5.719,12.453L6.565,66.8c-1.959-4.007-3.314-8.283-4.02-12.724
			C1.838,49.639,1.794,45.15,2.414,40.736"/>
		<polygon fill="#98694C" points="15.933,52.179 7.031,66.606 8.562,53.35 15.933,52.175 		"/>
		<polygon fill="#98694C" points="24.587,69.124 19.309,74.405 7.678,67.858 		"/>
		<polygon fill="#98694C" points="23.94,68.632 7.505,67.402 14.263,63.953 		"/>
		<polygon fill="#98694C" points="15.95,52.99 14.061,63.56 7.304,67.006 		"/>
		<path fill="#98694C" d="M25.923,86.758c-2.309-1.236-4.35-2.518-6.066-3.82c-0.062-0.052-0.151-0.063-0.225-0.025L3.706,90.289
			l7.399-15.972c0.033-0.074,0.026-0.159-0.025-0.224c-1.622-2.176-2.831-4.044-3.847-5.972l11.951,6.721L25.923,86.758z"/>
	</g>
	<g>
		<path d="M33.644,44.759c0-1.639,1.219-2.801,2.662-2.801c1.457,0,2.605,1.092,2.605,2.563c0,2.969-4.202,3.74-4.202,6.275h4.202
			v1.106h-5.379V50.88c0-3.334,4.202-4.02,4.202-6.443c0-0.785-0.672-1.373-1.443-1.373c-0.854,0-1.471,0.756-1.471,1.695H33.644z"
			/>
		<path d="M44.608,48.107c-0.294,0.294-0.756,0.602-1.443,0.602h-0.098c-1.457,0-2.619-1.134-2.619-2.563v-1.597
			c0-1.429,1.163-2.591,2.619-2.591h0.098c1.457,0,2.606,1.148,2.606,2.577v4.917c0,1.429-1.107,2.591-2.564,2.591h-0.07
			c-1.471,0-2.591-1.163-2.591-2.605h1.19c0,0.827,0.603,1.485,1.443,1.485c0.812,0,1.429-0.658,1.429-1.485V48.107z M44.608,46.132
			v-1.611c0-0.827-0.672-1.457-1.499-1.457c-0.826,0-1.485,0.645-1.485,1.471v1.597c0,0.812,0.659,1.471,1.485,1.471h0.084
			C43.88,47.603,44.608,46.944,44.608,46.132z"/>
		<path d="M51.748,48.107c-0.294,0.294-0.756,0.602-1.442,0.602h-0.099c-1.456,0-2.619-1.134-2.619-2.563v-1.597
			c0-1.429,1.163-2.591,2.619-2.591h0.099c1.457,0,2.605,1.148,2.605,2.577v4.917c0,1.429-1.106,2.591-2.563,2.591h-0.07
			c-1.471,0-2.592-1.163-2.592-2.605h1.191c0,0.827,0.602,1.485,1.443,1.485c0.812,0,1.428-0.658,1.428-1.485V48.107z
			 M51.748,46.132v-1.611c0-0.827-0.672-1.457-1.498-1.457s-1.485,0.645-1.485,1.471v1.597c0,0.812,0.659,1.471,1.485,1.471h0.084
			C51.02,47.603,51.748,46.944,51.748,46.132z"/>
		<path d="M59.406,46.636h-3.123v0.799h2.689v1.106h-2.689v0.924c0,0.812,0.658,1.485,1.484,1.485s1.485-0.658,1.485-1.471v-0.168
			h1.176v0.154c0,1.429-1.162,2.578-2.618,2.578h-0.084c-1.457,0-2.62-1.163-2.62-2.591v-0.911h-0.658v-1.106h0.658v-0.799h-0.658
			v-1.106h0.658v-0.995c0-1.429,1.163-2.577,2.62-2.577h0.084c1.456,0,2.618,1.106,2.618,2.591h-1.176
			c0-0.812-0.659-1.471-1.485-1.471s-1.484,0.658-1.484,1.471v0.98h3.123V46.636z"/>
	</g>
</g>
</svg>
