<svg width="178" height="44" fill="none" xmlns="http://www.w3.org/2000/svg"><path d="M67.233 18.412c-.493.755-1.178 1.342-2.058 1.766-.88.42-1.913.63-3.1.63-1.267 0-2.367-.282-3.295-.844-.929-.56-1.638-1.361-2.13-2.405-.492-1.04-.738-2.267-.738-3.682v-.876c0-1.404.253-2.631.761-3.681.509-1.047 1.227-1.854 2.156-2.419.929-.564 2.011-.846 3.252-.846 1.214 0 2.254.216 3.12.65.867.432 1.54 1.033 2.019 1.798.479.764.764 1.65.86 2.654H64.9c-.063-.866-.306-1.513-.739-1.936-.43-.423-1.122-.636-2.077-.636-.997 0-1.736.354-2.215 1.063-.482.709-.722 1.82-.722 3.33v.896c0 1.017.099 1.848.296 2.487.197.64.508 1.12.935 1.434.426.315.99.473 1.696.473.916 0 1.598-.204 2.048-.607.45-.404.705-1.027.768-1.867h3.18c-.066.99-.345 1.86-.837 2.618zm9.329-8.63c.177.023.318.053.426.082l-.04 2.878a8.253 8.253 0 00-1.085-.079c-1.1 0-1.812.351-2.146 1.054v6.89h-3.068V9.948h2.887l.092 1.289c.272-.48.614-.847 1.03-1.103a2.635 2.635 0 011.408-.384c.154 0 .322.01.496.033zm5.522-3.695c.315.286.473.653.473 1.1 0 .446-.158.813-.473 1.099-.315.285-.732.43-1.243.43-.51 0-.92-.145-1.234-.43-.315-.286-.473-.653-.473-1.1 0-.446.158-.813.473-1.099.315-.285.725-.43 1.234-.43.511 0 .928.145 1.243.43zm-2.773 14.52V9.948h3.082v10.66H79.31zm11.872-2.313v2.238c-.528.184-1.132.276-1.808.276-2.156 0-3.232-1.064-3.232-3.193v-5.5h-1.555V9.946h1.555V7.305h3.068v2.641h1.851v2.17h-1.85v5.154c0 .42.085.71.252.863.17.155.456.233.863.233a4.86 4.86 0 00.856-.072zm5.198-12.207c.315.286.473.653.473 1.1 0 .446-.158.813-.473 1.099-.315.285-.728.43-1.243.43-.51 0-.92-.145-1.234-.43-.315-.286-.473-.653-.473-1.1 0-.446.158-.813.473-1.099.315-.285.725-.43 1.234-.43.515 0 .928.145 1.243.43zm-2.77 14.52V9.948h3.082v10.66h-3.081zm14.645-3.734c0 .755-.203 1.431-.61 2.031-.407.601-.958 1.064-1.65 1.398-.696.335-1.467.502-2.314.502-1.106 0-2.038-.233-2.805-.698a4.386 4.386 0 01-1.723-1.923c-.384-.817-.574-1.743-.574-2.78v-.256c0-1.037.19-1.965.574-2.779a4.431 4.431 0 011.716-1.923c.761-.466 1.693-.699 2.789-.699.903 0 1.7.17 2.392.509a3.812 3.812 0 011.621 1.457c.388.633.581 1.381.581 2.24h-2.878c-.006-.524-.167-.957-.479-1.299-.311-.34-.745-.511-1.299-.511-.745 0-1.257.272-1.536.813-.279.542-.417 1.274-.417 2.192v.256c0 .939.138 1.677.411 2.209.275.531.794.797 1.558.797.529 0 .952-.138 1.27-.413.318-.276.483-.65.489-1.123h2.884zm11.131 2.573c.075.374.187.705.335.994v.168h-3.078a3.154 3.154 0 01-.296-.955c-.699.768-1.614 1.151-2.753 1.151a4.272 4.272 0 01-1.89-.413 3.348 3.348 0 01-1.345-1.142 2.873 2.873 0 01-.492-1.647c0-1.122.429-1.989 1.289-2.596.86-.607 2.127-.912 3.8-.912h1.25v-.6c0-.493-.128-.877-.387-1.149s-.643-.41-1.158-.41c-.466 0-.834.108-1.093.321-.259.214-.39.519-.39.913h-3.069c0-.637.194-1.215.585-1.736.39-.522.941-.929 1.657-1.23.715-.303 1.539-.454 2.474-.454.866 0 1.637.142 2.307.424.669.282 1.194.705 1.575 1.27.38.564.567 1.253.567 2.07v4.463c0 .607.036 1.096.112 1.47zm-3.925-1.178c.338-.187.588-.417.742-.686v-1.785h-1.168c-.712 0-1.241.151-1.592.45a1.47 1.47 0 00-.525 1.168c0 .335.125.607.371.817.246.21.578.315.991.315.45.003.843-.092 1.181-.28zm6.146 2.34V5.47h3.082v15.137h-3.082zm-51.75 7.07c.56.582.843 1.494.843 2.734v6.402h-1.116v-6.412c0-.974-.21-1.66-.633-2.06-.423-.4-1.024-.6-1.801-.6-.6 0-1.12.127-1.559.386-.44.256-.781.584-1.024.975a2.749 2.749 0 00-.42 1.208v6.5h-1.122v-6.5c0-.926-.213-1.585-.64-1.98-.427-.393-1.034-.59-1.821-.59-.788 0-1.42.217-1.907.653a3.68 3.68 0 00-1.043 1.66v6.754h-1.122v-9.822h1.086l.03 1.589a3.717 3.717 0 011.361-1.303c.558-.312 1.201-.466 1.923-.466.768 0 1.411.154 1.93.463.518.308.886.787 1.105 1.434a3.825 3.825 0 011.401-1.382c.598-.344 1.284-.518 2.064-.518 1.08.003 1.904.295 2.465.876zm11.065 8.152c.052.358.127.643.23.863v.118h-1.198c-.119-.322-.194-.778-.224-1.372a4.14 4.14 0 01-1.427 1.123c-.584.288-1.25.43-1.998.43-.65 0-1.221-.122-1.713-.358a2.771 2.771 0 01-1.149-.995 2.594 2.594 0 01-.407-1.433c0-.637.187-1.188.558-1.658.371-.469.906-.83 1.602-1.08.695-.248 1.516-.377 2.457-.377h2.07v-1.109c0-.708-.226-1.263-.678-1.666-.453-.404-1.096-.604-1.933-.604a3.46 3.46 0 00-1.391.269c-.417.18-.739.42-.975.722a1.602 1.602 0 00-.351.997l-1.122-.01c0-.489.164-.958.495-1.4.332-.444.794-.805 1.385-1.077.594-.272 1.26-.41 2.005-.41.732 0 1.375.118 1.93.357.554.24.987.598 1.295 1.077.309.479.463 1.066.463 1.762v4.748a6.94 6.94 0 00.076 1.083zm-2.458-.338c.58-.361.997-.824 1.253-1.395v-2.169h-1.92c-.76 0-1.414.089-1.962.263-.548.177-.964.426-1.253.755a1.717 1.717 0 00-.436 1.171c0 .358.095.683.282.971.187.289.453.522.797.69.345.17.742.252 1.198.252.78 0 1.46-.18 2.04-.538zm12.187-7.823c.551.574.83 1.49.83 2.743v6.402H90.36v-6.402c0-.968-.204-1.653-.61-2.06-.407-.407-.998-.608-1.779-.608-.732 0-1.355.224-1.874.667a3.946 3.946 0 00-1.142 1.657v6.746h-1.122v-9.828h1.076l.036 1.66a3.954 3.954 0 011.395-1.351 3.777 3.777 0 011.91-.489c1.047 0 1.847.289 2.402.863zm11.344-.683v9.825h-1.077l-.029-1.244c-.67.952-1.743 1.425-3.223 1.425-1.05 0-1.867-.3-2.454-.896-.587-.598-.88-1.54-.88-2.829v-6.28h1.123v6.3c0 .98.213 1.686.643 2.116.426.43.994.643 1.7.643.85 0 1.525-.173 2.028-.521.502-.348.849-.82 1.043-1.421v-7.117h1.126zm5.361-2.799c-.347.371-.518.896-.518 1.576v1.223h2.425v.89h-2.425v8.935h-1.116v-8.932h-1.686v-.89h1.686v-1.223c0-.988.263-1.75.791-2.284.528-.535 1.26-.804 2.195-.804.424 0 .824.053 1.198.154l-.085.91a4.584 4.584 0 00-1.031-.109c-.61-.003-1.089.18-1.434.555zm11.272 11.643c.052.358.128.643.23.863v.118h-1.198c-.118-.322-.194-.778-.227-1.372a4.14 4.14 0 01-1.427 1.123c-.584.288-1.25.43-1.998.43-.65 0-1.221-.122-1.713-.358a2.778 2.778 0 01-1.149-.995 2.597 2.597 0 01-.407-1.433c0-.637.187-1.188.558-1.658.371-.469.906-.83 1.602-1.08.695-.248 1.516-.377 2.457-.377h2.071v-1.109c0-.708-.227-1.263-.679-1.666-.453-.404-1.096-.604-1.933-.604-.512 0-.975.088-1.391.269-.417.177-.739.42-.975.722a1.602 1.602 0 00-.351.997l-1.122-.01c0-.489.164-.958.495-1.4.332-.447.794-.805 1.385-1.077.591-.272 1.26-.41 2.005-.41.732 0 1.371.118 1.929.357.558.24.988.598 1.296 1.077.309.479.463 1.066.463 1.762v4.748c0 .367.026.728.079 1.083zm-2.458-.338c.581-.361.998-.824 1.254-1.395v-2.169h-1.92c-.761 0-1.414.089-1.962.263-.548.177-.965.426-1.254.755a1.72 1.72 0 00-.436 1.171c0 .358.095.683.282.971.187.289.453.522.797.69.345.17.742.252 1.198.252.781 0 1.46-.18 2.041-.538zm13.008-1.723a3.045 3.045 0 01-.581 1.657 3.606 3.606 0 01-1.408 1.152 4.39 4.39 0 01-1.897.413c-.925 0-1.709-.213-2.359-.64a3.995 3.995 0 01-1.47-1.748c-.331-.739-.495-1.575-.495-2.514v-.38c0-.933.164-1.77.495-2.51a3.986 3.986 0 011.47-1.753c.65-.427 1.431-.64 2.34-.64.725 0 1.375.141 1.955.427a3.397 3.397 0 011.385 1.22c.345.529.532 1.142.561 1.838h-1.066c-.033-.522-.174-.971-.427-1.359a2.52 2.52 0 00-1.01-.889c-.42-.21-.89-.312-1.402-.312-.731 0-1.335.18-1.811.542-.479.36-.827.84-1.05 1.44-.223.6-.331 1.267-.331 1.999v.38c0 .739.108 1.405.328 2.002a3.06 3.06 0 001.05 1.434c.479.36 1.092.541 1.834.541.479 0 .929-.088 1.342-.269.417-.177.755-.44 1.021-.784.265-.344.416-.758.452-1.244h1.074v-.003zm6.274 3.078a2.895 2.895 0 01-.529.105c-.223.026-.446.04-.669.04-.699 0-1.244-.197-1.628-.591-.387-.394-.581-1.057-.581-1.989V27.88h-1.854v-.89h1.854v-2.523h1.133v2.524h2.086v.89h-2.086v6.536c0 .63.118 1.056.351 1.286.233.226.554.341.958.341.223 0 .531-.033.919-.098l.046.902zm9.775-9.86v9.824h-1.077l-.029-1.244c-.669.952-1.742 1.425-3.222 1.425-1.05 0-1.867-.3-2.455-.896-.587-.598-.879-1.54-.879-2.829v-6.28h1.122v6.3c0 .98.213 1.686.643 2.116.427.43.994.643 1.7.643.85 0 1.526-.173 2.028-.521.502-.348.85-.82 1.043-1.421v-7.117h1.126zm7.586.918a5.192 5.192 0 00-.748-.062c-.732 0-1.332.197-1.808.59-.476.394-.807.93-1.001 1.608v6.773h-1.122v-9.828h1.096l.03 1.543c.282-.545.659-.968 1.138-1.27.479-.302 1.047-.453 1.71-.453.131 0 .269.01.413.033.145.023.256.046.338.079l-.046.987zm3.049-4.285c.141.138.21.315.21.525a.676.676 0 01-.21.512c-.141.134-.328.203-.568.203a.777.777 0 01-.558-.203.686.686 0 01-.21-.512c0-.21.069-.387.21-.525a.763.763 0 01.558-.21c.24 0 .427.072.568.21zm-1.129 13.191v-9.825h1.116v9.825h-1.116zm10.989-9.142c.552.574.83 1.49.83 2.743v6.402h-1.122v-6.402c0-.968-.203-1.653-.61-2.06-.407-.407-.998-.608-1.779-.608-.731 0-1.355.224-1.873.667a3.94 3.94 0 00-1.142 1.657v6.746h-1.122v-9.828h1.076l.036 1.66a3.958 3.958 0 011.394-1.351c.568-.328 1.205-.489 1.91-.489 1.05 0 1.851.289 2.402.863zm11.439-.683v9.651c0 .84-.167 1.572-.502 2.189a3.43 3.43 0 01-1.418 1.417c-.61.328-1.325.49-2.142.49-.67 0-1.326-.145-1.972-.437a3.85 3.85 0 01-1.559-1.244l.627-.663c.4.486.833.84 1.302 1.07.47.23.982.345 1.536.345.955 0 1.697-.276 2.218-.827.525-.552.788-1.32.788-2.307v-1.145a3.552 3.552 0 01-1.313 1.08c-.525.252-1.135.38-1.834.38-.787 0-1.473-.21-2.061-.63-.587-.42-1.037-1.01-1.352-1.765-.315-.759-.472-1.622-.472-2.596v-.19c0-1.011.157-1.894.469-2.648.312-.755.761-1.336 1.349-1.743.587-.407 1.283-.614 2.087-.614.712 0 1.329.138 1.854.414.525.276.958.67 1.302 1.184l.046-1.417h1.047v.006zm-2.238 8.578a3.222 3.222 0 001.116-1.329v-4.541a3.292 3.292 0 00-1.063-1.401c-.473-.361-1.09-.542-1.851-.542-.663 0-1.217.177-1.667.528-.449.352-.784.83-1.001 1.438-.22.607-.328 1.306-.328 2.093V32c0 .782.108 1.477.328 2.087.22.61.548 1.093.995 1.441.442.348.994.522 1.657.522.728 0 1.332-.164 1.814-.486zM0 44.001h44V0H0v44zm40.657-3.344H3.344V3.344h37.313v37.313zm-6.425-24.6a2.928 2.928 0 00-2.924-2.924h-.394a2.928 2.928 0 00-2.923 2.923v14.812h6.237V16.056h.004zm-9.185 0a2.928 2.928 0 00-2.924-2.924h-.393a2.928 2.928 0 00-2.924 2.923v14.812h6.238V16.056h.003zm-9.496 14.848l.466.091V12.982l-.48.115c-3.868.928-6.467 4.505-6.467 8.902 0 4.489 2.665 8.15 6.48 8.905z" fill="#00558C"/></svg>