<?xml version="1.0" encoding="UTF-8"?><svg xmlns="http://www.w3.org/2000/svg" xmlns:xlink="http://www.w3.org/1999/xlink" viewBox="0 0 500 134.96"><defs><style>.g{fill:url(#e);}.h{fill:url(#d);}.i{fill:none;}.j{fill:#000078;}.k{fill:#29e7d6;}.l{clip-path:url(#f);}</style><linearGradient id="d" x1="80.95" y1="133.6" x2="80.97" y2="133.6" gradientTransform="matrix(1, 0, 0, 1, 0, 0)" gradientUnits="userSpaceOnUse"><stop offset=".1" stop-color="#29e7d6"/><stop offset="1" stop-color="#000078"/></linearGradient><linearGradient id="e" x1="26.99" y1="67.48" x2="161.95" y2="67.48" xlink:href="#d"/><clipPath id="f"><path class="i" d="M80.97,133.6c-30.8-6.25-53.98-33.48-53.98-66.13,0-22.36,18.13-40.49,40.49-40.49s40.49,18.13,40.49,40.49c0,17.63-11.27,32.61-26.99,38.17,4.22,1.49,8.76,2.31,13.5,2.31,22.36,0,40.49-18.13,40.49-40.49v0C134.96,30.21,104.74,0,67.48,0S0,30.21,0,67.48s30.21,67.48,67.48,67.48c4.92,0,9.71-.53,14.32-1.53-.28,.06-.55,.12-.83,.18Z"/></clipPath></defs><g id="a"/><g id="b"><g id="c"><g><path class="j" d="M266.37,35.92h-.02c-4.98-.35-8.69,2.7-8.69,7.8v15.2h-8.1V28.55h8.51c.12,1.45-.13,3.11-.68,4.35,.03-.06,.06-.12,.09-.17,.43-.85,1-1.62,1.68-2.28h0c.07-.07,.14-.14,.21-.21,.54-.49,1.14-.91,1.81-1.24l.06-.03c.05-.03,.11-.05,.16-.08,.05-.02,.1-.05,.15-.07h0c1.94-.85,4.38-1,7.32-.22l-.93,7.54c-.15-.03-.29-.06-.44-.08-.05,0-.1-.02-.16-.03-.13-.02-.26-.04-.39-.05-.04,0-.09-.01-.13-.02-.15-.02-.31-.03-.46-.04Z"/><rect class="j" x="316.06" y="28.55" width="8.1" height="30.37"/><rect class="j" x="316.06" y="17.34" width="8.1" height="6.07"/><rect class="j" x="274.95" y="17.34" width="8.1" height="6.07"/><rect class="j" x="404.45" y="17.34" width="8.1" height="41.58"/><path class="j" d="M308.58,35.57v-7.02h-9.97v-11.21h-8.1v28.65c0,4.3,.69,6.98,2.24,9.03,2.06,2.74,5.61,4.36,10.46,4.36,1.56,0,4.14-.29,5.2-.66l-1.6-6.77c-.56,.12-1.91,.26-3.1,.26-1.99,0-3.3-.56-4.11-1.49-.69-.81-1-1.93-1-3.8v-11.36h9.97Z"/><path class="j" d="M387.95,28.55v1.76c-2.35-1.41-5.1-2.23-8.05-2.23-8.64,0-15.65,7.01-15.65,15.65s7.01,15.65,15.65,15.65c2.94,0,5.7-.81,8.05-2.23v1.76h8.1V28.55h-8.1Zm-8.05,23.36c-4.52,0-8.18-3.66-8.18-8.18s3.66-8.18,8.18-8.18,8.18,3.66,8.18,8.18-3.66,8.18-8.18,8.18Z"/><path class="j" d="M353.53,48.54c-1.49,2.04-3.89,3.37-6.61,3.37-4.52,0-8.18-3.66-8.18-8.18s3.66-8.18,8.18-8.18c2.72,0,5.13,1.33,6.61,3.37l6.05-4.39c-2.85-3.91-7.46-6.45-12.66-6.45-8.64,0-15.65,7.01-15.65,15.65s7.01,15.65,15.65,15.65c5.21,0,9.82-2.54,12.66-6.45l-6.05-4.39Z"/><rect class="j" x="274.95" y="28.55" width="8.1" height="30.37"/><path class="j" d="M236,45.86c-2.39,3.29-6.27,5.43-10.64,5.43-7.27,0-13.16-5.89-13.16-13.16s5.89-13.16,13.16-13.16c4.38,0,8.25,2.14,10.64,5.43l6.55-4.76c-3.86-5.31-10.13-8.76-17.2-8.76-11.74,0-21.26,9.52-21.26,21.26s9.52,21.26,21.26,21.26c7.07,0,13.33-3.45,17.2-8.76l-6.55-4.76Z"/><path class="k" d="M262.43,102.16c0-8.37-5.89-15.37-14.19-15.37-8.92,0-14.63,7.31-14.63,15.68,0,9.42,6.76,15.62,15.74,15.62,4.65,0,9.42-1.92,12.33-5.39l-4.59-4.59c-1.43,1.55-4.15,3.47-7.56,3.47-4.28,0-7.69-2.91-8.12-7.13h20.82c.12-.68,.19-1.49,.19-2.29Zm-20.64-3.59c.37-2.73,3.1-5.27,6.45-5.27s5.7,2.6,5.95,5.27h-12.4Z"/><path class="k" d="M289.36,107.24c-1.49,2.04-3.89,3.37-6.61,3.37-4.51,0-8.18-3.66-8.18-8.18s3.66-8.18,8.18-8.18c2.72,0,5.13,1.33,6.61,3.37l6.05-4.39c-2.85-3.91-7.46-6.45-12.66-6.45-8.64,0-15.65,7.01-15.65,15.65s7.01,15.65,15.65,15.65c5.2,0,9.82-2.54,12.66-6.45l-6.05-4.39Z"/><path class="k" d="M326.36,91.52c-2.43-2.92-6.13-4.74-10.2-4.74-3.02,0-5.8,1.02-7.98,2.71v-13.45h-8.1v41.58h8.1v-20.01c1.23-1.48,3.8-3.31,6.9-3.31,1.82,0,3.4,.61,4.43,1.64,1.09,1.09,1.76,2.61,1.76,5.53v16.15h8.12v-15.77c0-5.04-1.09-8.02-3.04-10.32Z"/><polygon class="k" points="204.11 76.04 204.11 84.14 215.34 84.14 215.34 117.62 223.54 117.62 223.54 84.14 238.38 84.14 234.77 76.04 204.11 76.04"/><polygon class="k" points="372.61 87.25 365.23 104.58 362.74 99 358.59 89.69 357.5 87.25 349.39 87.25 354.64 99 350.69 108.31 336.32 76.04 328.23 76.04 346.78 117.62 354.87 117.62 358.79 108.31 362.9 117.62 367.83 117.62 380.72 87.25 372.61 87.25"/><path class="k" d="M436.28,94.67s.09,.01,.13,.02c.13,.02,.26,.03,.39,.05,.05,0,.1,.02,.16,.03,.14,.02,.29,.05,.44,.08l.93-7.54c-2.93-.78-5.37-.63-7.32,.22h0c-.05,.02-.1,.04-.15,.07-.06,.03-.11,.05-.16,.08l-.06,.03c-.67,.33-1.27,.75-1.81,1.24-.07,.06-.14,.13-.21,.2h0c-.68,.67-1.25,1.44-1.68,2.29-.03,.06-.06,.12-.09,.17,.55-1.25,.8-2.9,.68-4.35h-8.51v30.36h8.1v-15.2c0-5.09,3.71-8.15,8.69-7.8h.02c.15,.01,.3,.03,.46,.04Z"/><path class="k" d="M397.54,86.79c-8.64,0-15.65,7.01-15.65,15.65s7.01,15.65,15.65,15.65,15.65-7.01,15.65-15.65-7.01-15.65-15.65-15.65Zm0,23.82c-4.52,0-8.18-3.66-8.18-8.18s3.66-8.18,8.18-8.18,8.18,3.66,8.18,8.18-3.66,8.18-8.18,8.18Z"/><path class="k" d="M479.86,108.29c2.05,1.86,5.21,2.98,8.24,2.98,2.17,0,3.84-1.05,3.84-2.54,0-4.52-14.56-2.91-14.56-12.58,0-5.76,5.58-9.36,11.53-9.36,3.9,0,8.18,1.49,10.16,3.04l-3.78,5.83c-1.55-1.12-3.59-2.05-5.76-2.05s-4.09,.87-4.09,2.42c0,3.9,14.56,2.36,14.56,12.77,0,5.76-5.64,9.3-11.96,9.3-4.15,0-8.55-1.43-12.09-4.03l3.9-5.76Z"/><polygon class="k" points="459.29 101.39 473.43 87.25 462.86 87.25 454.45 95.66 451.34 98.78 451.34 76.04 443.24 76.04 443.24 117.62 451.34 117.62 451.34 104.24 463.57 117.62 474.14 117.62 459.29 101.39"/><path class="h" d="M80.97,133.6h0Z"/><path class="g" d="M94.47,0c-4.62,0-9.13,.47-13.5,1.35,30.8,6.25,53.98,33.48,53.98,66.13,0,22.36-18.13,40.49-40.49,40.49-.32,0-.65,0-.97-.01-.12,0-.24,0-.36-.01-.2,0-.4-.01-.6-.02-.15,0-.3-.02-.45-.02-.16,0-.32-.02-.47-.03-.18-.01-.35-.03-.53-.04-.12,0-.23-.02-.35-.03-.21-.02-.42-.04-.63-.06-.04,0-.08,0-.12-.01-20.26-2.22-36.02-19.39-36.02-40.24,0-17.63,11.27-32.62,26.99-38.18-4.22-1.49-8.76-2.31-13.5-2.31-22.36,0-40.49,18.13-40.49,40.49,0,.55,0,1.1,.02,1.64,0,.18,.01,.36,.02,.54,.01,.37,.02,.73,.04,1.1,.01,.21,.02,.42,.03,.63,.02,.33,.04,.67,.06,1,.02,.22,.03,.44,.05,.65,.03,.33,.06,.65,.09,.97,.02,.22,.04,.43,.07,.65,.03,.33,.07,.66,.11,.98,.03,.21,.05,.41,.08,.62,.05,.35,.1,.71,.15,1.06,.03,.18,.05,.35,.08,.53,.08,.49,.16,.98,.24,1.47,0,.03,.01,.07,.02,.1,.09,.52,.19,1.04,.3,1.56,.03,.17,.07,.34,.11,.51,.07,.35,.15,.7,.23,1.04,.05,.2,.09,.4,.14,.6,.07,.31,.15,.63,.23,.94,.05,.21,.11,.42,.16,.63,.08,.3,.16,.6,.24,.91,.06,.21,.12,.42,.18,.62,.09,.3,.18,.61,.27,.91,.06,.2,.12,.4,.18,.6,.1,.32,.21,.64,.31,.96,.06,.18,.11,.35,.17,.53,.14,.42,.29,.84,.44,1.26,.03,.07,.05,.14,.08,.21,.18,.48,.36,.96,.55,1.44,.06,.16,.13,.33,.2,.49,.13,.32,.25,.63,.39,.95,.08,.19,.16,.38,.25,.58,.12,.28,.25,.57,.37,.85,.09,.2,.18,.4,.27,.6,.12,.27,.25,.54,.38,.81,.09,.2,.19,.4,.29,.6,.13,.27,.26,.54,.4,.8,.1,.19,.19,.39,.29,.58,.14,.28,.29,.56,.44,.83,.09,.18,.19,.35,.28,.53,.19,.34,.38,.68,.57,1.02,.06,.11,.12,.21,.18,.32,.25,.43,.51,.87,.77,1.29,.1,.16,.2,.33,.3,.49,.17,.27,.34,.54,.51,.81,.12,.19,.24,.37,.36,.55,.16,.24,.32,.49,.48,.73,.13,.19,.26,.38,.39,.57,.16,.23,.32,.47,.48,.7,.13,.19,.27,.38,.4,.57,.16,.23,.33,.46,.5,.68,.14,.18,.27,.37,.41,.55,.18,.23,.35,.46,.53,.69,.13,.17,.27,.35,.4,.52,.21,.26,.42,.52,.63,.79,.11,.13,.22,.27,.33,.4,.31,.38,.63,.75,.95,1.13,.14,.16,.28,.32,.42,.48,.19,.22,.39,.44,.59,.66,.16,.17,.32,.35,.48,.52,.18,.2,.37,.4,.56,.6,.17,.18,.33,.35,.5,.53,.18,.19,.37,.38,.56,.57,.17,.17,.35,.35,.52,.52,.19,.19,.38,.37,.57,.55,.18,.17,.35,.34,.53,.51,.19,.18,.39,.36,.59,.55,.18,.16,.35,.33,.53,.49,.21,.19,.43,.38,.65,.58,.2,.18,.4,.35,.6,.53,.33,.28,.66,.57,1,.84,.18,.15,.37,.3,.56,.45,.21,.17,.41,.34,.62,.5,.2,.16,.4,.31,.6,.47,.2,.16,.4,.31,.61,.46,.21,.16,.41,.31,.62,.46,.2,.15,.4,.3,.61,.44,.21,.15,.42,.3,.64,.45,.2,.14,.41,.28,.61,.43,.21,.15,.43,.29,.65,.44,.21,.14,.42,.28,.63,.41,.22,.14,.43,.29,.65,.43,.21,.14,.43,.27,.64,.4,.35,.22,.7,.43,1.06,.65,.28,.16,.55,.33,.83,.49,.23,.13,.46,.26,.69,.39,.21,.12,.43,.24,.65,.36,.23,.13,.47,.25,.71,.38,.21,.11,.43,.23,.64,.34,.24,.12,.48,.25,.72,.37,.22,.11,.43,.22,.65,.32,.24,.12,.49,.24,.73,.35,.22,.1,.43,.2,.65,.3,.25,.11,.5,.23,.74,.34,.22,.1,.44,.19,.66,.29,.25,.11,.5,.22,.76,.33,.23,.1,.46,.19,.7,.28,.53,.22,1.07,.43,1.61,.63,.16,.06,.31,.12,.47,.18,.26,.1,.53,.19,.79,.28,.22,.08,.45,.16,.67,.24,.26,.09,.53,.18,.79,.26,.23,.07,.45,.15,.68,.22,.27,.08,.53,.17,.8,.25,.23,.07,.46,.14,.69,.21,.27,.08,.54,.15,.81,.23,.23,.06,.47,.13,.7,.19,.27,.07,.54,.14,.81,.21,.23,.06,.47,.12,.71,.17,.27,.07,.55,.13,.82,.19,.24,.05,.47,.1,.71,.15,.27,.06,.53,.12,.8,.17,.28-.06,.57-.11,.85-.17-.28,.06-.55,.12-.83,.18,4.36,.89,8.87,1.35,13.5,1.35,37.27,0,67.48-30.21,67.48-67.48S131.74,0,94.47,0Z"/><g class="l"><path class="k" d="M58.79,14.31L40.71,0l1.18-1.49,19.24,15.22-8.13,17.97-1.73-.79,7.52-16.61Zm8.75,13.18l1.27,1.42,14.74-13.11-11.39-21.73-1.69,.88,10.7,20.42-13.63,12.12ZM15.88,51.98l11.64,14.04,1.47-1.21-12.58-15.19L-5.72,60.24l.82,1.72,20.78-9.98ZM56.52,29.02l1.61,1.02,10.55-16.66L51.74-4.38l-1.38,1.31,15.91,16.68-9.76,15.4Zm5.46-1.15l1.45,1.23,12.77-15.03L61.89-5.87l-1.55,1.11,13.44,18.73-11.81,13.9Zm-15.63,5.66l1.83,.54,5.55-18.93L32.55,2.75l-.96,1.64,19.89,11.64-5.13,17.5Zm-24.19,4.82l7.31,16.7,1.74-.76-7.91-18.07L-.89,40.34l.32,1.88,22.72-3.87Zm-3.61,6.59l9.57,15.52,1.62-1-10.35-16.79-23.38,7.44,.58,1.81,21.96-6.99Zm19.26-4.28h1.9l.12-19.71-23.77-6.08-.47,1.84,22.33,5.71-.11,18.24Zm-3.44,4.39l1.89-.25-2.62-19.55-24.39-2.71-.21,1.89,22.91,2.55,2.43,18.07Zm-7.72-12.73l4.92,17.56,1.83-.51-5.32-18.99-24.53,.71,.06,1.9,23.04-.67Zm66.64,6.46l19.72-.57,5.24-23.97-1.86-.41-4.93,22.52-18.23,.52,.05,1.9Zm3.95,1.98l-.21,1.89,19.6,2.18,8.53-23.01-1.79-.66-8.01,21.61-18.12-2.02Zm3.43,4.4l-.47,1.84,19.11,4.89,11.65-21.6-1.68-.9-10.94,20.29-17.67-4.52Zm2.78,4.84l-.72,1.76,18.24,7.5,14.54-19.76-1.53-1.13-13.66,18.57-16.87-6.94Zm-30.34-22.12l1.06,1.59,16.42-10.93-8.25-23.11-1.79,.64,7.75,21.7-15.18,10.1Zm46.93,51.46l-12.59-13.2-1.38,1.31,13.61,14.27,21.32-12.14-.94-1.66-20.03,11.4Zm-14.5-24.16l-.96,1.64,17.02,9.97,17.15-17.55-1.36-1.33-16.11,16.48-15.74-9.22Zm-26.97-26.13l.82,1.72,17.78-8.54L92.21-1.8l-1.86,.38,4.66,22.57-16.44,7.89Zm28.31,31.54l-1.18,1.49,15.47,12.24,19.43-14.99-1.16-1.51-18.25,14.08-14.3-11.32Zm-23.07-29.63l.58,1.81,18.8-5.98-1.57-24.49-1.9,.12,1.47,23-17.38,5.53Zm5.24,4.5l19.45-3.31,1.86-24.47-1.9-.14-1.75,22.98-17.98,3.06,.32,1.88Zm-47.22,1.33l1.88,.28,2.87-19.52L23.88,8.24l-.72,1.76,21.32,8.76-2.65,18.04Zm49.11,63.06l-1.86-.41-4.22,19.27,21.99,10.89,.85-1.71-20.66-10.23,3.9-17.81Zm-4.74,2.95l-1.79-.66-6.86,18.49,20.26,13.84,1.07-1.57-19.03-13,6.34-17.1Zm9.02-6.53l-1.9-.14-1.5,19.67,23.29,7.72,.6-1.81-21.88-7.25,1.38-18.18Zm-19.48,10.32l-1.53-1.13-11.69,15.89,15.66,18.89,1.47-1.22-14.71-17.74,10.81-14.69Zm5.37-1.53l-1.68-.9-9.37,17.36,18.14,16.53,1.28-1.41-17.04-15.52,8.66-16.05Zm29.57-5.39l-6.13-17.17-1.79,.64,6.63,18.58,24.42-2.42-.19-1.89-22.94,2.27Zm4.06-6.32l-8.46-16.15-1.69,.88,9.15,17.47,23.84-5.79-.45-1.85-22.4,5.44Zm3.14-6.83l-10.63-14.82-1.55,1.11,11.5,16.03,22.8-9.06-.7-1.77-21.42,8.51Zm-18.92,5.61l-1.9,.12,1.25,19.68,24.14,4.4,.34-1.87-22.67-4.14-1.16-18.2Zm3.13-4.62l-1.87,.38,3.98,19.32,24.52,1,.08-1.9-23.03-.94-3.68-17.86Zm-31.87,19.85l-1.36-1.33-13.79,14.1,12.88,20.89,1.62-1-12.1-19.62,12.75-13.04Zm-5.58,0l-1.16-1.51-15.62,12.05,9.85,22.47,1.74-.76-9.25-21.11,14.44-11.14Zm-31.81-19.95l.6-1.81-18.72-6.21L1.57,100.13l1.61,1.02,12.33-19.47,17.31,5.74Zm-5.11-15.82l1.28-1.41-14.58-13.29-20.42,13.6,1.06,1.59,19.18-12.77,13.48,12.29Zm8.23,20.45l.34-1.87-19.4-3.54-10.11,22.36,1.74,.78,9.5-21,17.94,3.28Zm-5.55-9.65l.85-1.71-17.67-8.75L-2.34,90.64l1.45,1.23,14.92-17.57,16.34,8.09Zm-1.72-5.31l1.07-1.57-16.28-11.13L-4.88,80.7l1.27,1.42,17.22-15.32,15.05,10.29Zm10.99,19.11l.08-1.9-19.71-.81-6.9,23.55,1.83,.54,6.49-22.12,18.22,.75Zm14.09,8.83l-.7-1.77-18.33,7.28,3.27,24.32,1.89-.25-3.07-22.84,16.95-6.73Zm5.36,1.55l-.94-1.66-17.14,9.76,6.62,23.63,1.83-.51-6.22-22.19,15.85-9.02Zm-10.9-5.67l-19.17,4.65-.15,24.54h1.9l.14-23.04,17.72-4.3-.45-1.85Zm-4.46-3.01l-19.63,1.94-3.56,24.28,1.88,.28,3.34-22.81,18.15-1.79-.19-1.89Z"/></g></g></g></g></svg>