<?xml version="1.0" encoding="UTF-8" standalone="no"?>
<svg width="143px" height="24px" viewBox="0 0 143 24" version="1.1" xmlns="http://www.w3.org/2000/svg" xmlns:xlink="http://www.w3.org/1999/xlink">
    <!-- Generator: sketchtool 42 (36781) - http://www.bohemiancoding.com/sketch -->
    <title>76F585B1-587B-4EE1-9ABF-F05B9FBAFEA2</title>
    <desc>Created with sketchtool.</desc>
    <defs></defs>
    <g id="Symbols" stroke="none" stroke-width="1" fill="none" fill-rule="evenodd">
        <g id="menu/white" transform="translate(-40.000000, -38.000000)" fill="#FFFFFF">
            <g id="logo/white" transform="translate(40.000000, 38.000000)">
                <g id="logo/dark" transform="translate(0.000000, 0.019093)">
                    <polygon id="Fill-1" points="35.7634592 19.302786 39.6051791 19.302786 39.6051791 3.76357508 35.7634592 3.76357508"></polygon>
                    <path d="M52.5885707,11.8916366 C52.5885707,12.127389 52.6127816,12.4724189 52.66106,12.9276065 L47.0606858,3.7636631 L42.9055856,3.7636631 L42.9055856,19.3028063 L45.9043663,19.3028063 L45.9043663,10.0019613 C45.9039365,9.81996746 45.8881063,9.59606362 45.8562311,9.33031745 C45.8478504,9.24724215 45.8400427,9.07249289 45.8318769,8.80674672 L52.2754769,19.3028063 L55.5634987,19.3028063 L55.5634987,3.7636631 L52.5885707,3.7636631 L52.5885707,11.8916366 Z" id="Fill-2"></path>
                    <path d="M94.0856212,16.5705295 C93.1060123,16.5705295 92.3429403,16.2254995 91.797193,15.5347626 C91.2511592,14.8367134 90.9782497,13.5123158 90.9782497,11.5616374 C90.9782497,8.18466372 91.9816397,6.4956691 93.989494,6.4956691 C95.7394811,6.49607534 96.6428759,7.59250679 96.698962,9.78570821 L100.733581,9.54670592 C100.235682,5.53200918 98.0116493,3.5245931 94.061267,3.5245931 C91.7810047,3.52493163 89.9823809,4.27220308 88.6660405,5.76715222 C87.3490554,7.26243989 86.6906344,9.18244748 86.6906344,11.5276489 C86.6906344,14.0323658 87.3690401,15.9940126 88.725923,17.4130633 C90.0906852,18.8326556 91.8611584,19.5418763 94.0376292,19.5418763 C95.8113974,19.5415377 97.3093194,19.0601479 98.529461,18.0962171 C99.7583415,17.124771 100.49312,15.7093765 100.733581,13.8496949 L97.0001652,13.6335773 C96.6466723,15.591568 95.6755874,16.5705295 94.0856212,16.5705295" id="Fill-4"></path>
                    <polygon id="Fill-6" points="58.8391141 19.3028063 70.5944204 19.3028063 70.5944204 16.2292234 62.7536099 16.2292234 62.7536099 12.8366773 68.9200743 12.8366773 68.9200743 9.91109978 62.7536099 9.91109978 62.7536099 6.72349989 70.5944204 6.72349989 70.5944204 3.7636631 58.8391141 3.7636631"></polygon>
                    <path d="M82.6793812,10.3549128 C81.9004073,10.0288406 80.6716701,9.7059505 78.9939574,9.38725822 C77.9902093,9.19761363 77.3439655,8.97404832 77.0549393,8.715479 C76.7738641,8.45778985 76.6332548,8.14275369 76.6332548,7.77064135 C76.6332548,6.83731373 77.3960403,6.37054836 78.9216113,6.37054836 C80.3506254,6.37054836 81.2858238,6.98531911 81.7279228,8.21479291 L85.0039824,7.17875524 C84.0802447,4.74262458 82.0046287,3.5245931 78.7771341,3.5245931 C76.9543711,3.52493163 75.509312,3.99887384 74.4415268,4.94736761 C73.3815494,5.89633533 72.8515606,7.06148839 72.8515606,8.44228517 C72.8515606,9.80886367 73.2971695,10.8482866 74.1884588,11.5616374 C75.0795333,12.267405 76.5732291,12.8253704 78.6685433,13.2350596 C79.7925578,13.4553073 80.5510456,13.6905858 80.9451526,13.9409627 C81.3383285,14.1913396 81.5350238,14.5442911 81.5350238,14.9996141 C81.5350238,15.4476249 81.3181289,15.8346326 80.8846254,16.1608403 C80.4511936,16.4796003 79.7925578,16.639048 78.9097208,16.639048 C77.0787204,16.639048 75.9624419,15.9143226 75.5616017,14.4645334 L71.9962295,15.2273772 C72.37379,16.6541464 73.1527639,17.7318233 74.3328645,18.4604756 C75.5213458,19.1815448 76.9586689,19.5418763 78.6449055,19.5418763 C80.8927196,19.5418763 82.5864773,19.0296802 83.7271099,18.0049494 C84.8749055,16.9804895 85.449448,15.7663849 85.449448,14.3620942 C85.4490182,13.4666819 85.1804065,12.6583396 84.6423953,11.9373381 C84.11212,11.208889 83.4579252,10.681459 82.6793812,10.3549128" id="Fill-8"></path>
                    <path d="M135.685031,16.5705295 C134.705422,16.5705295 133.942135,16.2254995 133.396602,15.5347626 C132.850569,14.8367134 132.577659,13.5123158 132.577659,11.5616374 C132.577659,8.18466372 133.581049,6.4956691 135.588617,6.4956691 C137.338819,6.49607534 138.242142,7.59250679 138.298371,9.78570821 L142.33299,9.54670592 C141.835092,5.53200918 139.611345,3.5245931 135.661249,3.5245931 C133.380414,3.52493163 131.58179,4.27220308 130.265378,5.76715222 C128.948465,7.26243989 128.289901,9.18244748 128.289901,11.5276489 C128.289901,14.0323658 128.968449,15.9940126 130.325332,17.4130633 C131.690381,18.8326556 133.460854,19.5418763 135.636752,19.5418763 C137.411093,19.5415377 138.908729,19.0601479 140.129372,18.0962171 C141.357751,17.124771 142.092529,15.7093765 142.33299,13.8496949 L138.599575,13.6335773 C138.24644,15.591568 137.274997,16.5705295 135.685031,16.5705295" id="Fill-10" opacity="0.699999988"></path>
                    <polygon id="Fill-12" opacity="0.699999988" points="101.299657 6.83731373 105.394731 6.83731373 105.394731 19.3028063 109.296978 19.3028063 109.296978 6.83731373 113.367842 6.83731373 113.367842 3.7636631 101.299657 3.7636631"></polygon>
                    <polygon id="Fill-14" opacity="0.699999988" points="115.2525 19.3028063 127.007162 19.3028063 127.007162 16.2292234 119.166638 16.2292234 119.166638 12.8366773 125.332816 12.8366773 125.332816 9.91109978 119.166638 9.91109978 119.166638 6.72349989 127.007162 6.72349989 127.007162 3.7636631 115.2525 3.7636631"></polygon>
                    <path d="M27.8589698,10.6414921 L27.8589698,3.48740218 C27.8589698,1.58811263 26.2104821,0.0486129294 24.1773425,0.0486129294 L3.68169899,0.0486129294 C1.64820121,0.0486129294 0,1.58811263 0,3.48740218 L0,19.6488992 C0,21.5481887 1.64820121,23.0877562 3.68169899,23.0877562 L19.2851002,23.0877562 C21.3186696,23.0877562 23.0253924,21.5481887 23.0253924,19.6489669 C23.0253924,18.7612054 23.0049062,16.1737518 23.0049062,16.1737518 L27.1370849,12.2860039 C27.6057586,11.84192 27.8589698,11.3146932 27.8589698,10.6414921 M20.9156089,3.77373098 C20.9156089,4.35485184 20.5737199,4.86048047 20.0700909,5.12101327 L20.0699477,8.32337307 C20.0699477,8.52310585 19.9840636,8.70428719 19.844672,8.83604312 L17.1607759,11.3778629 C17.0189489,11.5120562 16.8221103,11.595267 16.6042841,11.595267 L10.9468209,11.5957409 C10.9352885,11.6230264 10.9238278,11.645234 10.9130833,11.662499 C10.590033,12.3482934 9.86284748,12.8265688 9.01725795,12.8265688 C7.87218431,12.8265688 6.94336097,11.9488278 6.94336097,10.8661407 C6.94336097,9.7834536 7.87218431,8.90571263 9.01725795,8.90571263 C9.86256097,8.90571263 10.5898897,9.38385261 10.9130833,10.0695793 C10.9235412,10.0866412 10.9345006,10.1083071 10.9459614,10.135051 L16.2772225,10.135051 L18.5065561,8.0239093 L18.5069143,5.11701861 C18.0072249,4.85553793 17.6690608,4.35200818 17.6690608,3.77373098 C17.6690608,2.92632231 18.3958881,2.23924152 19.2926213,2.23924152 C20.1888531,2.23924152 20.9156089,2.92632231 20.9156089,3.77373098 M25.7791992,3.77088733 C25.7791992,4.35072177 25.4477682,4.85763681 24.9490101,5.11972685 L24.9385521,10.1917887 C24.9385521,10.3914537 24.8521666,10.5727028 24.7132765,10.7045941 L20.1061924,15.06405 L20.1102036,17.9633576 C20.6120419,18.2246352 20.9492032,18.7310086 20.9492032,19.3130096 C20.9492032,20.1625171 20.2238085,20.8512229 19.329439,20.8512229 C18.4350696,20.8512229 17.710033,20.1625171 17.710033,19.3130096 C17.710033,18.7329043 18.0484837,18.2291715 18.5479581,17.9672845 L18.5425143,14.76418 C18.5425143,14.5645826 18.6283984,14.3837398 18.7668588,14.2518484 L23.3750889,9.8923926 L23.3759485,5.11965915 C22.8564893,4.86020964 22.540029,4.35749237 22.540029,3.77088733 C22.540029,2.92144748 23.2651372,2.23274174 24.1595783,2.23274174 C25.0539477,2.23274174 25.7791992,2.92144748 25.7791992,3.77088733 M9.83963944,10.8661407 C9.83963944,10.4418947 9.471534,10.0979481 9.01725795,10.0979481 C8.56298189,10.0979481 8.19494809,10.4418947 8.19494809,10.8661407 C8.19494809,11.2904544 8.56298189,11.6343333 9.01725795,11.6343333 C9.471534,11.6343333 9.83963944,11.2904544 9.83963944,10.8661407" id="Fill-16"></path>
                </g>
            </g>
        </g>
    </g>
</svg>