<?xml version="1.0" encoding="utf-8"?>
<!-- Generator: Adobe Illustrator 21.0.0, SVG Export Plug-In . SVG Version: 6.00 Build 0)  -->
<svg version="1.1" id="圖層_1" xmlns="http://www.w3.org/2000/svg" xmlns:xlink="http://www.w3.org/1999/xlink" x="0px" y="0px"
	 viewBox="0 0 460 162" style="enable-background:new 0 0 460 162;" xml:space="preserve">
<style type="text/css">
	.st0{fill:#E32213;}
	.st1{fill:#FFFFFF;}
</style>
<rect class="st0" width="460" height="162"/>
<g>
	<path class="st1" d="M81.5,110.9L53.5,66.8c-2.7-4.2-1.4-9.8,2.8-12.4c4.2-2.7,9.8-1.4,12.4,2.8l12.7,20.1l12.7-20.1
		c2.7-4.2,8.2-5.4,12.4-2.8c4.2,2.7,5.4,8.2,2.8,12.4L81.5,110.9z"/>
</g>
<g>
	<path class="st1" d="M122.2,110.9L94.2,66.8c-2.7-4.2-1.4-9.8,2.8-12.4c4.2-2.7,9.8-1.4,12.4,2.8l12.7,20.1l12.7-20.1
		c2.7-4.2,8.2-5.4,12.4-2.8c4.2,2.7,5.4,8.2,2.8,12.4L122.2,110.9z"/>
</g>
<path class="st1" d="M181.2,52.3c-16.7,0-30.3,13.2-30.3,29.5c0,16.3,13.6,29.5,30.3,29.5s30.3-13.2,30.3-29.5
	C211.5,65.5,197.9,52.3,181.2,52.3z M181.2,95.8c-7,0-12.8-6.4-12.8-14.2c0-7.8,5.7-14.2,12.8-14.2S194,73.8,194,81.6
	C194,89.4,188.3,95.8,181.2,95.8z"/>
<g>
	<path class="st1" d="M233.8,109.7h-18V74c0-11.2,9.1-20.3,20.3-20.3h12.9v15.5h-12.4c-1.3,0-2.9,1.9-2.9,3.2V109.7z"/>
</g>
<path class="st1" d="M270.8,91.4V69.1h7.9c4.3,0,7.7-3.5,7.7-7.7c0-4.3-3.5-7.7-7.7-7.7h-7.9v-7.7c0-4.4-3.6-8-8.6-8
	c-4.6,0-8.2,3.9-8.2,8.6v46.2c0,9.4,7.6,17,17,17h15.4V94.2h-12.8C272.1,94.2,270.8,92.9,270.8,91.4z"/>
<path class="st1" d="M345.7,87.4c0.4-1.8,0.6-3.7,0.6-5.7c0-16.2-13.2-29.5-29.4-29.5c-16.2,0-29.4,13.2-29.4,29.5
	c0,16.3,13.2,29.5,29.4,29.5c12.5,0,23.3-7.9,27.5-19h-17.7c-2.5,2.9-6.1,4.7-10,4.7c-5.8,0-10.8-3.9-12.9-9.5H345.7z M316.7,66.6
	c5.2,0,9.7,3.1,12,7.7h-24.1C307,69.7,311.5,66.6,316.7,66.6z"/>
<g>
	<path class="st1" d="M407.7,110h-17.4l-0.1-28.2c0-3.6-1.6-12.3-11.7-12.3c-8.1,0-11.1,6.8-11.1,10.6c0,7.8,0,29.9,0,29.9h-17.2
		V80.1c0-11.3,8.8-27.2,28.3-27.2c18.9,0,29.1,14.9,29.1,28.9V110z"/>
</g>
</svg>
